<svg width="165" height="24" viewBox="0 0 165 24" fill="none" xmlns="http://www.w3.org/2000/svg">
<path d="M11.3707 23.2787H0V0.722656H22.8162V9.64017L25.1353 11.8883H34.0373V23.1289H22.8162V14.2863L20.572 12.1131H11.3707V23.2787Z" fill="white"/>
<path d="M44.9729 18H42.0467V5.5271H45.3936L57.2081 14.8361V5.5271H60.1343V18H56.8423L44.9729 8.58131V18ZM62.0771 13.373C62.0771 10.0078 64.6376 8.50816 70.051 8.50816C75.4828 8.50816 78.0432 10.0078 78.0432 13.373C78.0432 16.7198 75.4828 18.2195 70.051 18.2195C64.6376 18.2195 62.0771 16.7198 62.0771 13.373ZM64.8022 13.373C64.8022 15.1835 66.0458 15.9151 70.051 15.9151C74.0745 15.9151 75.3182 15.1835 75.3182 13.373C75.3182 11.5624 74.0745 10.8308 70.051 10.8308C66.0458 10.8308 64.8022 11.5624 64.8022 13.373ZM91.4851 4.28347H94.2284V18H91.8326L91.6131 16.5918C89.766 17.4331 87.5713 18.1829 85.2852 18.1829C81.6824 18.1829 79.6157 16.8844 79.6157 13.4827C79.6157 9.80666 82.359 8.58131 86.3826 8.58131C88.2846 8.58131 90.022 8.80078 91.4851 9.05682V4.28347ZM82.3407 13.4278C82.3407 15.2018 83.3283 15.9151 85.7059 15.9151C87.5165 15.9151 89.4916 15.4579 91.4851 14.8178V11.16C89.894 10.9588 87.9005 10.7942 86.1997 10.7942C83.7307 10.7942 82.3407 11.5075 82.3407 13.4278ZM103.926 16.0614C106.651 16.0614 108.81 15.7139 109.815 15.531L110.382 17.5245C108.736 17.9268 106.066 18.2378 103.689 18.2378C98.5495 18.2378 96.172 16.8844 96.172 13.373C96.172 9.91639 98.8056 8.52645 103.433 8.52645C107.73 8.52645 110.638 9.64206 110.638 12.7877C110.638 13.1718 110.602 13.8119 110.565 14.0314H98.8605C99.1531 15.6956 100.561 16.0614 103.926 16.0614ZM103.341 10.3919C100.397 10.3919 99.1165 10.9406 98.8605 12.5683H107.95C107.767 11.0686 106.743 10.3919 103.341 10.3919ZM122.233 18.2378C115.301 18.2378 112.21 16.2443 112.21 11.7636C112.21 7.28282 115.301 5.28935 122.233 5.28935C129.164 5.28935 132.255 7.28282 132.255 11.7636C132.255 16.2443 129.164 18.2378 122.233 18.2378ZM122.233 15.7139C127.591 15.7139 129.292 14.5617 129.292 11.7636C129.292 8.96538 127.591 7.81319 122.233 7.81319C116.874 7.81319 115.137 8.96538 115.137 11.7636C115.137 14.5617 116.874 15.7139 122.233 15.7139ZM136.93 21.3834H134.187V8.7642H136.583L136.802 10.1724C138.668 9.33115 140.954 8.58131 143.313 8.58131C146.769 8.58131 148.799 9.93468 148.799 13.2815C148.799 16.9027 146.148 18.1829 142.124 18.1829C140.277 18.1829 138.448 17.9634 136.93 17.6891V21.3834ZM142.819 10.8491C141.1 10.8491 139.015 11.3063 136.93 11.9647V15.6042C138.54 15.7871 140.551 15.97 142.27 15.97C144.739 15.97 146.074 15.2567 146.074 13.3364C146.074 11.5807 145.142 10.8491 142.819 10.8491ZM163.874 15.4762C163.874 17.6342 162.009 18.2378 157.51 18.2378C154.785 18.2378 152.188 17.872 150.56 17.5062L151.017 15.7139C152.81 16.0431 155.279 16.3906 157.857 16.3906C160.528 16.3906 161.314 16.226 161.314 15.4579C161.314 14.6532 160.601 14.5434 158.808 14.4154L154.456 14.1594C151.603 13.9948 150.377 13.2815 150.377 11.288C150.377 9.02024 152.7 8.50816 157.108 8.50816C159.01 8.50816 161.68 8.80078 163.234 9.05682L162.814 10.8674C160.838 10.5382 158.626 10.337 156.486 10.337C153.779 10.337 152.938 10.4833 152.938 11.2698C152.938 12.0379 153.596 12.111 154.748 12.1842L159.192 12.4768C162.283 12.6597 163.874 13.3364 163.874 15.4762Z" fill="white"/>
</svg>
