<svg width="252" height="129" viewBox="0 0 252 129" fill="none" xmlns="http://www.w3.org/2000/svg">
<rect x="91.2596" y="1.44416" width="69.9259" height="69.9259" stroke="white" stroke-opacity="0.3" stroke-width="1.18519"/>
<path d="M142.97 27.2781C142.911 27.2015 142.836 27.1394 142.75 27.0965C142.664 27.0537 142.569 27.0314 142.473 27.0312H114.684L113.074 21.2391C113.038 21.1075 112.959 20.9916 112.85 20.9089C112.742 20.8262 112.609 20.7814 112.473 20.7812H108.723C108.557 20.7812 108.398 20.8471 108.281 20.9643C108.164 21.0815 108.098 21.2405 108.098 21.4062C108.098 21.572 108.164 21.731 108.281 21.8482C108.398 21.9654 108.557 22.0312 108.723 22.0312H112.004L117.612 42.2422C117.796 42.8996 118.19 43.4789 118.733 43.8921C119.276 44.3052 119.94 44.5297 120.623 44.5312H136.066C136.749 44.5297 137.413 44.3052 137.956 43.8921C138.5 43.4789 138.893 42.8996 139.077 42.2422L143.082 27.8234C143.107 27.73 143.109 27.6322 143.09 27.5376C143.07 27.4429 143.029 27.3541 142.97 27.2781ZM137.865 41.9078C137.756 42.3014 137.521 42.6485 137.196 42.8964C136.872 43.1443 136.475 43.2795 136.066 43.2812H120.623C120.213 43.2812 119.814 43.1468 119.488 42.8988C119.162 42.6507 118.926 42.3027 118.816 41.9078L115.03 28.2812H141.651L137.865 41.9078ZM121.848 50.1562C121.848 50.5271 121.738 50.8896 121.532 51.1979C121.326 51.5063 121.033 51.7466 120.69 51.8885C120.348 52.0304 119.971 52.0676 119.607 51.9952C119.243 51.9229 118.909 51.7443 118.647 51.4821C118.385 51.2199 118.206 50.8858 118.134 50.522C118.061 50.1583 118.098 49.7813 118.24 49.4387C118.382 49.0961 118.623 48.8033 118.931 48.5972C119.239 48.3912 119.602 48.2812 119.973 48.2812C120.47 48.2812 120.947 48.4788 121.298 48.8304C121.65 49.1821 121.848 49.659 121.848 50.1562ZM138.098 50.1562C138.098 50.5271 137.988 50.8896 137.782 51.1979C137.576 51.5063 137.283 51.7466 136.94 51.8885C136.598 52.0304 136.221 52.0676 135.857 51.9952C135.493 51.9229 135.159 51.7443 134.897 51.4821C134.635 51.2199 134.456 50.8858 134.384 50.522C134.311 50.1583 134.348 49.7813 134.49 49.4387C134.632 49.0961 134.873 48.8033 135.181 48.5972C135.489 48.3912 135.852 48.2812 136.223 48.2812C136.72 48.2812 137.197 48.4788 137.548 48.8304C137.9 49.1821 138.098 49.659 138.098 50.1562Z" fill="white"/>
<path d="M161.777 38.1875H250.666V128.854" stroke="white" stroke-opacity="0.3" stroke-width="0.888889"/>
<path d="M90.667 38.1875H1.77811V128.854" stroke="white" stroke-opacity="0.3" stroke-width="0.888889"/>
<line x1="1.33312" y1="104.852" x2="1.33312" y2="128.852" stroke="white" stroke-width="0.888889"/>
<line y1="-0.444444" x2="24" y2="-0.444444" transform="matrix(0 1 1 0 251.556 104.852)" stroke="white" stroke-width="0.888889"/>
<line x1="91.1114" y1="29.2969" x2="91.1114" y2="47.0747" stroke="white" stroke-width="0.888889"/>
<line x1="73.7773" y1="37.7431" x2="91.5551" y2="37.7431" stroke="white" stroke-width="0.888889"/>
<line y1="-0.444444" x2="17.7778" y2="-0.444444" transform="matrix(0 1 1 0 161.777 29.2969)" stroke="white" stroke-width="0.888889"/>
<line y1="-0.444444" x2="17.7778" y2="-0.444444" transform="matrix(-1 0 0 1 178.667 38.1875)" stroke="white" stroke-width="0.888889"/>
</svg>
