<svg width="251" height="129" viewBox="0 0 251 129" fill="none" xmlns="http://www.w3.org/2000/svg">
<rect x="90.4813" y="0.780093" width="69.9259" height="69.9259" stroke="white" stroke-opacity="0.3" stroke-width="1.18519"/>
<path d="M136.694 23.8672H126.069V18.2422C126.069 18.0764 126.003 17.9175 125.886 17.8002C125.769 17.683 125.61 17.6172 125.444 17.6172C125.279 17.6172 125.12 17.683 125.002 17.8002C124.885 17.9175 124.819 18.0764 124.819 18.2422V23.8672H114.194C113.034 23.8672 111.921 24.3281 111.101 25.1486C110.28 25.9691 109.819 27.0819 109.819 28.2422V45.7422C109.819 46.9025 110.28 48.0153 111.101 48.8358C111.921 49.6563 113.034 50.1172 114.194 50.1172H136.694C137.855 50.1172 138.967 49.6563 139.788 48.8358C140.608 48.0153 141.069 46.9025 141.069 45.7422V28.2422C141.069 27.0819 140.608 25.9691 139.788 25.1486C138.967 24.3281 137.855 23.8672 136.694 23.8672ZM139.819 45.7422C139.819 46.571 139.49 47.3658 138.904 47.9519C138.318 48.5379 137.523 48.8672 136.694 48.8672H114.194C113.366 48.8672 112.571 48.5379 111.985 47.9519C111.399 47.3658 111.069 46.571 111.069 45.7422V28.2422C111.069 27.4134 111.399 26.6185 111.985 26.0325C112.571 25.4464 113.366 25.1172 114.194 25.1172H136.694C137.523 25.1172 138.318 25.4464 138.904 26.0325C139.49 26.6185 139.819 27.4134 139.819 28.2422V45.7422ZM117.319 32.6172C117.319 32.37 117.393 32.1283 117.53 31.9227C117.667 31.7172 117.863 31.5569 118.091 31.4623C118.319 31.3677 118.571 31.343 118.813 31.3912C119.056 31.4394 119.278 31.5585 119.453 31.7333C119.628 31.9081 119.747 32.1308 119.795 32.3733C119.844 32.6158 119.819 32.8671 119.724 33.0955C119.63 33.3239 119.469 33.5192 119.264 33.6565C119.058 33.7939 118.817 33.8672 118.569 33.8672C118.238 33.8672 117.92 33.7355 117.685 33.5011C117.451 33.2667 117.319 32.9487 117.319 32.6172ZM131.069 32.6172C131.069 32.37 131.143 32.1283 131.28 31.9227C131.417 31.7172 131.613 31.5569 131.841 31.4623C132.069 31.3677 132.321 31.343 132.563 31.3912C132.806 31.4394 133.028 31.5585 133.203 31.7333C133.378 31.9081 133.497 32.1308 133.545 32.3733C133.594 32.6158 133.569 32.8671 133.474 33.0955C133.38 33.3239 133.219 33.5192 133.014 33.6565C132.808 33.7939 132.567 33.8672 132.319 33.8672C131.988 33.8672 131.67 33.7355 131.435 33.5011C131.201 33.2667 131.069 32.9487 131.069 32.6172ZM131.069 37.6172H119.819C118.825 37.6172 117.871 38.0123 117.168 38.7155C116.464 39.4188 116.069 40.3726 116.069 41.3672C116.069 42.3617 116.464 43.3156 117.168 44.0188C117.871 44.7221 118.825 45.1172 119.819 45.1172H131.069C132.064 45.1172 133.018 44.7221 133.721 44.0188C134.424 43.3156 134.819 42.3617 134.819 41.3672C134.819 40.3726 134.424 39.4188 133.721 38.7155C133.018 38.0123 132.064 37.6172 131.069 37.6172ZM127.944 38.8672V43.8672H122.944V38.8672H127.944ZM117.319 41.3672C117.319 40.7041 117.583 40.0683 118.052 39.5994C118.52 39.1306 119.156 38.8672 119.819 38.8672H121.694V43.8672H119.819C119.156 43.8672 118.52 43.6038 118.052 43.135C117.583 42.6661 117.319 42.0302 117.319 41.3672ZM131.069 43.8672H129.194V38.8672H131.069C131.732 38.8672 132.368 39.1306 132.837 39.5994C133.306 40.0683 133.569 40.7041 133.569 41.3672C133.569 42.0302 133.306 42.6661 132.837 43.135C132.368 43.6038 131.732 43.8672 131.069 43.8672Z" fill="white"/>
<path d="M161 37.5234H249.889V128.19" stroke="white" stroke-opacity="0.3" stroke-width="0.888889"/>
<path d="M89.8887 37.5234H0.999789V128.19" stroke="white" stroke-opacity="0.3" stroke-width="0.888889"/>
<line x1="0.555773" y1="104.188" x2="0.555773" y2="128.188" stroke="white" stroke-width="0.888889"/>
<line y1="-0.444444" x2="24" y2="-0.444444" transform="matrix(0 1 1 0 250.777 104.188)" stroke="white" stroke-width="0.888889"/>
<line x1="90.3331" y1="28.6328" x2="90.3331" y2="46.4106" stroke="white" stroke-width="0.888889"/>
<line x1="73" y1="37.079" x2="90.7778" y2="37.079" stroke="white" stroke-width="0.888889"/>
<line y1="-0.444444" x2="17.7778" y2="-0.444444" transform="matrix(0 1 1 0 161 28.6328)" stroke="white" stroke-width="0.888889"/>
<line y1="-0.444444" x2="17.7778" y2="-0.444444" transform="matrix(-1 0 0 1 177.889 37.5234)" stroke="white" stroke-width="0.888889"/>
</svg>
