<svg width="251" height="128" viewBox="0 0 251 128" fill="none" xmlns="http://www.w3.org/2000/svg">
<rect x="90.7029" y="1.34259" width="69.9259" height="69.9259" stroke="white" stroke-opacity="0.3" stroke-width="1.18519"/>
<path d="M130.666 23.1797C128.15 23.182 125.688 23.9064 123.571 25.2669C121.455 26.6274 119.774 28.5668 118.727 30.8547C118.13 30.7385 117.524 30.6799 116.916 30.6797C114.43 30.6797 112.045 31.6674 110.287 33.4256C108.529 35.1837 107.541 37.5683 107.541 40.0547C107.541 42.5411 108.529 44.9257 110.287 46.6838C112.045 48.442 114.43 49.4297 116.916 49.4297H130.666C134.147 49.4297 137.485 48.0469 139.947 45.5855C142.408 43.1241 143.791 39.7857 143.791 36.3047C143.791 32.8237 142.408 29.4853 139.947 27.0239C137.485 24.5625 134.147 23.1797 130.666 23.1797ZM130.666 48.1797H116.916C115.793 48.1787 114.683 47.9449 113.655 47.4932C112.627 47.0415 111.703 46.3816 110.943 45.5552C110.183 44.7288 109.603 43.7538 109.238 42.6917C108.874 41.6296 108.733 40.5035 108.826 39.3845C108.919 38.2655 109.242 37.1778 109.776 36.1901C110.31 35.2023 111.043 34.3361 111.929 33.6459C112.815 32.9557 113.834 32.4565 114.922 32.18C116.01 31.9034 117.144 31.8554 118.252 32.0391C117.78 33.4116 117.54 34.8532 117.541 36.3047C117.541 36.4704 117.607 36.6294 117.724 36.7466C117.841 36.8638 118 36.9297 118.166 36.9297C118.332 36.9297 118.491 36.8638 118.608 36.7466C118.725 36.6294 118.791 36.4704 118.791 36.3047C118.791 33.956 119.487 31.6601 120.792 29.7073C122.097 27.7545 123.952 26.2324 126.122 25.3336C128.292 24.4348 130.679 24.1997 132.983 24.6579C135.286 25.1161 137.402 26.247 139.063 27.9078C140.724 29.5685 141.855 31.6845 142.313 33.988C142.771 36.2915 142.536 38.6792 141.637 40.8491C140.738 43.0189 139.216 44.8735 137.263 46.1784C135.311 47.4832 133.015 48.1797 130.666 48.1797Z" fill="white"/>
<path d="M161.222 38.0859H250.111V128.753" stroke="white" stroke-opacity="0.3" stroke-width="0.888889"/>
<path d="M90.1104 38.0859H1.22147V128.753" stroke="white" stroke-opacity="0.3" stroke-width="0.888889"/>
<line x1="0.776476" y1="104.75" x2="0.776476" y2="128.75" stroke="white" stroke-width="0.888889"/>
<line y1="-0.444444" x2="24" y2="-0.444444" transform="matrix(0 1 1 0 250.999 104.75)" stroke="white" stroke-width="0.888889"/>
<line x1="90.5548" y1="29.1953" x2="90.5548" y2="46.9731" stroke="white" stroke-width="0.888889"/>
<line x1="73.2217" y1="37.6415" x2="90.9995" y2="37.6415" stroke="white" stroke-width="0.888889"/>
<line y1="-0.444444" x2="17.7778" y2="-0.444444" transform="matrix(0 1 1 0 161.222 29.1953)" stroke="white" stroke-width="0.888889"/>
<line y1="-0.444444" x2="17.7778" y2="-0.444444" transform="matrix(-1 0 0 1 178.11 38.0859)" stroke="white" stroke-width="0.888889"/>
</svg>
