<svg width="252" height="129" viewBox="0 0 252 129" fill="none" xmlns="http://www.w3.org/2000/svg">
<rect x="91.2596" y="1.33478" width="69.9259" height="69.9259" stroke="white" stroke-opacity="0.3" stroke-width="1.18519"/>
<path d="M141.762 43.4837C141.803 43.5547 141.83 43.6332 141.842 43.7146C141.853 43.7961 141.848 43.879 141.827 43.9586C141.806 44.0381 141.77 44.1127 141.72 44.1782C141.67 44.2437 141.608 44.2986 141.537 44.34L126.537 53.09C126.442 53.1448 126.334 53.1737 126.224 53.1737C126.115 53.1737 126.007 53.1448 125.912 53.09L110.912 44.34C110.776 44.2535 110.678 44.1178 110.64 43.9612C110.602 43.8047 110.625 43.6393 110.706 43.4998C110.787 43.3602 110.918 43.2572 111.073 43.2123C111.228 43.1674 111.394 43.184 111.537 43.2587L126.224 51.8259L140.912 43.2587C141.054 43.1767 141.224 43.1544 141.383 43.1965C141.542 43.2386 141.678 43.3418 141.762 43.4837ZM140.91 35.7556L126.223 44.3228L111.535 35.7556C111.392 35.6809 111.226 35.6642 111.071 35.7092C110.916 35.7541 110.785 35.8571 110.704 35.9966C110.624 36.1362 110.6 36.3015 110.638 36.4581C110.677 36.6147 110.774 36.7504 110.91 36.8369L125.91 45.5869C126.005 45.6417 126.113 45.6706 126.223 45.6706C126.332 45.6706 126.44 45.6417 126.535 45.5869L141.535 36.8369C141.671 36.7504 141.769 36.6147 141.807 36.4581C141.845 36.3015 141.822 36.1362 141.741 35.9966C141.66 35.8571 141.529 35.7541 141.374 35.7092C141.219 35.6642 141.053 35.6809 140.91 35.7556ZM110.598 28.7962C110.598 28.6866 110.627 28.579 110.682 28.4841C110.736 28.3892 110.815 28.3104 110.91 28.2556L125.91 19.5056C126.005 19.4508 126.113 19.4219 126.223 19.4219C126.332 19.4219 126.44 19.4508 126.535 19.5056L141.535 28.2556C141.63 28.3105 141.708 28.3894 141.763 28.4843C141.818 28.5792 141.847 28.6867 141.847 28.7962C141.847 28.9057 141.818 29.0133 141.763 29.1082C141.708 29.2031 141.63 29.2819 141.535 29.3369L126.535 38.0869C126.44 38.1417 126.332 38.1706 126.223 38.1706C126.113 38.1706 126.005 38.1417 125.91 38.0869L110.91 29.3369C110.815 29.2821 110.736 29.2033 110.682 29.1084C110.627 29.0135 110.598 28.9058 110.598 28.7962ZM112.463 28.7962L126.223 36.8228L139.982 28.7962L126.223 20.7697L112.463 28.7962Z" fill="white"/>
<path d="M161.777 38.0781H250.666V128.745" stroke="white" stroke-opacity="0.3" stroke-width="0.888889"/>
<path d="M90.667 38.0781H1.77811V128.745" stroke="white" stroke-opacity="0.3" stroke-width="0.888889"/>
<line x1="1.33312" y1="104.742" x2="1.33312" y2="128.742" stroke="white" stroke-width="0.888889"/>
<line y1="-0.444444" x2="24" y2="-0.444444" transform="matrix(0 1 1 0 251.556 104.742)" stroke="white" stroke-width="0.888889"/>
<line x1="91.1114" y1="29.1875" x2="91.1114" y2="46.9653" stroke="white" stroke-width="0.888889"/>
<line x1="73.7773" y1="37.6337" x2="91.5551" y2="37.6337" stroke="white" stroke-width="0.888889"/>
<line y1="-0.444444" x2="17.7778" y2="-0.444444" transform="matrix(0 1 1 0 161.777 29.1875)" stroke="white" stroke-width="0.888889"/>
<line y1="-0.444444" x2="17.7778" y2="-0.444444" transform="matrix(-1 0 0 1 178.667 38.0781)" stroke="white" stroke-width="0.888889"/>
</svg>
