<svg width="252" height="129" viewBox="0 0 252 129" fill="none" xmlns="http://www.w3.org/2000/svg">
<rect x="90.8152" y="1.33478" width="69.9259" height="69.9259" stroke="white" stroke-opacity="0.3" stroke-width="1.18519"/>
<path d="M142.623 21.9534C142.217 21.5471 141.735 21.2248 141.204 21.0049C140.673 20.7851 140.104 20.6719 139.529 20.6719C138.955 20.6719 138.386 20.7851 137.855 21.0049C137.324 21.2248 136.842 21.5471 136.436 21.9534C136.029 22.3597 135.707 22.842 135.487 23.3728C135.267 23.9037 135.154 24.4726 135.154 25.0472C135.154 25.6218 135.267 26.1907 135.487 26.7215C135.707 27.2524 136.029 27.7347 136.436 28.1409C136.588 28.2946 136.752 28.4362 136.926 28.5644L132.281 37.1909C131.598 36.9423 130.863 36.8673 130.144 36.9729C129.424 37.0784 128.742 37.3611 128.159 37.7956L124.281 33.9175C124.943 33.0317 125.246 31.9279 125.127 30.8283C125.008 29.7286 124.478 28.7147 123.642 27.9905C122.806 27.2664 121.726 26.8858 120.621 26.9253C119.516 26.9648 118.466 27.4215 117.684 28.2034C117.239 28.6483 116.895 29.1839 116.676 29.7738C116.457 30.3637 116.368 30.9938 116.414 31.6214C116.461 32.2489 116.642 32.859 116.946 33.41C117.25 33.9611 117.669 34.4401 118.175 34.8144L113.528 43.4425C112.745 43.1561 111.896 43.0994 111.082 43.2791C110.268 43.4587 109.522 43.8673 108.933 44.4566C108.321 45.0684 107.904 45.848 107.735 46.6966C107.567 47.5453 107.653 48.4249 107.984 49.2243C108.316 50.0237 108.876 50.707 109.596 51.1877C110.315 51.6684 111.161 51.925 112.026 51.925C112.892 51.925 113.737 51.6684 114.457 51.1877C115.176 50.707 115.737 50.0237 116.068 49.2243C116.399 48.4249 116.486 47.5453 116.317 46.6966C116.149 45.848 115.732 45.0684 115.12 44.4566C114.967 44.3037 114.803 44.1622 114.629 44.0331L119.275 35.4066C119.958 35.6564 120.693 35.7319 121.412 35.6263C122.132 35.5207 122.814 35.2374 123.397 34.8019L127.275 38.68C126.756 39.3738 126.455 40.2058 126.41 41.0708C126.365 41.9357 126.577 42.7946 127.021 43.5387C127.464 44.2827 128.118 44.8784 128.901 45.2503C129.683 45.6222 130.558 45.7536 131.415 45.6278C132.272 45.5019 133.072 45.1246 133.714 44.5435C134.357 43.9624 134.812 43.2038 135.023 42.3637C135.233 41.5236 135.19 40.6398 134.898 39.8244C134.606 39.009 134.079 38.2985 133.383 37.7831L138.028 29.155C138.963 29.4964 139.987 29.5084 140.931 29.189C141.874 28.8697 142.68 28.238 143.216 27.3985C143.752 26.559 143.985 25.5618 143.877 24.5718C143.769 23.5817 143.327 22.6581 142.623 21.9534ZM114.236 49.7659C113.799 50.2031 113.242 50.5008 112.636 50.6215C112.029 50.7421 111.401 50.6803 110.83 50.4438C110.259 50.2073 109.771 49.8067 109.427 49.2928C109.084 48.7789 108.901 48.1747 108.901 47.5566C108.901 46.9385 109.084 46.3342 109.427 45.8203C109.771 45.3064 110.259 44.9058 110.83 44.6694C111.401 44.4329 112.029 44.371 112.636 44.4917C113.242 44.6123 113.799 44.9101 114.236 45.3472C114.82 45.933 115.148 46.7263 115.148 47.5534C115.148 48.3805 114.82 49.1739 114.236 49.7597V49.7659ZM118.567 33.5159C118.13 33.0789 117.833 32.522 117.712 31.9159C117.592 31.3097 117.654 30.6814 117.89 30.1105C118.127 29.5396 118.527 29.0516 119.041 28.7082C119.555 28.3649 120.159 28.1817 120.777 28.1817C121.395 28.1817 121.999 28.3649 122.513 28.7082C123.027 29.0516 123.428 29.5396 123.664 30.1105C123.901 30.6814 123.963 31.3097 123.842 31.9159C123.722 32.522 123.424 33.0789 122.987 33.5159C122.697 33.8057 122.352 34.0354 121.972 34.1919C121.593 34.3483 121.186 34.4285 120.776 34.4278C120.365 34.4271 119.959 34.3455 119.58 34.1877C119.201 34.0299 118.857 33.799 118.567 33.5081V33.5159ZM132.989 43.5159C132.552 43.9529 131.995 44.2504 131.389 44.3708C130.783 44.4913 130.154 44.4293 129.583 44.1928C129.012 43.9562 128.524 43.5557 128.181 43.0418C127.838 42.5279 127.655 41.9238 127.655 41.3058C127.655 40.6878 127.838 40.0836 128.181 39.5698C128.524 39.0559 129.012 38.6553 129.583 38.4188C130.154 38.1822 130.783 38.1203 131.389 38.2407C131.995 38.3612 132.552 38.6587 132.989 39.0956C133.573 39.6815 133.901 40.4752 133.901 41.3027C133.901 42.1301 133.573 42.9239 132.989 43.5097V43.5159ZM141.739 27.2659C141.302 27.7029 140.745 28.0004 140.139 28.1208C139.533 28.2413 138.904 28.1793 138.333 27.9428C137.762 27.7062 137.274 27.3057 136.931 26.7918C136.588 26.2779 136.405 25.6738 136.405 25.0558C136.405 24.4378 136.588 23.8336 136.931 23.3198C137.274 22.8059 137.762 22.4053 138.333 22.1688C138.904 21.9322 139.533 21.8703 140.139 21.9907C140.745 22.1112 141.302 22.4087 141.739 22.8456C142.323 23.4314 142.651 24.2248 142.651 25.0519C142.651 25.879 142.323 26.6724 141.739 27.2581V27.2659Z" fill="white"/>
<path d="M161.333 38.0781H250.222V128.745" stroke="white" stroke-opacity="0.3" stroke-width="0.888889"/>
<path d="M90.2227 38.0781H1.33377V128.745" stroke="white" stroke-opacity="0.3" stroke-width="0.888889"/>
<line x1="0.88878" y1="104.742" x2="0.88878" y2="128.742" stroke="white" stroke-width="0.888889"/>
<line y1="-0.444444" x2="24" y2="-0.444444" transform="matrix(0 1 1 0 251.111 104.742)" stroke="white" stroke-width="0.888889"/>
<line x1="90.6671" y1="29.1875" x2="90.6671" y2="46.9653" stroke="white" stroke-width="0.888889"/>
<line x1="73.333" y1="37.6337" x2="91.1108" y2="37.6337" stroke="white" stroke-width="0.888889"/>
<line y1="-0.444444" x2="17.7778" y2="-0.444444" transform="matrix(0 1 1 0 161.333 29.1875)" stroke="white" stroke-width="0.888889"/>
<line y1="-0.444444" x2="17.7778" y2="-0.444444" transform="matrix(-1 0 0 1 178.223 38.0781)" stroke="white" stroke-width="0.888889"/>
</svg>
