<svg width="28" height="28" viewBox="0 0 28 28" fill="none" xmlns="http://www.w3.org/2000/svg">
<path d="M10.9364 15.3112C10.9364 15.4842 10.8851 15.6534 10.789 15.7973C10.6928 15.9412 10.5562 16.0533 10.3963 16.1196C10.2364 16.1858 10.0605 16.2031 9.89073 16.1694C9.721 16.1356 9.56509 16.0523 9.44272 15.9299C9.32035 15.8075 9.23701 15.6516 9.20325 15.4819C9.16949 15.3121 9.18681 15.1362 9.25304 14.9763C9.31927 14.8164 9.43142 14.6798 9.57531 14.5836C9.7192 14.4875 9.88838 14.4362 10.0614 14.4362C10.2935 14.4362 10.5161 14.5284 10.6802 14.6925C10.8442 14.8565 10.9364 15.0791 10.9364 15.3112ZM17.9364 14.4362C17.7634 14.4362 17.5942 14.4875 17.4503 14.5836C17.3064 14.6798 17.1943 14.8164 17.128 14.9763C17.0618 15.1362 17.0445 15.3121 17.0782 15.4819C17.112 15.6516 17.1953 15.8075 17.3177 15.9299C17.4401 16.0523 17.596 16.1356 17.7657 16.1694C17.9355 16.2031 18.1114 16.1858 18.2713 16.1196C18.4312 16.0533 18.5678 15.9412 18.664 15.7973C18.7601 15.6534 18.8114 15.4842 18.8114 15.3112C18.8114 15.0791 18.7192 14.8565 18.5552 14.6925C18.3911 14.5284 18.1685 14.4362 17.9364 14.4362ZM25.9022 20.6979L18.5741 23.9474C18.4014 24.0215 18.2151 24.0587 18.0272 24.0568C17.7566 24.0572 17.4923 23.9749 17.2699 23.8208C17.0474 23.6668 16.8773 23.4484 16.7825 23.1949L15.7817 20.4813C15.1955 20.5305 14.5994 20.5568 13.9946 20.5568C13.3897 20.5568 12.7914 20.5305 12.2074 20.4813L11.2066 23.1949C11.1128 23.4485 10.9437 23.6673 10.722 23.8222C10.5003 23.977 10.2367 24.0604 9.96628 24.0612C9.77837 24.0631 9.59211 24.0259 9.4194 23.9518L2.09128 20.7023C1.80831 20.5774 1.57852 20.3566 1.44244 20.0789C1.30637 19.8011 1.27275 19.4843 1.34753 19.1841L4.58175 6.4518C4.64561 6.20294 4.78075 5.97815 4.97058 5.80503C5.16041 5.6319 5.39667 5.51799 5.65034 5.47726L9.5944 4.82976C9.92105 4.77667 10.2558 4.84704 10.5334 5.02719C10.811 5.20733 11.0116 5.48435 11.0961 5.8043L11.5467 7.57836C13.1761 7.39023 14.8217 7.39023 16.4511 7.57836L16.9017 5.8043C16.9863 5.48435 17.1869 5.20733 17.4645 5.02719C17.7421 4.84704 18.0768 4.77667 18.4035 4.82976L22.3475 5.47726C22.6012 5.51799 22.8375 5.6319 23.0273 5.80503C23.2171 5.97815 23.3523 6.20294 23.4161 6.4518L26.646 19.1809C26.7205 19.4808 26.6867 19.7974 26.5506 20.075C26.4146 20.3525 26.185 20.5731 25.9022 20.6979ZM25.7928 19.3952L22.5685 6.67055C22.5464 6.5859 22.4999 6.50964 22.4347 6.45128C22.3695 6.39293 22.2886 6.35506 22.2021 6.34242L18.2646 5.69164C18.1536 5.67303 18.0397 5.69629 17.9449 5.75692C17.8501 5.81755 17.7812 5.91122 17.7516 6.01976L17.3239 7.69648C18.013 7.80603 18.6951 7.95502 19.3671 8.14273C19.4237 8.15703 19.4769 8.18252 19.5236 8.21771C19.5702 8.2529 19.6093 8.29708 19.6386 8.34763C19.6679 8.39818 19.6867 8.45409 19.6941 8.51205C19.7014 8.57001 19.697 8.62885 19.6813 8.6851C19.6655 8.74136 19.6386 8.79388 19.6022 8.83957C19.5658 8.88526 19.5206 8.9232 19.4693 8.95115C19.418 8.97909 19.3616 8.99648 19.3035 9.00228C19.2453 9.00808 19.1866 9.00218 19.1308 8.98492C17.4583 8.53061 15.7321 8.30399 13.9989 8.31117C12.2658 8.30399 10.5396 8.53061 8.86706 8.98492C8.81124 9.00218 8.75254 9.00808 8.6944 9.00228C8.63627 8.99648 8.57988 8.97909 8.52858 8.95115C8.47727 8.9232 8.43208 8.88526 8.39567 8.83957C8.35927 8.79388 8.33238 8.74136 8.3166 8.6851C8.30082 8.62885 8.29647 8.57001 8.3038 8.51205C8.31113 8.45409 8.32999 8.39818 8.35928 8.34763C8.38857 8.29708 8.42768 8.2529 8.47432 8.21771C8.52095 8.18252 8.57416 8.15703 8.63081 8.14273C9.30276 7.95502 9.98492 7.80603 10.6739 7.69648L10.2485 6.0143C10.2188 5.90575 10.15 5.81208 10.0552 5.75145C9.96039 5.69082 9.84646 5.66756 9.7355 5.68617L5.79581 6.34242C5.71004 6.35586 5.63008 6.39407 5.56575 6.45237C5.50143 6.51067 5.45556 6.58651 5.43378 6.67055L2.19956 19.3952C2.17586 19.495 2.18795 19.5999 2.23373 19.6917C2.27951 19.7834 2.35606 19.8562 2.45003 19.8973L9.77815 23.1468C9.83589 23.1722 9.89828 23.1853 9.96136 23.1853C10.0244 23.1853 10.0868 23.1722 10.1446 23.1468C10.2005 23.1242 10.2511 23.0903 10.2932 23.0472C10.3354 23.0041 10.3682 22.9527 10.3896 22.8963L11.3138 20.3938C10.4075 20.28 9.51084 20.1002 8.63081 19.8557C8.57544 19.8402 8.52367 19.8139 8.47845 19.7784C8.43323 19.7429 8.39545 19.6988 8.36726 19.6487C8.33908 19.5986 8.32104 19.5434 8.31419 19.4863C8.30733 19.4292 8.31178 19.3713 8.32729 19.3159C8.34281 19.2606 8.36907 19.2088 8.40459 19.1636C8.44012 19.1184 8.4842 19.0806 8.53432 19.0524C8.58444 19.0242 8.63962 19.0062 8.69671 18.9993C8.75381 18.9925 8.81169 18.9969 8.86706 19.0124C10.5396 19.4667 12.2658 19.6934 13.9989 19.6862C15.7321 19.6934 17.4583 19.4667 19.1308 19.0124C19.2426 18.9811 19.3623 18.9955 19.4636 19.0524C19.5648 19.1093 19.6392 19.2041 19.6706 19.3159C19.7019 19.4278 19.6875 19.5475 19.6306 19.6487C19.5737 19.7499 19.4789 19.8244 19.3671 19.8557C18.487 20.1002 17.5903 20.28 16.6841 20.3938L17.6083 22.8963C17.6292 22.9532 17.6616 23.0051 17.7036 23.0488C17.7456 23.0925 17.7962 23.127 17.8522 23.1501C17.91 23.1755 17.9723 23.1886 18.0354 23.1886C18.0985 23.1886 18.1609 23.1755 18.2186 23.1501L25.5467 19.9005C25.6416 19.8596 25.7189 19.7864 25.7649 19.6939C25.811 19.6014 25.8228 19.4956 25.7983 19.3952H25.7928Z" fill="white"/>
</svg>
