<svg width="28" height="28" viewBox="0 0 28 28" fill="none" xmlns="http://www.w3.org/2000/svg">
<path d="M22.3059 8.33002C22.5915 7.50264 22.6956 6.62345 22.6111 5.75226C22.5265 4.88106 22.2553 4.03829 21.8159 3.28127C21.7776 3.21483 21.7224 3.15965 21.656 3.12125C21.5896 3.08286 21.5142 3.0626 21.4375 3.06252C20.4489 3.05972 19.4745 3.29717 18.5981 3.75444C17.7217 4.21171 16.9695 4.8751 16.4062 5.68752H13.3437C12.7805 4.8751 12.0283 4.21171 11.1519 3.75444C10.2755 3.29717 9.30105 3.05972 8.3125 3.06252C8.23578 3.0626 8.16043 3.08286 8.094 3.12125C8.02758 3.15965 7.97242 3.21483 7.93406 3.28127C7.49468 4.03829 7.2235 4.88106 7.13894 5.75226C7.05439 6.62345 7.15846 7.50264 7.44406 8.33002C6.87709 9.24522 6.57216 10.2985 6.5625 11.375V12.25C6.56424 13.7579 7.16401 15.2035 8.23025 16.2698C9.29648 17.336 10.7421 17.9358 12.25 17.9375H12.4042C11.9467 18.3062 11.5776 18.7726 11.3238 19.3025C11.07 19.8325 10.938 20.4125 10.9375 21V22.3125H7.875C7.06277 22.3125 6.28382 21.9899 5.70949 21.4155C5.13516 20.8412 4.8125 20.0623 4.8125 19.25C4.8125 18.2057 4.39766 17.2042 3.65923 16.4658C2.92081 15.7274 1.91929 15.3125 0.875 15.3125C0.758968 15.3125 0.647688 15.3586 0.565641 15.4407C0.483594 15.5227 0.4375 15.634 0.4375 15.75C0.4375 15.8661 0.483594 15.9773 0.565641 16.0594C0.647688 16.1414 0.758968 16.1875 0.875 16.1875C1.68723 16.1875 2.46618 16.5102 3.04051 17.0845C3.61484 17.6588 3.9375 18.4378 3.9375 19.25C3.9375 20.2943 4.35234 21.2958 5.09077 22.0343C5.82919 22.7727 6.83071 23.1875 7.875 23.1875H10.9375V25.375C10.9375 25.4911 10.9836 25.6023 11.0656 25.6844C11.1477 25.7664 11.259 25.8125 11.375 25.8125C11.491 25.8125 11.6023 25.7664 11.6844 25.6844C11.7664 25.6023 11.8125 25.4911 11.8125 25.375V21C11.8125 20.1878 12.1352 19.4088 12.7095 18.8345C13.2838 18.2602 14.0628 17.9375 14.875 17.9375C15.6872 17.9375 16.4662 18.2602 17.0405 18.8345C17.6148 19.4088 17.9375 20.1878 17.9375 21V25.375C17.9375 25.4911 17.9836 25.6023 18.0656 25.6844C18.1477 25.7664 18.259 25.8125 18.375 25.8125C18.491 25.8125 18.6023 25.7664 18.6844 25.6844C18.7664 25.6023 18.8125 25.4911 18.8125 25.375V21C18.812 20.4125 18.68 19.8325 18.4262 19.3025C18.1724 18.7726 17.8033 18.3062 17.3458 17.9375H17.5C19.0079 17.9358 20.4535 17.336 21.5198 16.2698C22.586 15.2035 23.1858 13.7579 23.1875 12.25V11.375C23.1778 10.2985 22.8729 9.24522 22.3059 8.33002ZM22.3125 12.25C22.3111 13.5259 21.8036 14.7492 20.9014 15.6514C19.9991 16.5536 18.7759 17.0611 17.5 17.0625H12.25C10.9741 17.0611 9.75085 16.5536 8.84865 15.6514C7.94644 14.7492 7.43895 13.5259 7.4375 12.25V11.375C7.44883 10.405 7.74181 9.45923 8.28078 8.65268C8.32525 8.59333 8.3539 8.52364 8.36404 8.45017C8.37418 8.3767 8.36548 8.30186 8.33875 8.23268C8.07132 7.54231 7.95351 6.80302 7.99311 6.06372C8.0327 5.32442 8.2288 4.60195 8.56844 3.94409C9.40634 3.98297 10.2226 4.2229 10.9483 4.64361C11.6739 5.06431 12.2877 5.65345 12.7378 6.36127C12.7774 6.42304 12.832 6.47385 12.8964 6.50902C12.9608 6.54419 13.033 6.56259 13.1064 6.56252H16.6436C16.717 6.56259 16.7892 6.54419 16.8536 6.50902C16.918 6.47385 16.9726 6.42304 17.0122 6.36127C17.4623 5.65345 18.0761 5.06431 18.8017 4.64361C19.5274 4.2229 20.3437 3.98297 21.1816 3.94409C21.5212 4.60195 21.7173 5.32442 21.7569 6.06372C21.7965 6.80302 21.6787 7.54231 21.4112 8.23268C21.3847 8.30171 21.3761 8.37635 21.3863 8.4496C21.3964 8.52286 21.4249 8.59235 21.4692 8.65159C22.0079 9.45869 22.3008 10.4047 22.3125 11.375V12.25Z" fill="white"/>
</svg>
