<svg width="28" height="28" viewBox="0 0 28 28" fill="none" xmlns="http://www.w3.org/2000/svg">
<path d="M23.625 3.0625H4.375C4.0269 3.0625 3.69306 3.20078 3.44692 3.44692C3.20078 3.69306 3.0625 4.0269 3.0625 4.375V23.625C3.0625 23.9731 3.20078 24.3069 3.44692 24.5531C3.69306 24.7992 4.0269 24.9375 4.375 24.9375H23.625C23.9731 24.9375 24.3069 24.7992 24.5531 24.5531C24.7992 24.3069 24.9375 23.9731 24.9375 23.625V4.375C24.9375 4.0269 24.7992 3.69306 24.5531 3.44692C24.3069 3.20078 23.9731 3.0625 23.625 3.0625ZM24.0625 23.625C24.0625 23.741 24.0164 23.8523 23.9344 23.9344C23.8523 24.0164 23.741 24.0625 23.625 24.0625H4.375C4.25897 24.0625 4.14769 24.0164 4.06564 23.9344C3.98359 23.8523 3.9375 23.741 3.9375 23.625V4.375C3.9375 4.25897 3.98359 4.14769 4.06564 4.06564C4.14769 3.98359 4.25897 3.9375 4.375 3.9375H23.625C23.741 3.9375 23.8523 3.98359 23.9344 4.06564C24.0164 4.14769 24.0625 4.25897 24.0625 4.375V23.625ZM10.0625 12.25V19.25C10.0625 19.366 10.0164 19.4773 9.93436 19.5594C9.85231 19.6414 9.74103 19.6875 9.625 19.6875C9.50897 19.6875 9.39769 19.6414 9.31564 19.5594C9.23359 19.4773 9.1875 19.366 9.1875 19.25V12.25C9.1875 12.134 9.23359 12.0227 9.31564 11.9406C9.39769 11.8586 9.50897 11.8125 9.625 11.8125C9.74103 11.8125 9.85231 11.8586 9.93436 11.9406C10.0164 12.0227 10.0625 12.134 10.0625 12.25ZM19.6875 15.3125V19.25C19.6875 19.366 19.6414 19.4773 19.5594 19.5594C19.4773 19.6414 19.366 19.6875 19.25 19.6875C19.134 19.6875 19.0227 19.6414 18.9406 19.5594C18.8586 19.4773 18.8125 19.366 18.8125 19.25V15.3125C18.8125 14.6163 18.5359 13.9486 18.0437 13.4563C17.5514 12.9641 16.8837 12.6875 16.1875 12.6875C15.4913 12.6875 14.8236 12.9641 14.3313 13.4563C13.8391 13.9486 13.5625 14.6163 13.5625 15.3125V19.25C13.5625 19.366 13.5164 19.4773 13.4344 19.5594C13.3523 19.6414 13.241 19.6875 13.125 19.6875C13.009 19.6875 12.8977 19.6414 12.8156 19.5594C12.7336 19.4773 12.6875 19.366 12.6875 19.25V12.25C12.6875 12.134 12.7336 12.0227 12.8156 11.9406C12.8977 11.8586 13.009 11.8125 13.125 11.8125C13.241 11.8125 13.3523 11.8586 13.4344 11.9406C13.5164 12.0227 13.5625 12.134 13.5625 12.25V13.0014C14.0325 12.4685 14.6536 12.0912 15.3432 11.9198C16.0328 11.7484 16.7583 11.7909 17.4231 12.0418C18.0879 12.2926 18.6607 12.7399 19.0651 13.3242C19.4696 13.9084 19.6867 14.6019 19.6875 15.3125ZM10.5 9.1875C10.5 9.36056 10.4487 9.52973 10.3525 9.67362C10.2564 9.81752 10.1197 9.92967 9.95985 9.99589C9.79996 10.0621 9.62403 10.0794 9.4543 10.0457C9.28456 10.0119 9.12865 9.92859 9.00628 9.80622C8.88391 9.68385 8.80057 9.52794 8.76681 9.3582C8.73305 9.18847 8.75038 9.01254 8.81661 8.85265C8.88283 8.69277 8.99498 8.55611 9.13888 8.45996C9.28277 8.36382 9.45194 8.3125 9.625 8.3125C9.85706 8.3125 10.0796 8.40469 10.2437 8.56878C10.4078 8.73288 10.5 8.95544 10.5 9.1875Z" fill="white"/>
</svg>
