<svg width="200" height="200" viewBox="0 0 200 200" fill="none" xmlns="http://www.w3.org/2000/svg">
<path d="M178.125 100C178.125 115.452 173.543 130.556 164.959 143.404C156.374 156.252 144.173 166.265 129.897 172.178C115.622 178.091 99.9134 179.638 84.7586 176.624C69.6038 173.609 55.6833 166.169 44.7573 155.243C33.8313 144.317 26.3907 130.396 23.3762 115.241C20.3617 100.087 21.9088 84.3783 27.8219 70.1029C33.735 55.8274 43.7485 43.6259 56.5961 35.0414C69.4437 26.457 84.5484 21.875 100 21.875C120.713 21.8977 140.571 30.1361 155.218 44.7824C169.864 59.4288 178.102 79.2869 178.125 100ZM171.875 100C171.875 85.7845 167.66 71.8882 159.762 60.0684C151.864 48.2486 140.639 39.0362 127.505 33.5962C114.372 28.1561 99.9203 26.7327 85.9779 29.5061C72.0355 32.2794 59.2286 39.1248 49.1767 49.1767C39.1248 59.2286 32.2794 72.0355 29.5061 85.9779C26.7328 99.9203 28.1561 114.372 33.5962 127.505C39.0362 140.639 48.2486 151.864 60.0684 159.762C71.8882 167.66 85.7845 171.875 100 171.875C119.056 171.854 137.326 164.275 150.8 150.8C164.275 137.326 171.854 119.056 171.875 100Z" fill="white"/>
<path d="M84.9806 129.473H55V70H115.158V93.5124L121.273 99.4399H144.745V129.077H115.158V105.763L109.241 100.033H84.9806V129.473Z" fill="white"/>
</svg>
