<svg width="28" height="28" viewBox="0 0 28 28" fill="none" xmlns="http://www.w3.org/2000/svg">
<path d="M24.7476 3.19562C24.6722 3.1304 24.5803 3.08706 24.482 3.07029C24.3837 3.05352 24.2826 3.06395 24.1898 3.10047L2.02387 11.775C1.7979 11.8627 1.60657 12.0215 1.47871 12.2274C1.35086 12.4333 1.2934 12.6752 1.315 12.9167C1.3366 13.1581 1.43608 13.386 1.59847 13.5659C1.76085 13.7459 1.97733 13.8682 2.21527 13.9144L8.31184 15.1109V21.8747C8.3118 22.1364 8.38998 22.3921 8.53635 22.609C8.68271 22.8259 8.89057 22.9941 9.13324 23.092C9.2894 23.1547 9.45608 23.187 9.62434 23.1872C9.80045 23.1868 9.97469 23.1509 10.1367 23.0818C10.2986 23.0126 10.445 22.9116 10.5671 22.7847L13.6296 19.6128L18.3328 23.7373C18.5712 23.9476 18.8778 24.0642 19.1957 24.0655C19.3346 24.0649 19.4725 24.0431 19.6048 24.0009C19.8213 23.9324 20.0161 23.8082 20.1696 23.6409C20.3232 23.4735 20.4301 23.2688 20.4798 23.0472L24.9226 3.73156C24.9449 3.63476 24.9403 3.53372 24.9095 3.4393C24.8787 3.34488 24.8227 3.26064 24.7476 3.19562ZM2.18684 12.8381C2.18042 12.7852 2.19234 12.7317 2.2206 12.6865C2.24887 12.6413 2.29177 12.6072 2.34215 12.5898L21.4445 5.11406L8.64762 14.2852L2.38481 13.0558C2.33172 13.048 2.28298 13.0221 2.24688 12.9824C2.21078 12.9427 2.18956 12.8917 2.18684 12.8381ZM9.93824 22.1766C9.87776 22.2389 9.80009 22.2818 9.71515 22.2998C9.6302 22.3178 9.54181 22.3102 9.46123 22.2778C9.38065 22.2454 9.31153 22.1898 9.26267 22.118C9.2138 22.0462 9.1874 21.9615 9.18684 21.8747V15.7169L12.969 19.0309L9.93824 22.1766ZM19.6267 22.8481C19.6098 22.9224 19.5737 22.991 19.5222 23.047C19.4706 23.1031 19.4053 23.1448 19.3327 23.1679C19.2601 23.1909 19.1828 23.1947 19.1083 23.1787C19.0338 23.1627 18.9648 23.1276 18.9081 23.0767L9.45262 14.785L23.8573 4.46218L19.6267 22.8481Z" fill="white"/>
</svg>
