<svg width="28" height="28" viewBox="0 0 28 28" fill="none" xmlns="http://www.w3.org/2000/svg">
<path d="M23.1179 23.3892L16.0917 12.3477L23.0774 4.66853C23.1555 4.5815 23.1957 4.46705 23.1894 4.35034C23.183 4.23362 23.1306 4.12422 23.0435 4.04619C22.9565 3.96815 22.842 3.92789 22.7253 3.93425C22.6086 3.94061 22.4992 3.99307 22.4212 4.08009L15.6049 11.5821L10.869 4.13915C10.8294 4.07703 10.7747 4.02591 10.7101 3.99053C10.6455 3.95516 10.573 3.93668 10.4993 3.93681H5.24931C5.17091 3.93687 5.09397 3.95799 5.02654 3.99797C4.9591 4.03795 4.90364 4.09532 4.86597 4.16407C4.8283 4.23282 4.80979 4.31043 4.81238 4.38879C4.81498 4.46714 4.83858 4.54336 4.88072 4.60947L11.907 15.6509L4.92118 23.3301C4.88255 23.3732 4.85278 23.4235 4.83357 23.4781C4.81436 23.5326 4.8061 23.5905 4.80925 23.6483C4.81239 23.7061 4.8269 23.7627 4.85192 23.8149C4.87694 23.8671 4.912 23.9138 4.95509 23.9524C4.99818 23.9911 5.04846 24.0208 5.10306 24.0401C5.15765 24.0593 5.2155 24.0675 5.27329 24.0644C5.33108 24.0612 5.38768 24.0467 5.43987 24.0217C5.49205 23.9967 5.5388 23.9616 5.57743 23.9185L12.3981 16.4165L17.134 23.8595C17.1732 23.921 17.2272 23.9717 17.291 24.007C17.3548 24.0424 17.4264 24.0612 17.4993 24.0618H22.7493C22.8277 24.0618 22.9046 24.0406 22.9721 24.0006C23.0395 23.9607 23.095 23.9033 23.1327 23.8345C23.1703 23.7658 23.1888 23.6882 23.1862 23.6098C23.1836 23.5315 23.16 23.4553 23.1179 23.3892ZM17.7399 23.1868L6.04665 4.81181H10.2587L21.952 23.1868H17.7399Z" fill="white"/>
</svg>
