<svg width="251" height="129" viewBox="0 0 251 129" fill="none" xmlns="http://www.w3.org/2000/svg">
<rect x="90.4813" y="0.936343" width="69.9259" height="69.9259" stroke="white" stroke-opacity="0.3" stroke-width="1.18519"/>
<path d="M130.444 22.7734C127.928 22.7757 125.466 23.5001 123.35 24.8606C121.233 26.2211 119.552 28.1605 118.505 30.4484C117.909 30.3322 117.302 30.2736 116.694 30.2734C114.208 30.2734 111.823 31.2612 110.065 33.0193C108.307 34.7775 107.319 37.162 107.319 39.6484C107.319 42.1348 108.307 44.5194 110.065 46.2776C111.823 48.0357 114.208 49.0234 116.694 49.0234H130.444C133.925 49.0234 137.264 47.6406 139.725 45.1792C142.187 42.7178 143.569 39.3794 143.569 35.8984C143.569 32.4175 142.187 29.0791 139.725 26.6177C137.264 24.1562 133.925 22.7734 130.444 22.7734ZM130.444 47.7734H116.694C115.571 47.7724 114.461 47.5387 113.433 47.087C112.405 46.6353 111.482 45.9754 110.722 45.149C109.961 44.3225 109.381 43.3475 109.016 42.2854C108.652 41.2234 108.512 40.0973 108.604 38.9782C108.697 37.8592 109.02 36.7715 109.555 35.7838C110.089 34.7961 110.822 33.9298 111.707 33.2396C112.593 32.5494 113.612 32.0503 114.7 31.7737C115.789 31.4972 116.923 31.4492 118.03 31.6328C117.558 33.0054 117.318 34.447 117.319 35.8984C117.319 36.0642 117.385 36.2232 117.502 36.3404C117.62 36.4576 117.779 36.5234 117.944 36.5234C118.11 36.5234 118.269 36.4576 118.386 36.3404C118.503 36.2232 118.569 36.0642 118.569 35.8984C118.569 33.5498 119.266 31.2539 120.571 29.301C121.875 27.3482 123.73 25.8262 125.9 24.9274C128.07 24.0286 130.458 23.7934 132.761 24.2516C135.065 24.7098 137.18 25.8408 138.841 27.5015C140.502 29.1623 141.633 31.2782 142.091 33.5817C142.549 35.8853 142.314 38.2729 141.415 40.4428C140.517 42.6127 138.995 44.4673 137.042 45.7721C135.089 47.077 132.793 47.7734 130.444 47.7734ZM135.887 32.9562C135.945 33.0143 135.991 33.0832 136.022 33.1591C136.054 33.235 136.07 33.3163 136.07 33.3984C136.07 33.4806 136.054 33.5619 136.022 33.6378C135.991 33.7136 135.945 33.7826 135.887 33.8406L128.387 41.3406C128.328 41.3987 128.26 41.4448 128.184 41.4763C128.108 41.5077 128.026 41.5239 127.944 41.5239C127.862 41.5239 127.781 41.5077 127.705 41.4763C127.629 41.4448 127.56 41.3987 127.502 41.3406L123.752 37.5906C123.635 37.4733 123.569 37.3143 123.569 37.1484C123.569 36.9826 123.635 36.8235 123.752 36.7062C123.869 36.589 124.028 36.5231 124.194 36.5231C124.36 36.5231 124.519 36.589 124.637 36.7062L127.944 40.0141L135.002 32.9562C135.06 32.8981 135.129 32.852 135.205 32.8206C135.281 32.7891 135.362 32.7729 135.444 32.7729C135.526 32.7729 135.608 32.7891 135.684 32.8206C135.76 32.852 135.828 32.8981 135.887 32.9562Z" fill="white"/>
<path d="M161 37.6719H249.889V128.339" stroke="white" stroke-opacity="0.3" stroke-width="0.888889"/>
<path d="M89.8887 37.6719H0.999789V128.339" stroke="white" stroke-opacity="0.3" stroke-width="0.888889"/>
<line x1="0.555773" y1="104.344" x2="0.555773" y2="128.344" stroke="white" stroke-width="0.888889"/>
<line y1="-0.444444" x2="24" y2="-0.444444" transform="matrix(0 1 1 0 250.777 104.344)" stroke="white" stroke-width="0.888889"/>
<line x1="90.3331" y1="28.7891" x2="90.3331" y2="46.5668" stroke="white" stroke-width="0.888889"/>
<line x1="73" y1="37.2274" x2="90.7778" y2="37.2274" stroke="white" stroke-width="0.888889"/>
<line y1="-0.444444" x2="17.7778" y2="-0.444444" transform="matrix(0 1 1 0 161 28.7891)" stroke="white" stroke-width="0.888889"/>
<line y1="-0.444444" x2="17.7778" y2="-0.444444" transform="matrix(-1 0 0 1 177.889 37.6719)" stroke="white" stroke-width="0.888889"/>
</svg>
