<svg width="251" height="128" viewBox="0 0 251 128" fill="none" xmlns="http://www.w3.org/2000/svg">
<rect x="90.4813" y="1.04572" width="69.9259" height="69.9259" stroke="white" stroke-opacity="0.3" stroke-width="1.18519"/>
<path d="M133.569 30.5563V29.1328C133.569 25.6281 127.804 22.8828 120.444 22.8828C113.085 22.8828 107.319 25.6281 107.319 29.1328V35.3828C107.319 38.3734 111.516 40.8078 117.319 41.4594V42.8828C117.319 46.3875 123.085 49.1328 130.444 49.1328C137.804 49.1328 143.569 46.3875 143.569 42.8828V36.6328C143.569 33.6828 139.487 31.2219 133.569 30.5563ZM142.319 36.6328C142.319 39.0469 137.547 41.6328 130.444 41.6328C128.978 41.635 127.515 41.5127 126.069 41.2672V41.05C130.54 40.0641 133.569 37.925 133.569 35.3828V31.8156C138.604 32.4141 142.319 34.4344 142.319 36.6328ZM122.349 40.3187C121.735 40.3615 121.101 40.3828 120.444 40.3828C119.59 40.3828 118.769 40.3438 117.987 40.275H117.944C117.294 40.2156 116.669 40.1344 116.069 40.0312V35.0391C117.516 35.2708 118.979 35.3857 120.444 35.3828C121.91 35.3857 123.373 35.2708 124.819 35.0391V40.0266C124.016 40.1636 123.207 40.2601 122.394 40.3156L122.349 40.3187ZM132.319 31.8391V35.3828C132.319 37.0828 129.951 38.8672 126.069 39.775V34.8C128.824 34.1922 131.03 33.1469 132.319 31.8391ZM120.444 24.1328C127.547 24.1328 132.319 26.7188 132.319 29.1328C132.319 31.5469 127.547 34.1328 120.444 34.1328C113.341 34.1328 108.569 31.5469 108.569 29.1328C108.569 26.7188 113.341 24.1328 120.444 24.1328ZM108.569 35.3828V31.8391C109.858 33.1469 112.065 34.1922 114.819 34.8078V39.7828C110.938 38.8672 108.569 37.0828 108.569 35.3828ZM118.569 42.8828V41.5703C119.18 41.6109 119.807 41.6328 120.444 41.6328C121.082 41.6328 121.704 41.6109 122.319 41.5719C123.136 41.8688 123.971 42.1105 124.819 42.2953V47.275C120.938 46.3672 118.569 44.5828 118.569 42.8828ZM126.069 47.5266V42.5344C127.516 42.7679 128.979 42.8844 130.444 42.8828C131.91 42.8857 133.373 42.7708 134.819 42.5391V47.5266C131.922 48.0016 128.967 48.0016 126.069 47.5266ZM142.319 42.8828C142.319 44.5828 139.951 46.3672 136.069 47.275V42.3C138.824 41.6922 141.03 40.6469 142.319 39.3313V42.8828Z" fill="white"/>
<path d="M161 36.8984H249.889V127.565" stroke="white" stroke-opacity="0.3" stroke-width="0.888889"/>
<path d="M89.8887 36.8984H0.999789V127.565" stroke="white" stroke-opacity="0.3" stroke-width="0.888889"/>
<line x1="0.555773" y1="103.562" x2="0.555773" y2="127.562" stroke="white" stroke-width="0.888889"/>
<line y1="-0.444444" x2="24" y2="-0.444444" transform="matrix(0 1 1 0 250.777 103.562)" stroke="white" stroke-width="0.888889"/>
<line x1="90.3331" y1="28.0078" x2="90.3331" y2="45.7856" stroke="white" stroke-width="0.888889"/>
<line x1="73" y1="36.454" x2="90.7778" y2="36.454" stroke="white" stroke-width="0.888889"/>
<line y1="-0.444444" x2="17.7778" y2="-0.444444" transform="matrix(0 1 1 0 161 28.0078)" stroke="white" stroke-width="0.888889"/>
<line y1="-0.444444" x2="17.7778" y2="-0.444444" transform="matrix(-1 0 0 1 177.889 36.8984)" stroke="white" stroke-width="0.888889"/>
</svg>
