<svg width="251" height="128" viewBox="0 0 251 128" fill="none" xmlns="http://www.w3.org/2000/svg">
<rect x="90.4813" y="0.936343" width="69.9259" height="69.9259" stroke="white" stroke-opacity="0.3" stroke-width="1.18519"/>
<path d="M142.29 21.555C141.884 21.1487 141.402 20.8264 140.871 20.6065C140.34 20.3866 139.771 20.2734 139.196 20.2734C138.622 20.2734 138.053 20.3866 137.522 20.6065C136.991 20.8264 136.509 21.1487 136.103 21.555C135.696 21.9613 135.374 22.4436 135.154 22.9744C134.934 23.5052 134.821 24.0742 134.821 24.6488C134.821 25.2233 134.934 25.7923 135.154 26.3231C135.374 26.8539 135.696 27.3362 136.103 27.7425C136.255 27.8962 136.419 28.0378 136.593 28.1659L131.948 36.7925C131.265 36.5438 130.53 36.4689 129.811 36.5744C129.091 36.68 128.409 36.9627 127.826 37.3972L123.948 33.5191C124.61 32.6333 124.913 31.5295 124.794 30.4298C124.675 29.3302 124.145 28.3162 123.309 27.5921C122.473 26.8679 121.393 26.4873 120.288 26.5268C119.183 26.5663 118.133 27.023 117.351 27.805C116.906 28.2499 116.562 28.7855 116.343 29.3754C116.124 29.9652 116.035 30.5954 116.081 31.2229C116.128 31.8505 116.309 32.4605 116.613 33.0116C116.917 33.5626 117.336 34.0416 117.842 34.4159L113.195 43.0441C112.412 42.7577 111.563 42.701 110.749 42.8806C109.935 43.0603 109.189 43.4688 108.6 44.0581C107.988 44.67 107.571 45.4496 107.402 46.2982C107.234 47.1469 107.32 48.0265 107.651 48.8259C107.983 49.6253 108.543 50.3086 109.263 50.7893C109.982 51.27 110.828 51.5266 111.693 51.5266C112.559 51.5266 113.404 51.27 114.124 50.7893C114.843 50.3086 115.404 49.6253 115.735 48.8259C116.066 48.0265 116.153 47.1469 115.984 46.2982C115.816 45.4496 115.399 44.67 114.787 44.0581C114.634 43.9053 114.47 43.7638 114.296 43.6347L118.942 35.0081C119.625 35.2579 120.36 35.3335 121.079 35.2279C121.799 35.1223 122.481 34.8389 123.064 34.4034L126.942 38.2816C126.423 38.9753 126.122 39.8074 126.077 40.6723C126.032 41.5373 126.244 42.3962 126.688 43.1402C127.131 43.8843 127.785 44.48 128.568 44.8519C129.35 45.2238 130.225 45.3552 131.082 45.2293C131.939 45.1035 132.739 44.7261 133.381 44.1451C134.024 43.564 134.479 42.8053 134.69 41.9652C134.9 41.1251 134.857 40.2414 134.565 39.426C134.273 38.6105 133.746 37.9001 133.05 37.3847L137.695 28.7566C138.63 29.098 139.654 29.11 140.598 28.7906C141.541 28.4712 142.347 27.8396 142.883 27.0001C143.419 26.1605 143.652 25.1634 143.544 24.1733C143.436 23.1833 142.994 22.2596 142.29 21.555ZM113.903 49.3675C113.466 49.8046 112.909 50.1024 112.303 50.223C111.696 50.3437 111.068 50.2818 110.497 50.0453C109.926 49.8088 109.438 49.4083 109.094 48.8944C108.751 48.3805 108.568 47.7762 108.568 47.1581C108.568 46.54 108.751 45.9358 109.094 45.4219C109.438 44.908 109.926 44.5074 110.497 44.2709C111.068 44.0344 111.696 43.9726 112.303 44.0932C112.909 44.2139 113.466 44.5116 113.903 44.9488C114.487 45.5345 114.815 46.3279 114.815 47.155C114.815 47.9821 114.487 48.7755 113.903 49.3613V49.3675ZM118.234 33.1175C117.797 32.6804 117.5 32.1236 117.379 31.5174C117.259 30.9113 117.321 30.283 117.557 29.7121C117.794 29.1411 118.194 28.6531 118.708 28.3098C119.222 27.9665 119.826 27.7832 120.444 27.7832C121.062 27.7832 121.666 27.9665 122.18 28.3098C122.694 28.6531 123.095 29.1411 123.331 29.7121C123.568 30.283 123.63 30.9113 123.509 31.5174C123.389 32.1236 123.091 32.6804 122.654 33.1175C122.364 33.4073 122.019 33.637 121.639 33.7935C121.26 33.9499 120.853 34.0301 120.443 34.0293C120.032 34.0286 119.626 33.947 119.247 33.7892C118.868 33.6314 118.524 33.4005 118.234 33.1097V33.1175ZM132.656 43.1175C132.219 43.5544 131.662 43.8519 131.056 43.9724C130.45 44.0929 129.821 44.0309 129.25 43.7943C128.679 43.5578 128.191 43.1572 127.848 42.6434C127.505 42.1295 127.322 41.5254 127.322 40.9073C127.322 40.2893 127.505 39.6852 127.848 39.1713C128.191 38.6574 128.679 38.2569 129.25 38.0203C129.821 37.7838 130.45 37.7218 131.056 37.8423C131.662 37.9628 132.219 38.2603 132.656 38.6972C133.24 39.283 133.568 40.0767 133.568 40.9042C133.568 41.7317 133.24 42.5254 132.656 43.1113V43.1175ZM141.406 26.8675C140.969 27.3044 140.412 27.6019 139.806 27.7224C139.2 27.8429 138.571 27.7809 138 27.5443C137.429 27.3078 136.941 26.9072 136.598 26.3934C136.255 25.8795 136.072 25.2754 136.072 24.6573C136.072 24.0393 136.255 23.4352 136.598 22.9213C136.941 22.4074 137.429 22.0069 138 21.7703C138.571 21.5338 139.2 21.4718 139.806 21.5923C140.412 21.7128 140.969 22.0103 141.406 22.4472C141.99 23.033 142.318 23.8263 142.318 24.6534C142.318 25.4805 141.99 26.2739 141.406 26.8597V26.8675Z" fill="white"/>
<path d="M161 36.7812H249.889V127.448" stroke="white" stroke-opacity="0.3" stroke-width="0.888889"/>
<path d="M89.8887 36.7812H0.999789V127.448" stroke="white" stroke-opacity="0.3" stroke-width="0.888889"/>
<line x1="0.555773" y1="103.453" x2="0.555773" y2="127.453" stroke="white" stroke-width="0.888889"/>
<line y1="-0.444444" x2="24" y2="-0.444444" transform="matrix(0 1 1 0 250.777 103.453)" stroke="white" stroke-width="0.888889"/>
<line x1="90.3331" y1="27.8984" x2="90.3331" y2="45.6762" stroke="white" stroke-width="0.888889"/>
<line x1="73" y1="36.3368" x2="90.7778" y2="36.3368" stroke="white" stroke-width="0.888889"/>
<line y1="-0.444444" x2="17.7778" y2="-0.444444" transform="matrix(0 1 1 0 161 27.8984)" stroke="white" stroke-width="0.888889"/>
<line y1="-0.444444" x2="17.7778" y2="-0.444444" transform="matrix(-1 0 0 1 177.889 36.7812)" stroke="white" stroke-width="0.888889"/>
</svg>
