<svg width="251" height="128" viewBox="0 0 251 128" fill="none" xmlns="http://www.w3.org/2000/svg">
<rect x="90.5926" y="1.26447" width="69.9259" height="69.9259" stroke="white" stroke-opacity="0.3" stroke-width="1.18519"/>
<path d="M136.212 36.9781L127.874 33.9078L124.804 25.5703C124.672 25.213 124.434 24.9047 124.121 24.687C123.808 24.4693 123.437 24.3525 123.056 24.3525C122.675 24.3525 122.303 24.4693 121.99 24.687C121.678 24.9047 121.439 25.213 121.307 25.5703L118.237 33.9078L109.899 36.9781C109.542 37.1102 109.234 37.3486 109.016 37.6612C108.798 37.9738 108.682 38.3456 108.682 38.7266C108.682 39.1075 108.798 39.4793 109.016 39.7919C109.234 40.1045 109.542 40.3429 109.899 40.475L118.237 43.5453L121.307 51.8828C121.439 52.2401 121.678 52.5484 121.99 52.7661C122.303 52.9839 122.675 53.1006 123.056 53.1006C123.437 53.1006 123.808 52.9839 124.121 52.7661C124.434 52.5484 124.672 52.2401 124.804 51.8828L127.874 43.5453L136.212 40.475C136.569 40.3429 136.878 40.1045 137.095 39.7919C137.313 39.4793 137.43 39.1075 137.43 38.7266C137.43 38.3456 137.313 37.9738 137.095 37.6612C136.878 37.3486 136.569 37.1102 136.212 36.9781ZM135.779 39.3016L127.173 42.4766C127.088 42.5078 127.011 42.5571 126.947 42.6211C126.883 42.685 126.834 42.762 126.803 42.8469L123.631 51.4531C123.587 51.5709 123.509 51.6725 123.406 51.7443C123.303 51.8161 123.181 51.8546 123.056 51.8546C122.93 51.8546 122.808 51.8161 122.705 51.7443C122.602 51.6725 122.524 51.5709 122.481 51.4531L119.306 42.8438C119.274 42.7598 119.225 42.6836 119.162 42.6202C119.099 42.5569 119.022 42.5079 118.938 42.4766L110.332 39.3047C110.214 39.2615 110.113 39.1832 110.041 39.0803C109.969 38.9775 109.931 38.8551 109.931 38.7297C109.931 38.6043 109.969 38.4819 110.041 38.379C110.113 38.2762 110.214 38.1979 110.332 38.1547L118.938 34.9766C119.022 34.9453 119.099 34.8963 119.162 34.8329C119.225 34.7696 119.274 34.6933 119.306 34.6094L122.478 26.0031C122.521 25.8854 122.599 25.7837 122.702 25.7119C122.805 25.6402 122.927 25.6016 123.053 25.6016C123.178 25.6016 123.3 25.6402 123.403 25.7119C123.506 25.7837 123.584 25.8854 123.628 26.0031L126.806 34.6094C126.837 34.6942 126.886 34.7713 126.95 34.8352C127.014 34.8991 127.091 34.9484 127.176 34.9797L135.782 38.1516C135.9 38.1948 136.002 38.2731 136.073 38.3759C136.145 38.4788 136.184 38.6011 136.184 38.7266C136.184 38.852 136.145 38.9744 136.073 39.0772C136.002 39.18 135.9 39.2584 135.782 39.3016H135.779ZM128.681 22.4766C128.681 22.3108 128.747 22.1518 128.864 22.0346C128.981 21.9174 129.14 21.8516 129.306 21.8516H132.431V18.7266C132.431 18.5608 132.497 18.4018 132.614 18.2846C132.731 18.1674 132.89 18.1016 133.056 18.1016C133.221 18.1016 133.38 18.1674 133.498 18.2846C133.615 18.4018 133.681 18.5608 133.681 18.7266V21.8516H136.806C136.971 21.8516 137.13 21.9174 137.248 22.0346C137.365 22.1518 137.431 22.3108 137.431 22.4766C137.431 22.6423 137.365 22.8013 137.248 22.9185C137.13 23.0357 136.971 23.1016 136.806 23.1016H133.681V26.2266C133.681 26.3923 133.615 26.5513 133.498 26.6685C133.38 26.7857 133.221 26.8516 133.056 26.8516C132.89 26.8516 132.731 26.7857 132.614 26.6685C132.497 26.5513 132.431 26.3923 132.431 26.2266V23.1016H129.306C129.14 23.1016 128.981 23.0357 128.864 22.9185C128.747 22.8013 128.681 22.6423 128.681 22.4766ZM143.681 29.9766C143.681 30.1423 143.615 30.3013 143.498 30.4185C143.38 30.5357 143.221 30.6016 143.056 30.6016H141.181V32.4766C141.181 32.6423 141.115 32.8013 140.998 32.9185C140.88 33.0357 140.721 33.1016 140.556 33.1016C140.39 33.1016 140.231 33.0357 140.114 32.9185C139.997 32.8013 139.931 32.6423 139.931 32.4766V30.6016H138.056C137.89 30.6016 137.731 30.5357 137.614 30.4185C137.497 30.3013 137.431 30.1423 137.431 29.9766C137.431 29.8108 137.497 29.6518 137.614 29.5346C137.731 29.4174 137.89 29.3516 138.056 29.3516H139.931V27.4766C139.931 27.3108 139.997 27.1518 140.114 27.0346C140.231 26.9174 140.39 26.8516 140.556 26.8516C140.721 26.8516 140.88 26.9174 140.998 27.0346C141.115 27.1518 141.181 27.3108 141.181 27.4766V29.3516H143.056C143.221 29.3516 143.38 29.4174 143.498 29.5346C143.615 29.6518 143.681 29.8108 143.681 29.9766Z" fill="white"/>
<path d="M161.111 37.0078H250V127.674" stroke="white" stroke-opacity="0.3" stroke-width="0.888889"/>
<path d="M90 37.0078H1.11112V127.674" stroke="white" stroke-opacity="0.3" stroke-width="0.888889"/>
<line x1="0.667101" y1="103.672" x2="0.667101" y2="127.672" stroke="white" stroke-width="0.888889"/>
<line y1="-0.444444" x2="24" y2="-0.444444" transform="matrix(0 1 1 0 250.889 103.672)" stroke="white" stroke-width="0.888889"/>
<line x1="90.4444" y1="28.1172" x2="90.4444" y2="45.895" stroke="white" stroke-width="0.888889"/>
<line x1="73.1113" y1="36.5634" x2="90.8891" y2="36.5634" stroke="white" stroke-width="0.888889"/>
<line y1="-0.444444" x2="17.7778" y2="-0.444444" transform="matrix(0 1 1 0 161.111 28.1172)" stroke="white" stroke-width="0.888889"/>
<line y1="-0.444444" x2="17.7778" y2="-0.444444" transform="matrix(-1 0 0 1 178 37.0078)" stroke="white" stroke-width="0.888889"/>
</svg>
