<svg width="251" height="128" viewBox="0 0 251 128" fill="none" xmlns="http://www.w3.org/2000/svg">
<rect x="90.5926" y="1.38166" width="69.9259" height="69.9259" stroke="white" stroke-opacity="0.3" stroke-width="1.18519"/>
<path d="M141.181 23.8438V30.0938C141.181 30.2595 141.115 30.4185 140.998 30.5357C140.88 30.6529 140.721 30.7188 140.556 30.7188C140.39 30.7188 140.231 30.6529 140.114 30.5357C139.997 30.4185 139.931 30.2595 139.931 30.0938V24.4688H134.306C134.14 24.4688 133.981 24.4029 133.864 24.2857C133.747 24.1685 133.681 24.0095 133.681 23.8438C133.681 23.678 133.747 23.519 133.864 23.4018C133.981 23.2846 134.14 23.2188 134.306 23.2188H140.556C140.721 23.2188 140.88 23.2846 140.998 23.4018C141.115 23.519 141.181 23.678 141.181 23.8438ZM116.806 48.2188H111.181V42.5938C111.181 42.428 111.115 42.269 110.998 42.1518C110.88 42.0346 110.721 41.9688 110.556 41.9688C110.39 41.9688 110.231 42.0346 110.114 42.1518C109.997 42.269 109.931 42.428 109.931 42.5938V48.8438C109.931 49.0095 109.997 49.1685 110.114 49.2857C110.231 49.4029 110.39 49.4688 110.556 49.4688H116.806C116.971 49.4688 117.13 49.4029 117.248 49.2857C117.365 49.1685 117.431 49.0095 117.431 48.8438C117.431 48.678 117.365 48.519 117.248 48.4018C117.13 48.2846 116.971 48.2188 116.806 48.2188ZM140.556 41.9688C140.39 41.9688 140.231 42.0346 140.114 42.1518C139.997 42.269 139.931 42.428 139.931 42.5938V48.2188H134.306C134.14 48.2188 133.981 48.2846 133.864 48.4018C133.747 48.519 133.681 48.678 133.681 48.8438C133.681 49.0095 133.747 49.1685 133.864 49.2857C133.981 49.4029 134.14 49.4688 134.306 49.4688H140.556C140.721 49.4688 140.88 49.4029 140.998 49.2857C141.115 49.1685 141.181 49.0095 141.181 48.8438V42.5938C141.181 42.428 141.115 42.269 140.998 42.1518C140.88 42.0346 140.721 41.9688 140.556 41.9688ZM110.556 30.7188C110.721 30.7188 110.88 30.6529 110.998 30.5357C111.115 30.4185 111.181 30.2595 111.181 30.0938V24.4688H116.806C116.971 24.4688 117.13 24.4029 117.248 24.2857C117.365 24.1685 117.431 24.0095 117.431 23.8438C117.431 23.678 117.365 23.519 117.248 23.4018C117.13 23.2846 116.971 23.2188 116.806 23.2188H110.556C110.39 23.2188 110.231 23.2846 110.114 23.4018C109.997 23.519 109.931 23.678 109.931 23.8438V30.0938C109.931 30.2595 109.997 30.4185 110.114 30.5357C110.231 30.6529 110.39 30.7188 110.556 30.7188ZM134.618 41.8859L125.868 46.8859C125.773 46.9408 125.665 46.9697 125.556 46.9697C125.446 46.9697 125.338 46.9408 125.243 46.8859L116.493 41.8859C116.398 41.831 116.319 41.752 116.264 41.6568C116.209 41.5616 116.181 41.4536 116.181 41.3438V31.3438C116.181 31.2339 116.209 31.1259 116.264 31.0307C116.319 30.9355 116.398 30.8565 116.493 30.8016L125.243 25.8016C125.338 25.7467 125.446 25.7178 125.556 25.7178C125.665 25.7178 125.773 25.7467 125.868 25.8016L134.618 30.8016C134.713 30.8565 134.792 30.9355 134.847 31.0307C134.902 31.1259 134.931 31.2339 134.931 31.3438V41.3438C134.931 41.4536 134.902 41.5616 134.847 41.6568C134.792 41.752 134.713 41.831 134.618 41.8859ZM118.065 31.3438L125.556 35.6234L133.046 31.3438L125.556 27.0641L118.065 31.3438ZM117.431 40.9812L124.931 45.2672V36.7063L117.431 32.4203V40.9812ZM133.681 40.9812V32.4203L126.181 36.7063V45.2672L133.681 40.9812Z" fill="white"/>
<path d="M161.111 37.1172H250V127.784" stroke="white" stroke-opacity="0.3" stroke-width="0.888889"/>
<path d="M90 37.1172H1.11112V127.784" stroke="white" stroke-opacity="0.3" stroke-width="0.888889"/>
<line x1="0.667101" y1="103.789" x2="0.667101" y2="127.789" stroke="white" stroke-width="0.888889"/>
<line y1="-0.444444" x2="24" y2="-0.444444" transform="matrix(0 1 1 0 250.889 103.789)" stroke="white" stroke-width="0.888889"/>
<line x1="90.4444" y1="28.2344" x2="90.4444" y2="46.0122" stroke="white" stroke-width="0.888889"/>
<line x1="73.1113" y1="36.6727" x2="90.8891" y2="36.6727" stroke="white" stroke-width="0.888889"/>
<line y1="-0.444444" x2="17.7778" y2="-0.444444" transform="matrix(0 1 1 0 161.111 28.2344)" stroke="white" stroke-width="0.888889"/>
<line y1="-0.444444" x2="17.7778" y2="-0.444444" transform="matrix(-1 0 0 1 178 37.1172)" stroke="white" stroke-width="0.888889"/>
</svg>
