<svg width="29" height="30" viewBox="0 0 29 30" fill="none" xmlns="http://www.w3.org/2000/svg">
<path d="M25.6666 23.8941C25.6666 24.012 25.6197 24.125 25.5364 24.2084C25.453 24.2917 25.34 24.3385 25.2221 24.3385H3.88878C3.77091 24.3385 3.65786 24.2917 3.57451 24.2084C3.49116 24.125 3.44434 24.012 3.44434 23.8941V6.11632C3.44434 5.99845 3.49116 5.8854 3.57451 5.80205C3.65786 5.7187 3.77091 5.67188 3.88878 5.67188C4.00665 5.67188 4.1197 5.7187 4.20305 5.80205C4.2864 5.8854 4.33322 5.99845 4.33322 6.11632V19.2652L10.6854 12.913C10.7267 12.8717 10.7757 12.8389 10.8297 12.8165C10.8837 12.7941 10.9415 12.7826 10.9999 12.7826C11.0583 12.7826 11.1161 12.7941 11.1701 12.8165C11.224 12.8389 11.2731 12.8717 11.3143 12.913L14.5554 16.1541L21.4821 9.22743H18.111C17.9931 9.22743 17.8801 9.18061 17.7967 9.09726C17.7134 9.01391 17.6666 8.90086 17.6666 8.78299C17.6666 8.66511 17.7134 8.55207 17.7967 8.46872C17.8801 8.38537 17.9931 8.33854 18.111 8.33854H22.5554C22.6733 8.33854 22.7864 8.38537 22.8697 8.46872C22.9531 8.55207 22.9999 8.66511 22.9999 8.78299V13.2274C22.9999 13.3453 22.9531 13.4584 22.8697 13.5417C22.7864 13.625 22.6733 13.6719 22.5554 13.6719C22.4376 13.6719 22.3245 13.625 22.2412 13.5417C22.1578 13.4584 22.111 13.3453 22.111 13.2274V9.85632L14.8699 17.0974C14.8286 17.1388 14.7796 17.1715 14.7256 17.1939C14.6717 17.2163 14.6139 17.2278 14.5554 17.2278C14.497 17.2278 14.4392 17.2163 14.3853 17.1939C14.3313 17.1715 14.2823 17.1388 14.241 17.0974L10.9999 13.8563L4.33322 20.523V23.4497H25.2221C25.34 23.4497 25.453 23.4965 25.5364 23.5798C25.6197 23.6632 25.6666 23.7762 25.6666 23.8941Z" fill="white"/>
</svg>
