<svg width="30" height="30" viewBox="0 0 30 30" fill="none" xmlns="http://www.w3.org/2000/svg">
<path d="M19.1963 9.26165C18.4786 7.43018 17.1439 5.90676 15.4228 4.95431C13.7017 4.00187 11.702 3.68018 9.769 4.04476C7.83599 4.40934 6.0909 5.43731 4.83495 6.95126C3.57899 8.4652 2.89097 10.3701 2.88965 12.3372V19.4483C2.88965 19.8019 3.03012 20.1411 3.28017 20.3911C3.53022 20.6412 3.86936 20.7817 4.22298 20.7817H10.593C11.2182 22.354 12.3007 23.7028 13.7005 24.6535C15.1003 25.6043 16.7531 26.1134 18.4452 26.115H25.5563C25.9099 26.115 26.2491 25.9745 26.4991 25.7245C26.7492 25.4744 26.8896 25.1353 26.8896 24.7817V17.6705C26.8891 15.5613 26.0993 13.5287 24.6755 11.9725C23.2518 10.4163 21.2972 9.44926 19.1963 9.26165ZM3.77854 19.4483V12.3372C3.77854 10.8429 4.22166 9.38207 5.05188 8.13956C5.88209 6.89706 7.06211 5.92865 8.44271 5.35678C9.8233 4.78492 11.3425 4.6353 12.8081 4.92683C14.2737 5.21836 15.62 5.93796 16.6767 6.99462C17.7333 8.05129 18.4529 9.39756 18.7445 10.8632C19.036 12.3288 18.8864 13.848 18.3145 15.2286C17.7427 16.6092 16.7742 17.7892 15.5317 18.6194C14.2892 19.4496 12.8284 19.8928 11.3341 19.8928H4.22298C4.10511 19.8928 3.99206 19.8459 3.90871 19.7626C3.82536 19.6792 3.77854 19.5662 3.77854 19.4483ZM26.0008 24.7817C26.0008 24.8995 25.9539 25.0126 25.8706 25.0959C25.7872 25.1793 25.6742 25.2261 25.5563 25.2261H18.4452C16.9915 25.2246 15.5689 24.8047 14.3474 24.0166C13.1258 23.2285 12.1569 22.1055 11.5563 20.7817C12.8294 20.7482 14.0784 20.4273 15.2099 19.8429C16.3415 19.2585 17.3261 18.4257 18.0903 17.4069C18.8544 16.3881 19.3782 15.2096 19.6224 13.9598C19.8667 12.7099 19.8251 11.421 19.5008 10.1894C21.3038 10.4438 22.9544 11.3408 24.1487 12.7154C25.343 14.09 26.0007 15.8496 26.0008 17.6705V24.7817Z" fill="white"/>
</svg>
