<svg width="30" height="29" viewBox="0 0 30 29" fill="none" xmlns="http://www.w3.org/2000/svg">
<path d="M25.5563 8.67274H23.3341V7.33941C23.3341 6.75004 23.1 6.18481 22.6832 5.76806C22.2665 5.35131 21.7012 5.11719 21.1119 5.11719H5.11187C4.5225 5.11719 3.95727 5.35131 3.54052 5.76806C3.12377 6.18481 2.88965 6.75004 2.88965 7.33941V18.0061C2.88965 18.5954 3.12377 19.1607 3.54052 19.5774C3.95727 19.9942 4.5225 20.2283 5.11187 20.2283H18.0008V21.5616C18.0008 22.151 18.2349 22.7162 18.6516 23.133C19.0684 23.5497 19.6336 23.7839 20.223 23.7839H25.5563C26.1457 23.7839 26.7109 23.5497 27.1277 23.133C27.5444 22.7162 27.7785 22.151 27.7785 21.5616V10.895C27.7785 10.3056 27.5444 9.74036 27.1277 9.32362C26.7109 8.90687 26.1457 8.67274 25.5563 8.67274ZM5.11187 19.3394C4.75825 19.3394 4.41911 19.1989 4.16906 18.9489C3.91901 18.6988 3.77854 18.3597 3.77854 18.0061V7.33941C3.77854 6.98579 3.91901 6.64665 4.16906 6.3966C4.41911 6.14655 4.75825 6.00608 5.11187 6.00608H21.1119C21.4655 6.00608 21.8046 6.14655 22.0547 6.3966C22.3047 6.64665 22.4452 6.98579 22.4452 7.33941V8.67274H20.223C19.6336 8.67274 19.0684 8.90687 18.6516 9.32362C18.2349 9.74036 18.0008 10.3056 18.0008 10.895V19.3394H5.11187ZM26.8896 21.5616C26.8896 21.9153 26.7492 22.2544 26.4991 22.5044C26.2491 22.7545 25.9099 22.895 25.5563 22.895H20.223C19.8694 22.895 19.5302 22.7545 19.2802 22.5044C19.0301 22.2544 18.8896 21.9153 18.8896 21.5616V10.895C18.8896 10.5413 19.0301 10.2022 19.2802 9.95216C19.5302 9.70211 19.8694 9.56163 20.223 9.56163H25.5563C25.9099 9.56163 26.2491 9.70211 26.4991 9.95216C26.7492 10.2022 26.8896 10.5413 26.8896 10.895V21.5616ZM15.3341 23.3394C15.3341 23.4573 15.2873 23.5703 15.2039 23.6537C15.1206 23.737 15.0075 23.7839 14.8896 23.7839H10.4452C10.3273 23.7839 10.2143 23.737 10.1309 23.6537C10.0476 23.5703 10.0008 23.4573 10.0008 23.3394C10.0008 23.2215 10.0476 23.1085 10.1309 23.0251C10.2143 22.9418 10.3273 22.895 10.4452 22.895H14.8896C15.0075 22.895 15.1206 22.9418 15.2039 23.0251C15.2873 23.1085 15.3341 23.2215 15.3341 23.3394ZM24.223 12.6727C24.223 12.7906 24.1762 12.9037 24.0928 12.987C24.0095 13.0704 23.8964 13.1172 23.7785 13.1172H22.0008C21.8829 13.1172 21.7698 13.0704 21.6865 12.987C21.6031 12.9037 21.5563 12.7906 21.5563 12.6727C21.5563 12.5549 21.6031 12.4418 21.6865 12.3585C21.7698 12.2751 21.8829 12.2283 22.0008 12.2283H23.7785C23.8964 12.2283 24.0095 12.2751 24.0928 12.3585C24.1762 12.4418 24.223 12.5549 24.223 12.6727Z" fill="white"/>
</svg>
