<svg width="29" height="29" viewBox="0 0 29 29" fill="none" xmlns="http://www.w3.org/2000/svg">
<path d="M14.4642 11.9841C14.5055 12.0254 14.5545 12.0582 14.6085 12.0805C14.6624 12.1029 14.7203 12.1144 14.7787 12.1144C14.8371 12.1144 14.8949 12.1029 14.9489 12.0805C15.0028 12.0582 15.0518 12.0254 15.0931 11.9841L19.5376 7.53962C19.5789 7.49834 19.6117 7.44933 19.634 7.39537C19.6564 7.34142 19.6679 7.28358 19.6679 7.22518C19.6679 7.16677 19.6564 7.10894 19.634 7.05498C19.6117 7.00103 19.5789 6.95201 19.5376 6.91073L15.0931 2.46629C15.0518 2.42496 15.0028 2.39218 14.9489 2.36982C14.8949 2.34745 14.8371 2.33594 14.7787 2.33594C14.7203 2.33594 14.6624 2.34745 14.6085 2.36982C14.5545 2.39218 14.5055 2.42496 14.4642 2.46629L10.0198 6.91073C9.97846 6.95201 9.94568 7.00103 9.92331 7.05498C9.90094 7.10894 9.88943 7.16677 9.88943 7.22518C9.88943 7.28358 9.90094 7.34142 9.92331 7.39537C9.94568 7.44933 9.97846 7.49834 10.0198 7.53962L14.4642 11.9841ZM14.7787 3.40962L18.5942 7.22518L14.7787 11.0407L10.9631 7.22518L14.7787 3.40962ZM15.0931 16.6885C15.0518 16.6472 15.0028 16.6144 14.9489 16.592C14.8949 16.5697 14.8371 16.5582 14.7787 16.5582C14.7203 16.5582 14.6624 16.5697 14.6085 16.592C14.5545 16.6144 14.5055 16.6472 14.4642 16.6885L10.0198 21.133C9.97846 21.1742 9.94568 21.2232 9.92331 21.2772C9.90094 21.3312 9.88943 21.389 9.88943 21.4474C9.88943 21.5058 9.90094 21.5636 9.92331 21.6176C9.94568 21.6715 9.97846 21.7206 10.0198 21.7618L14.4642 26.2063C14.5055 26.2476 14.5545 26.2804 14.6085 26.3028C14.6624 26.3251 14.7203 26.3366 14.7787 26.3366C14.8371 26.3366 14.8949 26.3251 14.9489 26.3028C15.0028 26.2804 15.0518 26.2476 15.0931 26.2063L19.5376 21.7618C19.5789 21.7206 19.6117 21.6715 19.634 21.6176C19.6564 21.5636 19.6679 21.5058 19.6679 21.4474C19.6679 21.389 19.6564 21.3312 19.634 21.2772C19.6117 21.2232 19.5789 21.1742 19.5376 21.133L15.0931 16.6885ZM14.7787 25.263L10.9631 21.4474L14.7787 17.6318L18.5942 21.4474L14.7787 25.263ZM26.6487 14.0218L22.2042 9.5774C22.1629 9.53607 22.1139 9.50329 22.06 9.48093C22.006 9.45856 21.9482 9.44705 21.8898 9.44705C21.8314 9.44705 21.7735 9.45856 21.7196 9.48093C21.6656 9.50329 21.6166 9.53607 21.5753 9.5774L17.1309 14.0218C17.0896 14.0631 17.0568 14.1121 17.0344 14.1661C17.0121 14.22 17.0005 14.2779 17.0005 14.3363C17.0005 14.3947 17.0121 14.4525 17.0344 14.5065C17.0568 14.5604 17.0896 14.6095 17.1309 14.6507L21.5753 19.0952C21.6166 19.1365 21.6656 19.1693 21.7196 19.1916C21.7735 19.214 21.8314 19.2255 21.8898 19.2255C21.9482 19.2255 22.006 19.214 22.06 19.1916C22.1139 19.1693 22.1629 19.1365 22.2042 19.0952L26.6487 14.6507C26.69 14.6095 26.7228 14.5604 26.7451 14.5065C26.7675 14.4525 26.779 14.3947 26.779 14.3363C26.779 14.2779 26.7675 14.22 26.7451 14.1661C26.7228 14.1121 26.69 14.0631 26.6487 14.0218ZM21.8898 18.1518L18.0742 14.3363L21.8898 10.5207L25.7053 14.3363L21.8898 18.1518ZM12.4264 14.0218L7.982 9.5774C7.94073 9.53607 7.89171 9.50329 7.83775 9.48093C7.7838 9.45856 7.72597 9.44705 7.66756 9.44705C7.60915 9.44705 7.55132 9.45856 7.49736 9.48093C7.44341 9.50329 7.39439 9.53607 7.35311 9.5774L2.90867 14.0218C2.86735 14.0631 2.83457 14.1121 2.8122 14.1661C2.78983 14.22 2.77832 14.2779 2.77832 14.3363C2.77832 14.3947 2.78983 14.4525 2.8122 14.5065C2.83457 14.5604 2.86735 14.6095 2.90867 14.6507L7.35311 19.0952C7.39439 19.1365 7.44341 19.1693 7.49736 19.1916C7.55132 19.214 7.60915 19.2255 7.66756 19.2255C7.72597 19.2255 7.7838 19.214 7.83775 19.1916C7.89171 19.1693 7.94073 19.1365 7.982 19.0952L12.4264 14.6507C12.4678 14.6095 12.5006 14.5604 12.5229 14.5065C12.5453 14.4525 12.5568 14.3947 12.5568 14.3363C12.5568 14.2779 12.5453 14.22 12.5229 14.1661C12.5006 14.1121 12.4678 14.0631 12.4264 14.0218ZM7.66756 18.1518L3.852 14.3363L7.66756 10.5207L11.4831 14.3363L7.66756 18.1518Z" fill="white"/>
</svg>
