<svg width="21" height="21" viewBox="0 0 21 21" fill="none" xmlns="http://www.w3.org/2000/svg">
<path d="M20.5469 6.80656C20.5444 6.79401 20.5406 6.78173 20.5358 6.7699C20.532 6.75404 20.5272 6.73845 20.5213 6.72323C20.5154 6.70898 20.5083 6.69523 20.5002 6.68212C20.4936 6.6699 20.488 6.65767 20.4813 6.64656C20.4653 6.6224 20.4466 6.60005 20.4258 6.5799L14.2036 0.357674C14.1923 0.346569 14.18 0.336527 14.1669 0.327674C14.0885 0.263263 13.9905 0.227584 13.8891 0.226562H0.555773C0.437899 0.226562 0.324852 0.273388 0.241503 0.356737C0.158153 0.440087 0.111328 0.553133 0.111328 0.671007V14.0043C0.112036 14.1056 0.147317 14.2036 0.211328 14.2821C0.220182 14.2952 0.230224 14.3075 0.241328 14.3188L6.46355 20.541C6.50486 20.5823 6.55389 20.615 6.60784 20.6373C6.66179 20.6596 6.71961 20.6711 6.77799 20.671H20.1113C20.2292 20.671 20.3422 20.6242 20.4256 20.5408C20.5089 20.4575 20.5558 20.3444 20.5558 20.2266V6.89323C20.5556 6.86412 20.5526 6.8351 20.5469 6.80656ZM14.3336 1.74434L19.038 6.44878H14.3336V1.74434ZM6.33355 19.1532L1.62911 14.4488H6.33355V19.1532ZM6.33355 13.5599H1.00022V1.74434L6.33355 7.07767V13.5599ZM1.62911 1.11545H13.4447V6.44878H6.96244L1.62911 1.11545ZM13.4447 7.33767V13.5599H7.22244V7.33767H13.4447ZM7.22244 19.7821V14.4488H13.7047L19.038 19.7821H7.22244ZM19.6669 19.1532L14.3336 13.8199V7.33767H19.6669V19.1532Z" fill="white"/>
</svg>
