<svg width="29" height="29" viewBox="0 0 29 29" fill="none" xmlns="http://www.w3.org/2000/svg">
<path d="M23.4441 5.11719H5.66634C5.31272 5.11719 4.97358 5.25766 4.72353 5.50771C4.47348 5.75776 4.33301 6.0969 4.33301 6.45052V12.6727C4.33301 18.3572 7.08079 21.7972 9.38523 23.6839C11.8741 25.7194 14.3352 26.4061 14.4386 26.435C14.515 26.4557 14.5955 26.4557 14.6719 26.435C14.7752 26.4061 17.2363 25.7194 19.7252 23.6839C22.0297 21.795 24.7775 18.3572 24.7775 12.6727V6.45052C24.7775 6.0969 24.637 5.75776 24.3869 5.50771C24.1369 5.25766 23.7977 5.11719 23.4441 5.11719ZM23.8886 12.6727C23.8886 16.9439 22.3075 20.4094 19.1897 22.9739C17.8129 24.1031 16.2427 24.9731 14.5552 25.5416C12.8676 24.9736 11.2972 24.1036 9.92079 22.9739C6.80301 20.4094 5.2219 16.9439 5.2219 12.6727V6.45052C5.2219 6.33265 5.26872 6.2196 5.35207 6.13625C5.43542 6.0529 5.54847 6.00608 5.66634 6.00608H23.4441C23.562 6.00608 23.675 6.0529 23.7584 6.13625C23.8417 6.2196 23.8886 6.33265 23.8886 6.45052V12.6727ZM19.3141 11.4694C19.3554 11.5107 19.3882 11.5597 19.4106 11.6137C19.433 11.6676 19.4445 11.7254 19.4445 11.7839C19.4445 11.8423 19.433 11.9001 19.4106 11.9541C19.3882 12.008 19.3554 12.057 19.3141 12.0983L13.0919 18.3205C13.0506 18.3618 13.0016 18.3946 12.9476 18.417C12.8937 18.4394 12.8359 18.4509 12.7775 18.4509C12.719 18.4509 12.6612 18.4394 12.6073 18.417C12.5533 18.3946 12.5043 18.3618 12.463 18.3205L9.79634 15.6539C9.71294 15.5705 9.66609 15.4573 9.66609 15.3394C9.66609 15.2215 9.71294 15.1084 9.79634 15.025C9.87974 14.9416 9.99285 14.8947 10.1108 14.8947C10.2287 14.8947 10.3418 14.9416 10.4252 15.025L12.7775 17.3772L18.6852 11.4694C18.7265 11.4281 18.7755 11.3953 18.8295 11.3729C18.8834 11.3506 18.9413 11.3391 18.9997 11.3391C19.0581 11.3391 19.1159 11.3506 19.1699 11.3729C19.2238 11.3953 19.2728 11.4281 19.3141 11.4694Z" fill="white"/>
</svg>
