<svg width="29" height="30" viewBox="0 0 29 30" fill="none" xmlns="http://www.w3.org/2000/svg">
<path d="M26.3342 7.00694V14.1181C26.3342 14.2359 26.2874 14.349 26.2041 14.4323C26.1207 14.5157 26.0077 14.5625 25.8898 14.5625C25.7719 14.5625 25.6589 14.5157 25.5755 14.4323C25.4922 14.349 25.4453 14.2359 25.4453 14.1181V8.08028L15.5376 17.9881C15.4963 18.0294 15.4473 18.0622 15.3933 18.0845C15.3394 18.1069 15.2815 18.1184 15.2231 18.1184C15.1647 18.1184 15.1069 18.1069 15.0529 18.0845C14.999 18.0622 14.95 18.0294 14.9087 17.9881L10.7787 13.8581L3.09312 21.5436C3.00972 21.627 2.89662 21.6739 2.77868 21.6739C2.66074 21.6739 2.54763 21.627 2.46423 21.5436C2.38084 21.4602 2.33398 21.3471 2.33398 21.2292C2.33398 21.1112 2.38084 20.9981 2.46423 20.9147L10.4642 12.9147C10.5055 12.8734 10.5545 12.8406 10.6085 12.8183C10.6624 12.7959 10.7203 12.7844 10.7787 12.7844C10.8371 12.7844 10.8949 12.7959 10.9489 12.8183C11.0028 12.8406 11.0518 12.8734 11.0931 12.9147L15.2231 17.0447L24.8165 7.45139H18.7787C18.6608 7.45139 18.5478 7.40456 18.4644 7.32121C18.3811 7.23786 18.3342 7.12482 18.3342 7.00694C18.3342 6.88907 18.3811 6.77602 18.4644 6.69267C18.5478 6.60933 18.6608 6.5625 18.7787 6.5625H25.8898C26.0077 6.5625 26.1207 6.60933 26.2041 6.69267C26.2874 6.77602 26.3342 6.88907 26.3342 7.00694Z" fill="white"/>
</svg>
