<svg width="251" height="129" viewBox="0 0 251 129" fill="none" xmlns="http://www.w3.org/2000/svg">
<rect x="90.4813" y="1.25666" width="69.9259" height="69.9259" stroke="white" stroke-opacity="0.3" stroke-width="1.18519"/>
<path d="M140.094 27.1098L126.344 19.5817C126.068 19.4307 125.759 19.3516 125.444 19.3516C125.13 19.3516 124.82 19.4307 124.544 19.5817L110.794 27.1098C110.499 27.2712 110.253 27.5089 110.082 27.7981C109.91 28.0873 109.82 28.4173 109.819 28.7536V43.6973C109.82 44.0335 109.91 44.3635 110.082 44.6527C110.253 44.9419 110.499 45.1797 110.794 45.3411L124.544 52.8692C124.82 53.0209 125.13 53.1004 125.444 53.1004C125.759 53.1004 126.069 53.0209 126.344 52.8692L140.094 45.3411C140.389 45.1797 140.635 44.9419 140.807 44.6527C140.979 44.3635 141.069 44.0335 141.069 43.6973V28.7536C141.069 28.4173 140.979 28.0873 140.807 27.7981C140.635 27.5089 140.389 27.2712 140.094 27.1098ZM125.444 35.5129L111.746 28.0129L118.435 24.3504L125.144 28.0223C125.236 28.0726 125.339 28.099 125.444 28.099C125.549 28.099 125.652 28.0726 125.744 28.0223L132.454 24.3504L139.143 28.0114L125.444 35.5129ZM125.144 20.6786C125.236 20.6274 125.339 20.6005 125.444 20.6005C125.549 20.6005 125.653 20.6274 125.744 20.6786L131.152 23.6473L125.444 26.7629L119.737 23.6379L125.144 20.6786ZM111.069 43.6973V36.9239L117.319 40.3457V47.4895L111.394 44.2457C111.296 44.1919 111.214 44.1126 111.157 44.0161C111.099 43.9196 111.069 43.8095 111.069 43.6973ZM118.569 48.1739V39.9754C118.569 39.8633 118.539 39.7532 118.482 39.6567C118.425 39.5602 118.343 39.4808 118.244 39.427L111.069 35.4989V29.0676L124.819 36.5957V51.5957L118.569 48.1739ZM126.069 51.5942V36.5942L139.819 29.0661V35.4973L132.644 39.4254C132.546 39.4794 132.463 39.559 132.406 39.6558C132.349 39.7526 132.319 39.863 132.319 39.9754V48.1739L126.069 51.5942ZM139.494 44.2504L133.569 47.4895V40.3457L139.819 36.9239V43.6973C139.819 43.8095 139.789 43.9196 139.732 44.0161C139.675 44.1126 139.593 44.1919 139.494 44.2457V44.2504Z" fill="white"/>
<path d="M161 38H249.889V128.667" stroke="white" stroke-opacity="0.3" stroke-width="0.888889"/>
<path d="M89.8887 38H0.999789V128.667" stroke="white" stroke-opacity="0.3" stroke-width="0.888889"/>
<line x1="0.555773" y1="104.664" x2="0.555773" y2="128.664" stroke="white" stroke-width="0.888889"/>
<line y1="-0.444444" x2="24" y2="-0.444444" transform="matrix(0 1 1 0 250.777 104.664)" stroke="white" stroke-width="0.888889"/>
<line x1="90.3331" y1="29.1094" x2="90.3331" y2="46.8872" stroke="white" stroke-width="0.888889"/>
<line x1="73" y1="37.5556" x2="90.7778" y2="37.5556" stroke="white" stroke-width="0.888889"/>
<line y1="-0.444444" x2="17.7778" y2="-0.444444" transform="matrix(0 1 1 0 161 29.1094)" stroke="white" stroke-width="0.888889"/>
<line y1="-0.444444" x2="17.7778" y2="-0.444444" transform="matrix(-1 0 0 1 177.889 38)" stroke="white" stroke-width="0.888889"/>
</svg>
