<svg width="251" height="128" viewBox="0 0 251 128" fill="none" xmlns="http://www.w3.org/2000/svg">
<rect x="90.7029" y="0.819155" width="69.9259" height="69.9259" stroke="white" stroke-opacity="0.3" stroke-width="1.18519"/>
<path d="M138.166 22.6562H113.166C112.669 22.6562 112.192 22.8538 111.84 23.2054C111.489 23.5571 111.291 24.034 111.291 24.5312V33.2812C111.291 41.275 115.155 46.1125 118.396 48.7656C121.896 51.6281 125.357 52.5938 125.502 52.6344C125.609 52.6636 125.723 52.6636 125.83 52.6344C125.975 52.5938 129.436 51.6281 132.936 48.7656C136.177 46.1094 140.041 41.275 140.041 33.2812V24.5312C140.041 24.034 139.843 23.5571 139.492 23.2054C139.14 22.8538 138.663 22.6563 138.166 22.6562ZM138.791 33.2812C138.791 39.2875 136.568 44.1609 132.183 47.7672C130.247 49.3552 128.039 50.5787 125.666 51.3781C123.293 50.5794 121.084 49.3558 119.149 47.7672C114.764 44.1609 112.541 39.2875 112.541 33.2812V24.5312C112.541 24.3655 112.607 24.2065 112.724 24.0893C112.841 23.9721 113 23.9062 113.166 23.9062H138.166C138.332 23.9062 138.491 23.9721 138.608 24.0893C138.725 24.2065 138.791 24.3655 138.791 24.5312V33.2812ZM132.358 31.5891C132.416 31.6471 132.462 31.716 132.494 31.7919C132.525 31.8678 132.542 31.9491 132.542 32.0312C132.542 32.1134 132.525 32.1947 132.494 32.2706C132.462 32.3465 132.416 32.4154 132.358 32.4734L123.608 41.2234C123.55 41.2815 123.481 41.3276 123.405 41.3591C123.329 41.3906 123.248 41.4067 123.166 41.4067C123.084 41.4067 123.003 41.3906 122.927 41.3591C122.851 41.3276 122.782 41.2815 122.724 41.2234L118.974 37.4734C118.857 37.3562 118.791 37.1971 118.791 37.0312C118.791 36.8654 118.857 36.7063 118.974 36.5891C119.091 36.4718 119.25 36.4059 119.416 36.4059C119.582 36.4059 119.741 36.4718 119.858 36.5891L123.166 39.8969L131.474 31.5891C131.532 31.531 131.601 31.4849 131.677 31.4534C131.753 31.4219 131.834 31.4058 131.916 31.4058C131.998 31.4058 132.079 31.4219 132.155 31.4534C132.231 31.4849 132.3 31.531 132.358 31.5891Z" fill="white"/>
<path d="M161.222 37.5625H250.111V128.229" stroke="white" stroke-opacity="0.3" stroke-width="0.888889"/>
<path d="M90.1104 37.5625H1.22147V128.229" stroke="white" stroke-opacity="0.3" stroke-width="0.888889"/>
<line x1="0.776476" y1="104.227" x2="0.776476" y2="128.227" stroke="white" stroke-width="0.888889"/>
<line y1="-0.444444" x2="24" y2="-0.444444" transform="matrix(0 1 1 0 250.999 104.227)" stroke="white" stroke-width="0.888889"/>
<line x1="90.5548" y1="28.6719" x2="90.5548" y2="46.4497" stroke="white" stroke-width="0.888889"/>
<line x1="73.2217" y1="37.1181" x2="90.9995" y2="37.1181" stroke="white" stroke-width="0.888889"/>
<line y1="-0.444444" x2="17.7778" y2="-0.444444" transform="matrix(0 1 1 0 161.222 28.6719)" stroke="white" stroke-width="0.888889"/>
<line y1="-0.444444" x2="17.7778" y2="-0.444444" transform="matrix(-1 0 0 1 178.11 37.5625)" stroke="white" stroke-width="0.888889"/>
</svg>
