<svg width="252" height="128" viewBox="0 0 252 128" fill="none" xmlns="http://www.w3.org/2000/svg">
<rect x="90.8152" y="0.819155" width="69.9259" height="69.9259" stroke="white" stroke-opacity="0.3" stroke-width="1.18519"/>
<path d="M141.316 42.9681C141.358 43.0391 141.385 43.1175 141.396 43.199C141.408 43.2805 141.403 43.3634 141.382 43.4429C141.361 43.5225 141.324 43.5971 141.275 43.6626C141.225 43.728 141.163 43.783 141.091 43.8244L126.091 52.5744C125.996 52.6292 125.889 52.6581 125.779 52.6581C125.669 52.6581 125.561 52.6292 125.466 52.5744L110.466 43.8244C110.33 43.7379 110.233 43.6022 110.195 43.4456C110.156 43.289 110.18 43.1237 110.261 42.9841C110.341 42.8446 110.473 42.7416 110.628 42.6967C110.782 42.6517 110.949 42.6684 111.091 42.7431L125.779 51.3103L140.466 42.7431C140.609 42.6611 140.779 42.6387 140.938 42.6809C141.097 42.723 141.233 42.8262 141.316 42.9681ZM140.465 35.24L125.777 43.8072L111.09 35.24C110.947 35.1653 110.781 35.1486 110.626 35.1935C110.471 35.2385 110.34 35.3414 110.259 35.481C110.178 35.6206 110.155 35.7859 110.193 35.9425C110.231 36.0991 110.329 36.2348 110.465 36.3212L125.465 45.0712C125.56 45.1261 125.668 45.155 125.777 45.155C125.887 45.155 125.995 45.1261 126.09 45.0712L141.09 36.3212C141.226 36.2348 141.323 36.0991 141.362 35.9425C141.4 35.7859 141.376 35.6206 141.296 35.481C141.215 35.3414 141.084 35.2385 140.929 35.1935C140.774 35.1486 140.608 35.1653 140.465 35.24ZM110.152 28.2806C110.152 28.171 110.181 28.0634 110.236 27.9685C110.291 27.8736 110.37 27.7948 110.465 27.74L125.465 18.99C125.56 18.9351 125.668 18.9062 125.777 18.9062C125.887 18.9062 125.995 18.9351 126.09 18.99L141.09 27.74C141.185 27.7949 141.263 27.8738 141.318 27.9687C141.372 28.0635 141.401 28.1711 141.401 28.2806C141.401 28.3901 141.372 28.4977 141.318 28.5926C141.263 28.6874 141.185 28.7663 141.09 28.8212L126.09 37.5712C125.995 37.6261 125.887 37.655 125.777 37.655C125.668 37.655 125.56 37.6261 125.465 37.5712L110.465 28.8212C110.37 28.7664 110.291 28.6876 110.236 28.5927C110.181 28.4979 110.152 28.3902 110.152 28.2806ZM112.018 28.2806L125.777 36.3072L139.537 28.2806L125.777 20.254L112.018 28.2806Z" fill="white"/>
<path d="M161.333 37.5547H250.222V128.221" stroke="white" stroke-opacity="0.3" stroke-width="0.888889"/>
<path d="M90.2227 37.5547H1.33377V128.221" stroke="white" stroke-opacity="0.3" stroke-width="0.888889"/>
<line x1="0.88878" y1="104.227" x2="0.88878" y2="128.227" stroke="white" stroke-width="0.888889"/>
<line y1="-0.444444" x2="24" y2="-0.444444" transform="matrix(0 1 1 0 251.111 104.227)" stroke="white" stroke-width="0.888889"/>
<line x1="90.6671" y1="28.6719" x2="90.6671" y2="46.4497" stroke="white" stroke-width="0.888889"/>
<line x1="73.333" y1="37.1102" x2="91.1108" y2="37.1102" stroke="white" stroke-width="0.888889"/>
<line y1="-0.444444" x2="17.7778" y2="-0.444444" transform="matrix(0 1 1 0 161.333 28.6719)" stroke="white" stroke-width="0.888889"/>
<line y1="-0.444444" x2="17.7778" y2="-0.444444" transform="matrix(-1 0 0 1 178.223 37.5547)" stroke="white" stroke-width="0.888889"/>
</svg>
