<svg width="251" height="129" viewBox="0 0 251 129" fill="none" xmlns="http://www.w3.org/2000/svg">
<rect x="90.4813" y="1.11603" width="69.9259" height="69.9259" stroke="white" stroke-opacity="0.3" stroke-width="1.18519"/>
<path d="M137.944 30.4531C138.442 30.4531 138.919 30.2556 139.27 29.904C139.622 29.5523 139.819 29.0754 139.819 28.5781V23.5781C139.819 23.0808 139.622 22.6039 139.27 22.2523C138.919 21.9007 138.442 21.7031 137.944 21.7031H132.944C132.447 21.7031 131.97 21.9007 131.619 22.2523C131.267 22.6039 131.069 23.0808 131.069 23.5781V25.4531H119.819V23.5781C119.819 23.0808 119.622 22.6039 119.27 22.2523C118.919 21.9007 118.442 21.7031 117.944 21.7031H112.944C112.447 21.7031 111.97 21.9007 111.619 22.2523C111.267 22.6039 111.069 23.0808 111.069 23.5781V28.5781C111.069 29.0754 111.267 29.5523 111.619 29.904C111.97 30.2556 112.447 30.4531 112.944 30.4531H114.819V41.7031H112.944C112.447 41.7031 111.97 41.9007 111.619 42.2523C111.267 42.6039 111.069 43.0808 111.069 43.5781V48.5781C111.069 49.0754 111.267 49.5523 111.619 49.9039C111.97 50.2556 112.447 50.4531 112.944 50.4531H117.944C118.442 50.4531 118.919 50.2556 119.27 49.9039C119.622 49.5523 119.819 49.0754 119.819 48.5781V46.7031H131.069V48.5781C131.069 49.0754 131.267 49.5523 131.619 49.9039C131.97 50.2556 132.447 50.4531 132.944 50.4531H137.944C138.442 50.4531 138.919 50.2556 139.27 49.9039C139.622 49.5523 139.819 49.0754 139.819 48.5781V43.5781C139.819 43.0808 139.622 42.6039 139.27 42.2523C138.919 41.9007 138.442 41.7031 137.944 41.7031H136.069V30.4531H137.944ZM132.319 23.5781C132.319 23.4124 132.385 23.2534 132.502 23.1362C132.62 23.019 132.779 22.9531 132.944 22.9531H137.944C138.11 22.9531 138.269 23.019 138.386 23.1362C138.503 23.2534 138.569 23.4124 138.569 23.5781V28.5781C138.569 28.7439 138.503 28.9029 138.386 29.0201C138.269 29.1373 138.11 29.2031 137.944 29.2031H132.944C132.779 29.2031 132.62 29.1373 132.502 29.0201C132.385 28.9029 132.319 28.7439 132.319 28.5781V23.5781ZM112.319 28.5781V23.5781C112.319 23.4124 112.385 23.2534 112.502 23.1362C112.62 23.019 112.779 22.9531 112.944 22.9531H117.944C118.11 22.9531 118.269 23.019 118.386 23.1362C118.503 23.2534 118.569 23.4124 118.569 23.5781V28.5781C118.569 28.7439 118.503 28.9029 118.386 29.0201C118.269 29.1373 118.11 29.2031 117.944 29.2031H112.944C112.779 29.2031 112.62 29.1373 112.502 29.0201C112.385 28.9029 112.319 28.7439 112.319 28.5781ZM118.569 48.5781C118.569 48.7439 118.503 48.9029 118.386 49.0201C118.269 49.1373 118.11 49.2031 117.944 49.2031H112.944C112.779 49.2031 112.62 49.1373 112.502 49.0201C112.385 48.9029 112.319 48.7439 112.319 48.5781V43.5781C112.319 43.4124 112.385 43.2534 112.502 43.1362C112.62 43.019 112.779 42.9531 112.944 42.9531H117.944C118.11 42.9531 118.269 43.019 118.386 43.1362C118.503 43.2534 118.569 43.4124 118.569 43.5781V48.5781ZM138.569 43.5781V48.5781C138.569 48.7439 138.503 48.9029 138.386 49.0201C138.269 49.1373 138.11 49.2031 137.944 49.2031H132.944C132.779 49.2031 132.62 49.1373 132.502 49.0201C132.385 48.9029 132.319 48.7439 132.319 48.5781V43.5781C132.319 43.4124 132.385 43.2534 132.502 43.1362C132.62 43.019 132.779 42.9531 132.944 42.9531H137.944C138.11 42.9531 138.269 43.019 138.386 43.1362C138.503 43.2534 138.569 43.4124 138.569 43.5781ZM134.819 41.7031H132.944C132.447 41.7031 131.97 41.9007 131.619 42.2523C131.267 42.6039 131.069 43.0808 131.069 43.5781V45.4531H119.819V43.5781C119.819 43.0808 119.622 42.6039 119.27 42.2523C118.919 41.9007 118.442 41.7031 117.944 41.7031H116.069V30.4531H117.944C118.442 30.4531 118.919 30.2556 119.27 29.904C119.622 29.5523 119.819 29.0754 119.819 28.5781V26.7031H131.069V28.5781C131.069 29.0754 131.267 29.5523 131.619 29.904C131.97 30.2556 132.447 30.4531 132.944 30.4531H134.819V41.7031Z" fill="white"/>
<path d="M161 37.8516H249.889V128.518" stroke="white" stroke-opacity="0.3" stroke-width="0.888889"/>
<path d="M89.8887 37.8516H0.999789V128.518" stroke="white" stroke-opacity="0.3" stroke-width="0.888889"/>
<line x1="0.555773" y1="104.523" x2="0.555773" y2="128.523" stroke="white" stroke-width="0.888889"/>
<line y1="-0.444444" x2="24" y2="-0.444444" transform="matrix(0 1 1 0 250.777 104.523)" stroke="white" stroke-width="0.888889"/>
<line x1="90.3331" y1="28.9688" x2="90.3331" y2="46.7465" stroke="white" stroke-width="0.888889"/>
<line x1="73" y1="37.4071" x2="90.7778" y2="37.4071" stroke="white" stroke-width="0.888889"/>
<line y1="-0.444444" x2="17.7778" y2="-0.444444" transform="matrix(0 1 1 0 161 28.9688)" stroke="white" stroke-width="0.888889"/>
<line y1="-0.444444" x2="17.7778" y2="-0.444444" transform="matrix(-1 0 0 1 177.889 37.8516)" stroke="white" stroke-width="0.888889"/>
</svg>
