<svg width="252" height="128" viewBox="0 0 252 128" fill="none" xmlns="http://www.w3.org/2000/svg">
<rect x="91.2596" y="0.670718" width="69.9259" height="69.9259" stroke="white" stroke-opacity="0.3" stroke-width="1.18519"/>
<path d="M141.762 42.8197C141.803 42.8906 141.83 42.9691 141.842 43.0506C141.853 43.1321 141.848 43.215 141.827 43.2945C141.806 43.3741 141.77 43.4487 141.72 43.5141C141.67 43.5796 141.608 43.6346 141.537 43.6759L126.537 52.4259C126.442 52.4808 126.334 52.5097 126.224 52.5097C126.115 52.5097 126.007 52.4808 125.912 52.4259L110.912 43.6759C110.776 43.5894 110.678 43.4537 110.64 43.2972C110.602 43.1406 110.625 42.9753 110.706 42.8357C110.787 42.6961 110.918 42.5931 111.073 42.5482C111.228 42.5033 111.394 42.52 111.537 42.5947L126.224 51.1619L140.912 42.5947C141.054 42.5127 141.224 42.4903 141.383 42.5324C141.542 42.5746 141.678 42.6778 141.762 42.8197ZM140.91 35.0915L126.223 43.6587L111.535 35.0915C111.392 35.0168 111.226 35.0002 111.071 35.0451C110.916 35.09 110.785 35.193 110.704 35.3326C110.624 35.4721 110.6 35.6375 110.638 35.794C110.677 35.9506 110.774 36.0863 110.91 36.1728L125.91 44.9228C126.005 44.9777 126.113 45.0065 126.223 45.0065C126.332 45.0065 126.44 44.9777 126.535 44.9228L141.535 36.1728C141.671 36.0863 141.769 35.9506 141.807 35.794C141.845 35.6375 141.822 35.4721 141.741 35.3326C141.66 35.193 141.529 35.09 141.374 35.0451C141.219 35.0002 141.053 35.0168 140.91 35.0915ZM110.598 28.1322C110.598 28.0226 110.627 27.9149 110.682 27.82C110.736 27.7251 110.815 27.6463 110.91 27.5915L125.91 18.8415C126.005 18.7867 126.113 18.7578 126.223 18.7578C126.332 18.7578 126.44 18.7867 126.535 18.8415L141.535 27.5915C141.63 27.6465 141.708 27.7253 141.763 27.8202C141.818 27.9151 141.847 28.0227 141.847 28.1322C141.847 28.2417 141.818 28.3492 141.763 28.4441C141.708 28.539 141.63 28.6179 141.535 28.6728L126.535 37.4228C126.44 37.4777 126.332 37.5065 126.223 37.5065C126.113 37.5065 126.005 37.4777 125.91 37.4228L110.91 28.6728C110.815 28.618 110.736 28.5392 110.682 28.4443C110.627 28.3494 110.598 28.2418 110.598 28.1322ZM112.463 28.1322L126.223 36.1587L139.982 28.1322L126.223 20.1056L112.463 28.1322Z" fill="white"/>
<path d="M161.777 37.4141H250.666V128.081" stroke="white" stroke-opacity="0.3" stroke-width="0.888889"/>
<path d="M90.667 37.4141H1.77811V128.081" stroke="white" stroke-opacity="0.3" stroke-width="0.888889"/>
<line x1="1.33312" y1="104.078" x2="1.33312" y2="128.078" stroke="white" stroke-width="0.888889"/>
<line y1="-0.444444" x2="24" y2="-0.444444" transform="matrix(0 1 1 0 251.556 104.078)" stroke="white" stroke-width="0.888889"/>
<line x1="91.1114" y1="28.5234" x2="91.1114" y2="46.3012" stroke="white" stroke-width="0.888889"/>
<line x1="73.7773" y1="36.9696" x2="91.5551" y2="36.9696" stroke="white" stroke-width="0.888889"/>
<line y1="-0.444444" x2="17.7778" y2="-0.444444" transform="matrix(0 1 1 0 161.777 28.5234)" stroke="white" stroke-width="0.888889"/>
<line y1="-0.444444" x2="17.7778" y2="-0.444444" transform="matrix(-1 0 0 1 178.667 37.4141)" stroke="white" stroke-width="0.888889"/>
</svg>
