<svg width="252" height="128" viewBox="0 0 252 128" fill="none" xmlns="http://www.w3.org/2000/svg">
<rect x="90.8152" y="0.670718" width="69.9259" height="69.9259" stroke="white" stroke-opacity="0.3" stroke-width="1.18519"/>
<path d="M133.902 30.1813V28.7578C133.902 25.2531 128.137 22.5078 120.777 22.5078C113.418 22.5078 107.652 25.2531 107.652 28.7578V35.0078C107.652 37.9984 111.849 40.4328 117.652 41.0844V42.5078C117.652 46.0125 123.418 48.7578 130.777 48.7578C138.137 48.7578 143.902 46.0125 143.902 42.5078V36.2578C143.902 33.3078 139.82 30.8469 133.902 30.1813ZM142.652 36.2578C142.652 38.6719 137.88 41.2578 130.777 41.2578C129.311 41.26 127.848 41.1377 126.402 40.8922V40.675C130.873 39.6891 133.902 37.55 133.902 35.0078V31.4406C138.937 32.0391 142.652 34.0594 142.652 36.2578ZM122.682 39.9437C122.068 39.9865 121.434 40.0078 120.777 40.0078C119.923 40.0078 119.102 39.9688 118.32 39.9H118.277C117.627 39.8406 117.002 39.7594 116.402 39.6562V34.6641C117.849 34.8958 119.312 35.0107 120.777 35.0078C122.243 35.0107 123.706 34.8958 125.152 34.6641V39.6516C124.349 39.7886 123.54 39.8851 122.727 39.9406L122.682 39.9437ZM132.652 31.4641V35.0078C132.652 36.7078 130.284 38.4922 126.402 39.4V34.425C129.157 33.8172 131.363 32.7719 132.652 31.4641ZM120.777 23.7578C127.88 23.7578 132.652 26.3438 132.652 28.7578C132.652 31.1719 127.88 33.7578 120.777 33.7578C113.674 33.7578 108.902 31.1719 108.902 28.7578C108.902 26.3438 113.674 23.7578 120.777 23.7578ZM108.902 35.0078V31.4641C110.191 32.7719 112.398 33.8172 115.152 34.4328V39.4078C111.271 38.4922 108.902 36.7078 108.902 35.0078ZM118.902 42.5078V41.1953C119.513 41.2359 120.14 41.2578 120.777 41.2578C121.415 41.2578 122.037 41.2359 122.652 41.1969C123.469 41.4938 124.304 41.7355 125.152 41.9203V46.9C121.271 45.9922 118.902 44.2078 118.902 42.5078ZM126.402 47.1516V42.1594C127.849 42.3929 129.312 42.5094 130.777 42.5078C132.243 42.5107 133.706 42.3958 135.152 42.1641V47.1516C132.255 47.6266 129.3 47.6266 126.402 47.1516ZM142.652 42.5078C142.652 44.2078 140.284 45.9922 136.402 46.9V41.925C139.157 41.3172 141.363 40.2719 142.652 38.9563V42.5078Z" fill="white"/>
<path d="M161.333 37.4141H250.222V128.081" stroke="white" stroke-opacity="0.3" stroke-width="0.888889"/>
<path d="M90.2227 37.4141H1.33377V128.081" stroke="white" stroke-opacity="0.3" stroke-width="0.888889"/>
<line x1="0.88878" y1="104.078" x2="0.88878" y2="128.078" stroke="white" stroke-width="0.888889"/>
<line y1="-0.444444" x2="24" y2="-0.444444" transform="matrix(0 1 1 0 251.111 104.078)" stroke="white" stroke-width="0.888889"/>
<line x1="90.6671" y1="28.5234" x2="90.6671" y2="46.3012" stroke="white" stroke-width="0.888889"/>
<line x1="73.333" y1="36.9696" x2="91.1108" y2="36.9696" stroke="white" stroke-width="0.888889"/>
<line y1="-0.444444" x2="17.7778" y2="-0.444444" transform="matrix(0 1 1 0 161.333 28.5234)" stroke="white" stroke-width="0.888889"/>
<line y1="-0.444444" x2="17.7778" y2="-0.444444" transform="matrix(-1 0 0 1 178.223 37.4141)" stroke="white" stroke-width="0.888889"/>
</svg>
