<svg width="80" height="33" viewBox="0 0 80 33" fill="none" xmlns="http://www.w3.org/2000/svg">
<path d="M6.664 3.228V10.088C6.664 11.04 6.38867 11.782 5.838 12.314C5.28733 12.8367 4.55 13.098 3.626 13.098C2.69267 13.098 1.93667 12.8273 1.358 12.286C0.788667 11.7447 0.504 10.9887 0.504 10.018H2.464C2.47333 10.438 2.57133 10.7647 2.758 10.998C2.954 11.2313 3.234 11.348 3.598 11.348C3.95267 11.348 4.22333 11.236 4.41 11.012C4.59667 10.788 4.69 10.48 4.69 10.088V3.228H6.664ZM12.3664 3.228C13.393 3.228 14.2937 3.42867 15.0684 3.83C15.8524 4.23133 16.4544 4.80533 16.8744 5.552C17.3037 6.28933 17.5184 7.148 17.5184 8.128C17.5184 9.108 17.3037 9.96667 16.8744 10.704C16.4544 11.432 15.8524 11.9967 15.0684 12.398C14.2937 12.7993 13.393 13 12.3664 13H8.95038V3.228H12.3664ZM12.2964 11.334C13.323 11.334 14.1164 11.054 14.6764 10.494C15.2364 9.934 15.5164 9.14533 15.5164 8.128C15.5164 7.11067 15.2364 6.31733 14.6764 5.748C14.1164 5.16933 13.323 4.88 12.2964 4.88H10.9104V11.334H12.2964ZM27.8375 13L24.2815 8.646V13H22.3215V3.228H24.2815V7.61L27.8375 3.228H30.2035L26.1715 8.072L30.3155 13H27.8375ZM31.1007 9.094C31.1007 8.31 31.2547 7.61467 31.5627 7.008C31.88 6.40133 32.3047 5.93467 32.8367 5.608C33.378 5.28133 33.98 5.118 34.6427 5.118C35.2213 5.118 35.7253 5.23467 36.1547 5.468C36.5933 5.70133 36.9433 5.99533 37.2047 6.35V5.244H39.1787V13H37.2047V11.866C36.9527 12.23 36.6027 12.5333 36.1547 12.776C35.716 13.0093 35.2073 13.126 34.6287 13.126C33.9753 13.126 33.378 12.958 32.8367 12.622C32.3047 12.286 31.88 11.8147 31.5627 11.208C31.2547 10.592 31.1007 9.88733 31.1007 9.094ZM37.2047 9.122C37.2047 8.646 37.1113 8.24 36.9247 7.904C36.738 7.55867 36.486 7.29733 36.1687 7.12C35.8513 6.93333 35.5107 6.84 35.1467 6.84C34.7827 6.84 34.4467 6.92867 34.1387 7.106C33.8307 7.28333 33.5787 7.54467 33.3827 7.89C33.196 8.226 33.1027 8.62733 33.1027 9.094C33.1027 9.56067 33.196 9.97133 33.3827 10.326C33.5787 10.6713 33.8307 10.9373 34.1387 11.124C34.456 11.3107 34.792 11.404 35.1467 11.404C35.5107 11.404 35.8513 11.3153 36.1687 11.138C36.486 10.9513 36.738 10.69 36.9247 10.354C37.1113 10.0087 37.2047 9.598 37.2047 9.122ZM45.391 5.132C46.315 5.132 47.0616 5.426 47.631 6.014C48.2003 6.59267 48.485 7.40467 48.485 8.45V13H46.525V8.716C46.525 8.1 46.371 7.62867 46.063 7.302C45.755 6.966 45.335 6.798 44.803 6.798C44.2616 6.798 43.8323 6.966 43.515 7.302C43.207 7.62867 43.053 8.1 43.053 8.716V13H41.093V5.244H43.053V6.21C43.3143 5.874 43.6456 5.61267 44.047 5.426C44.4576 5.23 44.9056 5.132 45.391 5.132ZM49.8448 9.094C49.8448 8.31 49.9988 7.61467 50.3068 7.008C50.6241 6.40133 51.0488 5.93467 51.5808 5.608C52.1221 5.28133 52.7241 5.118 53.3868 5.118C53.9655 5.118 54.4695 5.23467 54.8988 5.468C55.3375 5.70133 55.6875 5.99533 55.9488 6.35V5.244H57.9228V13H55.9488V11.866C55.6968 12.23 55.3468 12.5333 54.8988 12.776C54.4601 13.0093 53.9515 13.126 53.3728 13.126C52.7195 13.126 52.1221 12.958 51.5808 12.622C51.0488 12.286 50.6241 11.8147 50.3068 11.208C49.9988 10.592 49.8448 9.88733 49.8448 9.094ZM55.9488 9.122C55.9488 8.646 55.8555 8.24 55.6688 7.904C55.4821 7.55867 55.2301 7.29733 54.9128 7.12C54.5955 6.93333 54.2548 6.84 53.8908 6.84C53.5268 6.84 53.1908 6.92867 52.8828 7.106C52.5748 7.28333 52.3228 7.54467 52.1268 7.89C51.9401 8.226 51.8468 8.62733 51.8468 9.094C51.8468 9.56067 51.9401 9.97133 52.1268 10.326C52.3228 10.6713 52.5748 10.9373 52.8828 11.124C53.2001 11.3107 53.5361 11.404 53.8908 11.404C54.2548 11.404 54.5955 11.3153 54.9128 11.138C55.2301 10.9513 55.4821 10.69 55.6688 10.354C55.8555 10.0087 55.9488 9.598 55.9488 9.122ZM64.1351 5.132C65.0591 5.132 65.8058 5.426 66.3751 6.014C66.9444 6.59267 67.2291 7.40467 67.2291 8.45V13H65.2691V8.716C65.2691 8.1 65.1151 7.62867 64.8071 7.302C64.4991 6.966 64.0791 6.798 63.5471 6.798C63.0058 6.798 62.5764 6.966 62.2591 7.302C61.9511 7.62867 61.7971 8.1 61.7971 8.716V13H59.8371V5.244H61.7971V6.21C62.0584 5.874 62.3898 5.61267 62.7911 5.426C63.2018 5.23 63.6498 5.132 64.1351 5.132ZM70.087 4.32C69.7416 4.32 69.4523 4.21267 69.219 3.998C68.995 3.774 68.883 3.49867 68.883 3.172C68.883 2.84533 68.995 2.57467 69.219 2.36C69.4523 2.136 69.7416 2.024 70.087 2.024C70.4323 2.024 70.717 2.136 70.941 2.36C71.1743 2.57467 71.291 2.84533 71.291 3.172C71.291 3.49867 71.1743 3.774 70.941 3.998C70.717 4.21267 70.4323 4.32 70.087 4.32ZM71.053 5.244V13H69.093V5.244H71.053Z" fill="white"/>
<path d="M2.926 20.81V23.26H6.216V24.814H2.926V27.404H6.636V29H0.966V19.214H6.636V20.81H2.926ZM12.7012 29L11.1052 26.592L9.69117 29H7.59117L10.1252 25.108L7.56317 21.244H9.77517L11.3572 23.638L12.7852 21.244H14.8852L12.3372 25.108L14.9132 29H12.7012ZM16.8457 29.098C16.4911 29.098 16.1971 28.9907 15.9637 28.776C15.7397 28.552 15.6277 28.2767 15.6277 27.95C15.6277 27.6233 15.7397 27.3527 15.9637 27.138C16.1971 26.914 16.4911 26.802 16.8457 26.802C17.1911 26.802 17.4757 26.914 17.6997 27.138C17.9237 27.3527 18.0357 27.6233 18.0357 27.95C18.0357 28.2767 17.9237 28.552 17.6997 28.776C17.4757 28.9907 17.1911 29.098 16.8457 29.098ZM16.8457 23.302C16.4911 23.302 16.1971 23.1947 15.9637 22.98C15.7397 22.756 15.6277 22.4807 15.6277 22.154C15.6277 21.8273 15.7397 21.5567 15.9637 21.342C16.1971 21.118 16.4911 21.006 16.8457 21.006C17.1911 21.006 17.4757 21.118 17.6997 21.342C17.9237 21.5567 18.0357 21.8273 18.0357 22.154C18.0357 22.4807 17.9237 22.756 17.6997 22.98C17.4757 23.1947 17.1911 23.302 16.8457 23.302ZM30.1174 22.252C30.1174 22.7747 29.9914 23.2647 29.7394 23.722C29.4967 24.1793 29.1094 24.548 28.5774 24.828C28.0547 25.108 27.3921 25.248 26.5894 25.248H24.9514V29H22.9914V19.228H26.5894C27.3454 19.228 27.9894 19.3587 28.5214 19.62C29.0534 19.8813 29.4501 20.2407 29.7114 20.698C29.9821 21.1553 30.1174 21.6733 30.1174 22.252ZM26.5054 23.666C27.0467 23.666 27.4481 23.5447 27.7094 23.302C27.9707 23.05 28.1014 22.7 28.1014 22.252C28.1014 21.3 27.5694 20.824 26.5054 20.824H24.9514V23.666H26.5054ZM34.953 29.126C34.2063 29.126 33.5343 28.9627 32.937 28.636C32.3396 28.3 31.8683 27.8287 31.523 27.222C31.187 26.6153 31.019 25.9153 31.019 25.122C31.019 24.3287 31.1916 23.6287 31.537 23.022C31.8916 22.4153 32.3723 21.9487 32.979 21.622C33.5856 21.286 34.2623 21.118 35.009 21.118C35.7556 21.118 36.4323 21.286 37.039 21.622C37.6456 21.9487 38.1216 22.4153 38.467 23.022C38.8216 23.6287 38.999 24.3287 38.999 25.122C38.999 25.9153 38.817 26.6153 38.453 27.222C38.0983 27.8287 37.613 28.3 36.997 28.636C36.3903 28.9627 35.709 29.126 34.953 29.126ZM34.953 27.418C35.3076 27.418 35.639 27.334 35.947 27.166C36.2643 26.9887 36.5163 26.7273 36.703 26.382C36.8896 26.0367 36.983 25.6167 36.983 25.122C36.983 24.3847 36.787 23.82 36.395 23.428C36.0123 23.0267 35.541 22.826 34.981 22.826C34.421 22.826 33.9496 23.0267 33.567 23.428C33.1936 23.82 33.007 24.3847 33.007 25.122C33.007 25.8593 33.189 26.4287 33.553 26.83C33.9263 27.222 34.393 27.418 34.953 27.418ZM42.3967 18.64V29H40.4367V18.64H42.3967ZM51.7532 21.244L46.9512 32.668H44.8652L46.5452 28.804L43.4372 21.244H45.6352L47.6372 26.662L49.6672 21.244H51.7532ZM55.8478 21.118C56.4264 21.118 56.9351 21.2347 57.3738 21.468C57.8124 21.692 58.1578 21.986 58.4098 22.35V21.244H60.3838V29.056C60.3838 29.7747 60.2391 30.414 59.9498 30.974C59.6604 31.5433 59.2264 31.9913 58.6478 32.318C58.0691 32.654 57.3691 32.822 56.5478 32.822C55.4464 32.822 54.5411 32.5653 53.8318 32.052C53.1318 31.5387 52.7351 30.8387 52.6418 29.952H54.5878C54.6904 30.3067 54.9098 30.5867 55.2458 30.792C55.5911 31.0067 56.0064 31.114 56.4918 31.114C57.0611 31.114 57.5231 30.9413 57.8778 30.596C58.2324 30.26 58.4098 29.7467 58.4098 29.056V27.852C58.1578 28.216 57.8078 28.5193 57.3598 28.762C56.9211 29.0047 56.4171 29.126 55.8478 29.126C55.1944 29.126 54.5971 28.958 54.0558 28.622C53.5144 28.286 53.0851 27.8147 52.7677 27.208C52.4597 26.592 52.3057 25.8873 52.3057 25.094C52.3057 24.31 52.4597 23.6147 52.7677 23.008C53.0851 22.4013 53.5098 21.9347 54.0418 21.608C54.5831 21.2813 55.1851 21.118 55.8478 21.118ZM58.4098 25.122C58.4098 24.646 58.3164 24.24 58.1298 23.904C57.9431 23.5587 57.6911 23.2973 57.3738 23.12C57.0564 22.9333 56.7158 22.84 56.3518 22.84C55.9878 22.84 55.6518 22.9287 55.3438 23.106C55.0358 23.2833 54.7838 23.5447 54.5878 23.89C54.4011 24.226 54.3078 24.6273 54.3078 25.094C54.3078 25.5607 54.4011 25.9713 54.5878 26.326C54.7838 26.6713 55.0358 26.9373 55.3438 27.124C55.6611 27.3107 55.9971 27.404 56.3518 27.404C56.7158 27.404 57.0564 27.3153 57.3738 27.138C57.6911 26.9513 57.9431 26.69 58.1298 26.354C58.3164 26.0087 58.4098 25.598 58.4098 25.122ZM65.742 29.126C64.9954 29.126 64.3234 28.9627 63.726 28.636C63.1287 28.3 62.6574 27.8287 62.312 27.222C61.976 26.6153 61.808 25.9153 61.808 25.122C61.808 24.3287 61.9807 23.6287 62.326 23.022C62.6807 22.4153 63.1614 21.9487 63.768 21.622C64.3747 21.286 65.0514 21.118 65.798 21.118C66.5447 21.118 67.2214 21.286 67.828 21.622C68.4347 21.9487 68.9107 22.4153 69.256 23.022C69.6107 23.6287 69.788 24.3287 69.788 25.122C69.788 25.9153 69.606 26.6153 69.242 27.222C68.8874 27.8287 68.402 28.3 67.786 28.636C67.1794 28.9627 66.498 29.126 65.742 29.126ZM65.742 27.418C66.0967 27.418 66.428 27.334 66.736 27.166C67.0534 26.9887 67.3054 26.7273 67.492 26.382C67.6787 26.0367 67.772 25.6167 67.772 25.122C67.772 24.3847 67.576 23.82 67.184 23.428C66.8014 23.0267 66.33 22.826 65.77 22.826C65.21 22.826 64.7387 23.0267 64.356 23.428C63.9827 23.82 63.796 24.3847 63.796 25.122C63.796 25.8593 63.978 26.4287 64.342 26.83C64.7154 27.222 65.182 27.418 65.742 27.418ZM75.5238 21.132C76.4478 21.132 77.1944 21.426 77.7638 22.014C78.3331 22.5927 78.6178 23.4047 78.6178 24.45V29H76.6578V24.716C76.6578 24.1 76.5038 23.6287 76.1958 23.302C75.8878 22.966 75.4678 22.798 74.9358 22.798C74.3944 22.798 73.9651 22.966 73.6478 23.302C73.3398 23.6287 73.1858 24.1 73.1858 24.716V29H71.2258V21.244H73.1858V22.21C73.4471 21.874 73.7784 21.6127 74.1798 21.426C74.5904 21.23 75.0384 21.132 75.5238 21.132Z" fill="white"/>
</svg>
