<svg width="90" height="36" viewBox="0 0 90 36" fill="none" xmlns="http://www.w3.org/2000/svg">
<mask id="mask0_1920_24848" style="mask-type:alpha" maskUnits="userSpaceOnUse" x="3" y="10" width="30" height="15">
<path d="M15.218 22.6584C12.5276 25.3487 8.21645 25.4304 5.42767 22.9035L7.69347 20.6376L11.7013 16.6299L12.4549 17.3833L8.62414 21.2141C10.0553 21.8415 11.7857 21.5693 12.9573 20.3977C14.4832 18.8717 14.4832 16.3975 12.9573 14.8715C11.4312 13.3455 8.95705 13.3455 7.43104 14.8715C6.07659 16.2259 5.92431 18.3274 6.9742 19.8498L4.69273 22.1313C2.40607 19.3404 2.56525 15.2158 5.1703 12.6107C7.94489 9.83615 12.4433 9.83615 15.218 12.6107C17.9925 15.3853 17.9925 19.8838 15.218 22.6584Z" fill="#FF3CD4"/>
<path d="M25.3222 24.5313C29.1271 24.5313 32.2333 21.5405 32.4183 17.7817H23.5461V18.8475H28.9635C28.3951 20.3029 26.9792 21.3341 25.3224 21.3341C23.1642 21.3341 21.4147 19.5846 21.4147 17.4264C21.4147 15.2683 23.1642 13.5189 25.3224 13.5189C27.2378 13.5189 28.8314 14.8971 29.1655 16.716H32.392C32.0355 13.1257 29.0064 10.3217 25.3222 10.3217C21.3985 10.3217 18.2175 13.5025 18.2175 17.4264C18.2175 21.3503 21.3985 24.5313 25.3222 24.5313Z" fill="#FF3CD4"/>
</mask>
<g mask="url(#mask0_1920_24848)">
<path d="M2.63989 10.08H33.5999V24.96H2.63989V10.08Z" fill="#FDFDFD"/>
</g>
<path d="M40.9333 16V6.9H44.1183L45.985 14.5767H46.37L48.26 6.9H51.445V16H49.7533V8.38167H49.45L47.6183 16H44.655L42.8233 8.38167H42.52V16H40.9333ZM53.2714 16V9H55.0097V16H53.2714ZM54.1347 8.14833C53.8236 8.14833 53.5864 8.06667 53.423 7.90333C53.2597 7.73222 53.178 7.51444 53.178 7.25C53.178 6.97778 53.2597 6.76 53.423 6.59667C53.5864 6.43333 53.8236 6.35167 54.1347 6.35167C54.4458 6.35167 54.683 6.43333 54.8464 6.59667C55.0097 6.76 55.0914 6.97778 55.0914 7.25C55.0914 7.51444 55.0097 7.73222 54.8464 7.90333C54.683 8.06667 54.4458 8.14833 54.1347 8.14833ZM59.6007 16.175C58.5352 16.175 57.7263 15.8444 57.1741 15.1833C56.6218 14.5144 56.3457 13.62 56.3457 12.5C56.3457 11.3256 56.6335 10.4194 57.2091 9.78167C57.7924 9.14389 58.5935 8.825 59.6124 8.825C60.5146 8.825 61.2263 9.06611 61.7474 9.54833C62.2685 10.0306 62.5796 10.6917 62.6807 11.5317H60.9774C60.923 11.065 60.7791 10.7072 60.5457 10.4583C60.3124 10.2017 60.0091 10.0733 59.6357 10.0733C59.1457 10.0733 58.7724 10.2872 58.5157 10.715C58.2591 11.135 58.1307 11.73 58.1307 12.5C58.1307 13.27 58.2552 13.865 58.5041 14.285C58.7607 14.705 59.1341 14.915 59.6241 14.915C60.0052 14.915 60.3124 14.7906 60.5457 14.5417C60.7791 14.285 60.923 13.9233 60.9774 13.4567H62.6807C62.5718 14.2967 62.253 14.9617 61.7241 15.4517C61.203 15.9339 60.4952 16.175 59.6007 16.175ZM63.9628 16V6.66667H65.7011V9.85167H65.9811C66.1367 9.54833 66.3545 9.30333 66.6345 9.11667C66.9145 8.92222 67.2956 8.825 67.7778 8.825C68.5633 8.825 69.1467 9.07389 69.5278 9.57167C69.9167 10.0617 70.1111 10.7189 70.1111 11.5433V16H68.3728V11.8467C68.3728 11.3333 68.2795 10.9406 68.0928 10.6683C67.9139 10.3883 67.6222 10.2483 67.2178 10.2483C66.7356 10.2483 66.3622 10.4389 66.0978 10.82C65.8333 11.1933 65.7011 11.66 65.7011 12.22V16H63.9628ZM74.1788 16.1517C73.541 16.1517 73.0121 15.9961 72.5921 15.685C72.1721 15.3661 71.8571 14.9344 71.6471 14.39C71.4449 13.8378 71.3438 13.2039 71.3438 12.4883C71.3438 11.7572 71.4488 11.1194 71.6588 10.575C71.8688 10.0306 72.1838 9.60667 72.6038 9.30333C73.0238 9 73.5488 8.84833 74.1788 8.84833C74.6766 8.84833 75.081 8.94944 75.3921 9.15167C75.711 9.34611 75.9482 9.59889 76.1038 9.91H76.3838V9H77.9821V16H76.3838V15.09H76.1038C75.9482 15.3778 75.7149 15.6267 75.4038 15.8367C75.0927 16.0467 74.6843 16.1517 74.1788 16.1517ZM74.6104 14.8917C75.1082 14.8917 75.5049 14.6739 75.8004 14.2383C76.1038 13.8028 76.2554 13.2233 76.2554 12.5C76.2554 11.7689 76.1038 11.1894 75.8004 10.7617C75.5049 10.3261 75.1082 10.1083 74.6104 10.1083C74.1438 10.1083 73.7782 10.3106 73.5138 10.715C73.2571 11.1194 73.1288 11.7144 73.1288 12.5C73.1288 13.2856 73.2571 13.8806 73.5138 14.285C73.7782 14.6894 74.1438 14.8917 74.6104 14.8917ZM82.6395 16.175C81.5584 16.175 80.7339 15.8444 80.1661 15.1833C79.5984 14.5144 79.3145 13.6161 79.3145 12.4883C79.3145 11.7339 79.4389 11.0844 79.6878 10.54C79.9445 9.99556 80.3178 9.57556 80.8078 9.28C81.3056 8.97667 81.9123 8.825 82.6278 8.825C83.6467 8.825 84.4245 9.14 84.9611 9.77C85.5056 10.3922 85.7778 11.31 85.7778 12.5233V12.9083H81.0061C81.045 13.5228 81.2045 14.0128 81.4845 14.3783C81.7645 14.7439 82.1534 14.9267 82.6511 14.9267C83.0323 14.9267 83.3395 14.8139 83.5728 14.5883C83.8061 14.3628 83.9656 14.0867 84.0511 13.76H85.6961C85.6184 14.1956 85.4589 14.5961 85.2178 14.9617C84.9767 15.3272 84.6423 15.6228 84.2145 15.8483C83.7945 16.0661 83.2695 16.175 82.6395 16.175ZM81.0061 11.7883H84.0978C84.0667 11.2283 83.9228 10.7928 83.6661 10.4817C83.4173 10.1706 83.0673 10.015 82.6161 10.015C82.1573 10.015 81.7878 10.1667 81.5078 10.47C81.2356 10.7656 81.0684 11.205 81.0061 11.7883ZM87.6283 16C87.4183 15.7589 87.2666 15.4828 87.1733 15.1717C87.0799 14.8606 87.0333 14.4406 87.0333 13.9117V6.66667H88.7716V13.725C88.7716 14.3239 88.8377 14.7867 88.9699 15.1133C89.1021 15.4322 89.2733 15.7044 89.4833 15.93V16H87.6283Z" fill="white"/>
<path d="M43.9667 32.1633C42.7844 32.1633 41.9017 31.7472 41.3183 30.915C40.735 30.0828 40.4433 28.9278 40.4433 27.45C40.4433 25.9722 40.735 24.8172 41.3183 23.985C41.9017 23.1528 42.7844 22.7367 43.9667 22.7367C45.1644 22.7367 46.0511 23.1528 46.6267 23.985C47.21 24.8172 47.5017 25.9722 47.5017 27.45C47.5017 28.9278 47.21 30.0828 46.6267 30.915C46.0511 31.7472 45.1644 32.1633 43.9667 32.1633ZM43.9667 30.74C44.5656 30.74 45.005 30.4678 45.285 29.9233C45.565 29.3711 45.705 28.5467 45.705 27.45C45.705 26.3533 45.565 25.5289 45.285 24.9767C45.005 24.4244 44.5656 24.1483 43.9667 24.1483C43.3678 24.1483 42.9283 24.4244 42.6483 24.9767C42.3761 25.5289 42.24 26.3533 42.24 27.45C42.24 28.5467 42.3761 29.3711 42.6483 29.9233C42.9283 30.4678 43.3678 30.74 43.9667 30.74ZM52.258 32.1633C51.418 32.1633 50.7025 31.965 50.1114 31.5683C49.528 31.1717 49.0808 30.6194 48.7697 29.9117C48.4664 29.1961 48.3147 28.3678 48.3147 27.4267C48.3147 26.47 48.4702 25.6417 48.7814 24.9417C49.1002 24.2417 49.5708 23.7011 50.193 23.32C50.8152 22.9311 51.5852 22.7367 52.503 22.7367C53.2808 22.7367 53.9341 22.8728 54.463 23.145C54.9997 23.4094 55.4197 23.7828 55.723 24.265C56.0264 24.7394 56.2208 25.2956 56.3064 25.9333H54.5797C54.4864 25.3422 54.2608 24.8911 53.903 24.58C53.553 24.2611 53.0747 24.1017 52.468 24.1017C51.6747 24.1017 51.0836 24.3933 50.6947 24.9767C50.3136 25.56 50.123 26.3767 50.123 27.4267C50.123 28.5156 50.3252 29.3556 50.7297 29.9467C51.1341 30.53 51.733 30.8217 52.5264 30.8217C53.1875 30.8217 53.6969 30.6272 54.0547 30.2383C54.4202 29.8494 54.6225 29.3167 54.6614 28.64H52.0014V27.3217H56.318V32H54.9997V30.9267H54.7197C54.5564 31.2533 54.2841 31.5411 53.903 31.79C53.5219 32.0389 52.9736 32.1633 52.258 32.1633ZM60.7986 32V22.9H62.5952V30.565H66.5152V32H60.7986ZM69.8995 32.1517C69.2617 32.1517 68.7328 31.9961 68.3128 31.685C67.8928 31.3661 67.5778 30.9344 67.3678 30.39C67.1656 29.8378 67.0645 29.2039 67.0645 28.4883C67.0645 27.7572 67.1695 27.1194 67.3795 26.575C67.5895 26.0306 67.9045 25.6067 68.3245 25.3033C68.7445 25 69.2695 24.8483 69.8995 24.8483C70.3973 24.8483 70.8017 24.9494 71.1128 25.1517C71.4317 25.3461 71.6689 25.5989 71.8245 25.91H72.1045V25H73.7028V32H72.1045V31.09H71.8245C71.6689 31.3778 71.4356 31.6267 71.1245 31.8367C70.8134 32.0467 70.405 32.1517 69.8995 32.1517ZM70.3311 30.8917C70.8289 30.8917 71.2256 30.6739 71.5211 30.2383C71.8245 29.8028 71.9761 29.2233 71.9761 28.5C71.9761 27.7689 71.8245 27.1894 71.5211 26.7617C71.2256 26.3261 70.8289 26.1083 70.3311 26.1083C69.8645 26.1083 69.4989 26.3106 69.2345 26.715C68.9778 27.1194 68.8495 27.7144 68.8495 28.5C68.8495 29.2856 68.9778 29.8806 69.2345 30.285C69.4989 30.6894 69.8645 30.8917 70.3311 30.8917ZM79.3285 32.1517C78.8074 32.1517 78.3874 32.0467 78.0685 31.8367C77.7574 31.6267 77.528 31.3778 77.3802 31.09H77.1002V32H75.5018V22.6667H77.2402V25.7817H77.5202C77.6835 25.5017 77.913 25.2761 78.2085 25.105C78.5041 24.9339 78.8813 24.8483 79.3402 24.8483C79.9546 24.8483 80.468 25 80.8802 25.3033C81.3002 25.6067 81.6152 26.0306 81.8252 26.575C82.0352 27.1194 82.1402 27.7572 82.1402 28.4883C82.1402 29.2039 82.0352 29.8378 81.8252 30.39C81.623 30.9344 81.3118 31.3661 80.8918 31.685C80.4796 31.9961 79.9585 32.1517 79.3285 32.1517ZM78.8735 30.8917C79.3402 30.8917 79.7018 30.6894 79.9585 30.285C80.2152 29.8806 80.3435 29.2856 80.3435 28.5C80.3435 27.7144 80.2152 27.1194 79.9585 26.715C79.7018 26.3106 79.3402 26.1083 78.8735 26.1083C78.3757 26.1083 77.9752 26.3261 77.6718 26.7617C77.3763 27.1894 77.2285 27.7689 77.2285 28.5C77.2285 29.2233 77.3763 29.8028 77.6718 30.2383C77.9752 30.6739 78.3757 30.8917 78.8735 30.8917ZM86.0042 32.175C85.2576 32.175 84.6587 32.0544 84.2076 31.8133C83.7564 31.5722 83.422 31.265 83.2042 30.8917C82.9942 30.5183 82.8776 30.1411 82.8542 29.76H84.5109C84.542 29.97 84.6198 30.1644 84.7442 30.3433C84.8764 30.5222 85.0514 30.6661 85.2692 30.775C85.4948 30.8761 85.767 30.9267 86.0859 30.9267C86.467 30.9267 86.747 30.8567 86.9259 30.7167C87.1048 30.5767 87.1942 30.3978 87.1942 30.18C87.1942 29.9778 87.1164 29.8067 86.9609 29.6667C86.8053 29.5267 86.5526 29.3983 86.2026 29.2817L85.3626 29.0017C84.9659 28.8617 84.6003 28.71 84.2659 28.5467C83.9392 28.3756 83.6748 28.1578 83.4726 27.8933C83.2781 27.6289 83.1809 27.2906 83.1809 26.8783C83.1809 26.2639 83.4103 25.77 83.8692 25.3967C84.3359 25.0156 84.9892 24.825 85.8292 24.825C86.4359 24.825 86.9337 24.9222 87.3226 25.1167C87.7114 25.3033 88.0031 25.56 88.1976 25.8867C88.3998 26.2056 88.5164 26.5633 88.5476 26.96H86.9492C86.9103 26.6722 86.7937 26.4428 86.5992 26.2717C86.4048 26.1006 86.1248 26.015 85.7592 26.015C85.4403 26.015 85.1992 26.0811 85.0359 26.2133C84.8726 26.3378 84.7909 26.5089 84.7909 26.7267C84.7909 26.9444 84.8764 27.1233 85.0476 27.2633C85.2187 27.4033 85.4753 27.5317 85.8176 27.6483L86.6576 27.9283C87.0542 28.0528 87.4159 28.2006 87.7426 28.3717C88.0692 28.535 88.3298 28.7489 88.5242 29.0133C88.7187 29.2778 88.8159 29.62 88.8159 30.04C88.8159 30.6778 88.5748 31.195 88.0926 31.5917C87.6103 31.9806 86.9142 32.175 86.0042 32.175Z" fill="white"/>
</svg>
