<svg width="119" height="36" viewBox="0 0 119 36" fill="none" xmlns="http://www.w3.org/2000/svg">
<path d="M28.7833 17.499C28.7833 15.3862 28.1763 13.3048 27.0134 11.535L31.2943 7.23038L28.0857 4L23.8028 8.30455C20.1959 5.93744 15.5287 5.93744 11.9219 8.30455L7.63115 4L4.4126 7.23038L8.69349 11.535C6.33624 15.1634 6.33624 19.8464 8.69349 23.4749L4.4126 27.7696L7.63115 31L11.912 26.6955C15.5188 29.0625 20.1861 29.0625 23.7929 26.6955L28.0738 31L31.2924 27.7696L27.0115 23.465C28.1744 21.6952 28.7932 19.6256 28.7814 17.501L28.7833 17.499ZM11.4824 17.499C11.4824 14.8875 13.0532 12.5302 15.4657 11.5566C17.8781 10.583 20.6433 11.1703 22.4468 13.0506C24.2502 14.9328 24.737 17.7316 23.6648 20.1105L19.4608 15.8828L16.2521 19.1132L20.4561 23.3409C18.4871 24.2258 16.1969 24.0603 14.3836 22.8758C12.5802 21.6912 11.4844 19.6651 11.4844 17.499H11.4824Z" fill="white"/>
<path d="M42.94 11.262V15H40.868V4.948H44.998C47.308 4.948 48.75 6.04 48.75 8.112C48.75 9.638 47.924 10.66 46.51 11.066L49.016 15H46.664L44.34 11.262H42.94ZM42.94 9.54H44.886C46.09 9.54 46.706 9.022 46.706 8.126C46.706 7.216 46.09 6.698 44.886 6.698H42.94V9.54ZM49.9578 6.768V4.948H51.9598V6.768H49.9578ZM51.9458 7.636V15H49.9858V7.636H51.9458ZM55.0662 11.318C55.0662 12.704 55.7522 13.502 56.7882 13.502C57.6002 13.502 58.0902 12.942 58.2722 12.186L59.9662 12.942C59.6302 14.146 58.4822 15.154 56.7742 15.154C54.6322 15.154 53.1202 13.6 53.1202 11.318C53.1202 9.05 54.6322 7.496 56.7742 7.496C58.4682 7.496 59.5882 8.476 59.9382 9.666L58.2722 10.45C58.0902 9.694 57.6002 9.134 56.7882 9.134C55.7522 9.134 55.0662 9.946 55.0662 11.318ZM60.9097 15V4.948H62.8697V8.392C63.2757 7.916 63.9477 7.496 64.8857 7.496C66.4257 7.496 67.3637 8.546 67.3637 10.142V15H65.4037V10.702C65.4037 9.876 65.0677 9.288 64.2277 9.288C63.5417 9.288 62.8697 9.778 62.8697 10.744V15H60.9097ZM70.937 15.126C69.495 15.126 68.431 14.258 68.431 12.956C68.431 11.486 69.607 10.87 71.091 10.604L72.925 10.254V10.142C72.925 9.512 72.603 9.12 71.791 9.12C71.063 9.12 70.685 9.442 70.517 10.1L68.655 9.764C68.991 8.504 70.111 7.496 71.861 7.496C73.723 7.496 74.843 8.35 74.843 10.058V13.068C74.843 13.46 75.011 13.586 75.459 13.53V15C74.199 15.182 73.443 14.93 73.121 14.314C72.645 14.832 71.903 15.126 70.937 15.126ZM72.925 12.382V11.626L71.483 11.92C70.839 12.046 70.363 12.256 70.363 12.844C70.363 13.348 70.741 13.642 71.329 13.642C72.155 13.642 72.925 13.208 72.925 12.382ZM80.9463 7.622V9.54C80.7223 9.512 80.5543 9.498 80.3163 9.498C79.2943 9.498 78.5103 10.128 78.5103 11.262V15H76.5503V7.636H78.5103V8.672C78.8323 8.028 79.5603 7.594 80.4703 7.594C80.6663 7.594 80.8063 7.608 80.9463 7.622ZM84.5449 15.154C82.5009 15.154 81.3389 13.418 81.3389 11.318C81.3389 9.232 82.5009 7.496 84.5449 7.496C85.4689 7.496 86.1549 7.86 86.6029 8.392V4.948H88.5629V15H86.6029V14.244C86.1549 14.79 85.4689 15.154 84.5449 15.154ZM86.6309 11.122C86.6309 9.862 85.9309 9.176 84.9929 9.176C83.9009 9.176 83.3129 10.058 83.3129 11.318C83.3129 12.592 83.9009 13.46 84.9929 13.46C85.9309 13.46 86.6309 12.774 86.6309 11.528V11.122ZM98.9895 15H97.4215L94.9995 7.636V15H93.0535V4.948H95.9235L98.2475 12.102L100.558 4.948H103.372V15H101.412V7.636L98.9895 15ZM107.058 15.126C105.616 15.126 104.552 14.258 104.552 12.956C104.552 11.486 105.728 10.87 107.212 10.604L109.046 10.254V10.142C109.046 9.512 108.724 9.12 107.912 9.12C107.184 9.12 106.806 9.442 106.638 10.1L104.776 9.764C105.112 8.504 106.232 7.496 107.982 7.496C109.844 7.496 110.964 8.35 110.964 10.058V13.068C110.964 13.46 111.132 13.586 111.58 13.53V15C110.32 15.182 109.564 14.93 109.242 14.314C108.766 14.832 108.024 15.126 107.058 15.126ZM109.046 12.382V11.626L107.604 11.92C106.96 12.046 106.484 12.256 106.484 12.844C106.484 13.348 106.862 13.642 107.45 13.642C108.276 13.642 109.046 13.208 109.046 12.382Z" fill="white"/>
<path d="M40.378 25.974C40.378 22.936 42.366 20.794 45.138 20.794C47.896 20.794 49.884 22.936 49.884 25.974C49.884 27.794 49.17 29.292 47.994 30.202C48.4 30.734 49.044 31.098 49.856 31.294L48.666 32.75C47.728 32.484 46.79 31.77 46.384 31C45.992 31.098 45.572 31.154 45.138 31.154C42.366 31.154 40.378 29.012 40.378 25.974ZM47.812 25.974C47.812 23.916 46.706 22.6 45.138 22.6C43.556 22.6 42.45 23.916 42.45 25.974C42.45 28.032 43.556 29.348 45.138 29.348C46.706 29.348 47.812 28.032 47.812 25.974ZM57.4776 23.636V31H55.5176V30.244C55.1116 30.72 54.4676 31.154 53.5296 31.154C52.0036 31.154 51.0236 30.104 51.0236 28.508V23.636H52.9836V28.074C52.9836 28.886 53.3476 29.418 54.1596 29.418C54.8456 29.418 55.5176 28.914 55.5176 27.962V23.636H57.4776ZM61.107 31.126C59.665 31.126 58.601 30.258 58.601 28.956C58.601 27.486 59.777 26.87 61.261 26.604L63.095 26.254V26.142C63.095 25.512 62.773 25.12 61.961 25.12C61.233 25.12 60.855 25.442 60.687 26.1L58.825 25.764C59.161 24.504 60.281 23.496 62.031 23.496C63.893 23.496 65.013 24.35 65.013 26.058V29.068C65.013 29.46 65.181 29.586 65.629 29.53V31C64.369 31.182 63.613 30.93 63.291 30.314C62.815 30.832 62.073 31.126 61.107 31.126ZM63.095 28.382V27.626L61.653 27.92C61.009 28.046 60.533 28.256 60.533 28.844C60.533 29.348 60.911 29.642 61.499 29.642C62.325 29.642 63.095 29.208 63.095 28.382ZM66.7202 31V23.636H68.6802V24.392C69.0862 23.916 69.7582 23.496 70.6962 23.496C72.2362 23.496 73.1742 24.546 73.1742 26.142V31H71.2142V26.702C71.2142 25.876 70.8782 25.288 70.0382 25.288C69.3522 25.288 68.6802 25.778 68.6802 26.744V31H66.7202ZM74.9416 29.082V25.274H73.9616V23.636H74.9416V21.536H76.8736V23.636H78.3716V25.274H76.8736V28.676C76.8736 29.306 77.2236 29.39 77.8116 29.39C78.0776 29.39 78.2176 29.376 78.4696 29.348V30.972C78.1196 31.042 77.6996 31.084 77.2096 31.084C75.7256 31.084 74.9416 30.594 74.9416 29.082ZM78.9121 29.754L80.1301 28.494C80.6481 29.18 81.5441 29.614 82.3701 29.614C83.0141 29.614 83.5881 29.39 83.5881 28.872C83.5881 28.312 83.0421 28.242 81.8661 28.018C80.6761 27.78 79.3601 27.472 79.3601 25.89C79.3601 24.476 80.6201 23.482 82.3701 23.482C83.6861 23.482 84.8481 24.028 85.4221 24.77L84.2881 26.002C83.7981 25.372 83.0841 25.022 82.3141 25.022C81.6981 25.022 81.3061 25.288 81.3061 25.694C81.3061 26.17 81.7821 26.24 82.6921 26.422C83.9801 26.688 85.5061 26.982 85.5061 28.662C85.5061 30.202 84.0921 31.154 82.3141 31.154C80.9981 31.154 79.5841 30.664 78.9121 29.754ZM86.7814 29.082V25.274H85.8014V23.636H86.7814V21.536H88.7134V23.636H90.2114V25.274H88.7134V28.676C88.7134 29.306 89.0634 29.39 89.6514 29.39C89.9174 29.39 90.0574 29.376 90.3094 29.348V30.972C89.9594 31.042 89.5394 31.084 89.0494 31.084C87.5654 31.084 86.7814 30.594 86.7814 29.082ZM93.482 31.126C92.04 31.126 90.976 30.258 90.976 28.956C90.976 27.486 92.152 26.87 93.636 26.604L95.47 26.254V26.142C95.47 25.512 95.148 25.12 94.336 25.12C93.608 25.12 93.23 25.442 93.062 26.1L91.2 25.764C91.536 24.504 92.656 23.496 94.406 23.496C96.268 23.496 97.388 24.35 97.388 26.058V29.068C97.388 29.46 97.556 29.586 98.004 29.53V31C96.744 31.182 95.988 30.93 95.666 30.314C95.19 30.832 94.448 31.126 93.482 31.126ZM95.47 28.382V27.626L94.028 27.92C93.384 28.046 92.908 28.256 92.908 28.844C92.908 29.348 93.286 29.642 93.874 29.642C94.7 29.642 95.47 29.208 95.47 28.382ZM101.055 26.744V31H99.0952V23.636H101.055V24.392C101.461 23.916 102.105 23.496 103.057 23.496C103.953 23.496 104.639 23.874 105.045 24.504C105.493 24.042 106.193 23.496 107.327 23.496C108.839 23.496 109.819 24.546 109.819 26.142V31H107.859V26.702C107.859 25.876 107.551 25.288 106.753 25.288C106.095 25.288 105.437 25.778 105.437 26.744V31H103.477V26.702C103.477 25.876 103.169 25.288 102.357 25.288C101.713 25.288 101.055 25.778 101.055 26.744ZM115.418 31.154C114.494 31.154 113.794 30.79 113.36 30.244V33.492H111.4V23.636H113.36V24.392C113.794 23.86 114.494 23.496 115.418 23.496C117.448 23.496 118.624 25.232 118.624 27.318C118.624 29.418 117.448 31.154 115.418 31.154ZM113.318 27.122V27.528C113.318 28.774 114.018 29.46 114.956 29.46C116.062 29.46 116.65 28.592 116.65 27.318C116.65 26.058 116.062 25.176 114.956 25.176C114.018 25.176 113.318 25.862 113.318 27.122Z" fill="white"/>
</svg>
