<svg width="160" height="36" viewBox="0 0 160 36" fill="none" xmlns="http://www.w3.org/2000/svg">
<path d="M24.546 22.8255L30.951 19.173C31.1166 19.0777 31.2544 18.9408 31.3507 18.7758C31.447 18.6108 31.4985 18.4235 31.5 18.2325V10.926C31.5 10.7346 31.4492 10.5467 31.3527 10.3814C31.2563 10.2162 31.1176 10.0795 30.951 9.98546L24.546 6.33296C24.3787 6.23775 24.1895 6.18768 23.997 6.18768C23.8045 6.18768 23.6153 6.23775 23.448 6.33296L17.043 9.98546C16.8764 10.0795 16.7377 10.2162 16.6413 10.3814C16.5448 10.5467 16.494 10.7346 16.494 10.926V23.982L12.003 26.5425L7.512 23.982V18.8595L12.003 16.299L14.964 17.9895V14.553L12.552 13.176C12.3842 13.0822 12.1952 13.0329 12.003 13.0329C11.8108 13.0329 11.6218 13.0822 11.454 13.176L5.049 16.8285C4.88238 16.9225 4.74374 17.0592 4.64728 17.2244C4.55082 17.3897 4.49999 17.5776 4.5 17.769V25.074C4.5 25.461 4.71 25.821 5.049 26.0145L11.454 29.6685C11.6218 29.7623 11.8108 29.8115 12.003 29.8115C12.1952 29.8115 12.3842 29.7623 12.552 29.6685L18.957 26.0145C19.1234 25.9205 19.2619 25.7841 19.3583 25.6191C19.4548 25.4541 19.5057 25.2665 19.506 25.0755V12.018L19.5855 11.973L23.9955 9.45746L28.4865 12.018V17.1405L23.9955 19.701L21.0375 18.015V21.4515L23.4465 22.8255C23.6143 22.9193 23.8033 22.9685 23.9955 22.9685C24.1877 22.9685 24.3782 22.9193 24.546 22.8255Z" fill="white"/>
<path d="M44.34 15.098C43.6587 15.098 43.0427 14.9813 42.492 14.748C41.9507 14.5147 41.5213 14.1787 41.204 13.74C40.8867 13.3013 40.7233 12.7833 40.714 12.186H42.814C42.842 12.5873 42.982 12.9047 43.234 13.138C43.4953 13.3713 43.85 13.488 44.298 13.488C44.7553 13.488 45.1147 13.3807 45.376 13.166C45.6373 12.942 45.768 12.6527 45.768 12.298C45.768 12.0087 45.6793 11.7707 45.502 11.584C45.3247 11.3973 45.1007 11.2527 44.83 11.15C44.5687 11.038 44.2047 10.9167 43.738 10.786C43.1033 10.5993 42.5853 10.4173 42.184 10.24C41.792 10.0533 41.4513 9.778 41.162 9.414C40.882 9.04067 40.742 8.546 40.742 7.93C40.742 7.35133 40.8867 6.84733 41.176 6.418C41.4653 5.98867 41.8713 5.662 42.394 5.438C42.9167 5.20467 43.514 5.088 44.186 5.088C45.194 5.088 46.0107 5.33533 46.636 5.83C47.2707 6.31533 47.6207 6.99667 47.686 7.874H45.53C45.5113 7.538 45.3667 7.26267 45.096 7.048C44.8347 6.824 44.4847 6.712 44.046 6.712C43.6633 6.712 43.3553 6.81 43.122 7.006C42.898 7.202 42.786 7.48667 42.786 7.86C42.786 8.12133 42.87 8.34067 43.038 8.518C43.2153 8.686 43.43 8.826 43.682 8.938C43.9433 9.04067 44.3073 9.162 44.774 9.302C45.4087 9.48867 45.9267 9.67533 46.328 9.862C46.7293 10.0487 47.0747 10.3287 47.364 10.702C47.6533 11.0753 47.798 11.5653 47.798 12.172C47.798 12.6947 47.6627 13.18 47.392 13.628C47.1213 14.076 46.7247 14.4353 46.202 14.706C45.6793 14.9673 45.0587 15.098 44.34 15.098ZM48.9932 11.094C48.9932 10.31 49.1472 9.61467 49.4552 9.008C49.7726 8.40133 50.1973 7.93467 50.7293 7.608C51.2706 7.28133 51.8726 7.118 52.5353 7.118C53.1139 7.118 53.6179 7.23467 54.0473 7.468C54.4859 7.70133 54.8359 7.99533 55.0973 8.35V7.244H57.0713V15H55.0973V13.866C54.8453 14.23 54.4953 14.5333 54.0473 14.776C53.6086 15.0093 53.0999 15.126 52.5213 15.126C51.8679 15.126 51.2706 14.958 50.7293 14.622C50.1973 14.286 49.7726 13.8147 49.4552 13.208C49.1472 12.592 48.9932 11.8873 48.9932 11.094ZM55.0973 11.122C55.0973 10.646 55.0039 10.24 54.8173 9.904C54.6306 9.55867 54.3786 9.29733 54.0613 9.12C53.7439 8.93333 53.4033 8.84 53.0393 8.84C52.6753 8.84 52.3393 8.92867 52.0312 9.106C51.7233 9.28333 51.4713 9.54467 51.2753 9.89C51.0886 10.226 50.9953 10.6273 50.9953 11.094C50.9953 11.5607 51.0886 11.9713 51.2753 12.326C51.4713 12.6713 51.7233 12.9373 52.0312 13.124C52.3486 13.3107 52.6846 13.404 53.0393 13.404C53.4033 13.404 53.7439 13.3153 54.0613 13.138C54.3786 12.9513 54.6306 12.69 54.8173 12.354C55.0039 12.0087 55.0973 11.598 55.0973 11.122ZM63.2835 7.132C64.2075 7.132 64.9542 7.426 65.5235 8.014C66.0929 8.59267 66.3775 9.40467 66.3775 10.45V15H64.4175V10.716C64.4175 10.1 64.2635 9.62867 63.9555 9.302C63.6475 8.966 63.2275 8.798 62.6955 8.798C62.1542 8.798 61.7249 8.966 61.4075 9.302C61.0995 9.62867 60.9455 10.1 60.9455 10.716V15H58.9855V7.244H60.9455V8.21C61.2069 7.874 61.5382 7.61267 61.9395 7.426C62.3502 7.23 62.7982 7.132 63.2835 7.132ZM67.7374 11.094C67.7374 10.31 67.8914 9.61467 68.1994 9.008C68.5167 8.40133 68.9461 7.93467 69.4874 7.608C70.0287 7.28133 70.6307 7.118 71.2934 7.118C71.7974 7.118 72.2781 7.23 72.7354 7.454C73.1927 7.66867 73.5567 7.958 73.8274 8.322V4.64H75.8154V15H73.8274V13.852C73.5847 14.2347 73.2441 14.5427 72.8054 14.776C72.3667 15.0093 71.8581 15.126 71.2794 15.126C70.6261 15.126 70.0287 14.958 69.4874 14.622C68.9461 14.286 68.5167 13.8147 68.1994 13.208C67.8914 12.592 67.7374 11.8873 67.7374 11.094ZM73.8414 11.122C73.8414 10.646 73.7481 10.24 73.5614 9.904C73.3747 9.55867 73.1227 9.29733 72.8054 9.12C72.4881 8.93333 72.1474 8.84 71.7834 8.84C71.4194 8.84 71.0834 8.92867 70.7754 9.106C70.4674 9.28333 70.2154 9.54467 70.0194 9.89C69.8327 10.226 69.7394 10.6273 69.7394 11.094C69.7394 11.5607 69.8327 11.9713 70.0194 12.326C70.2154 12.6713 70.4674 12.9373 70.7754 13.124C71.0927 13.3107 71.4287 13.404 71.7834 13.404C72.1474 13.404 72.4881 13.3153 72.8054 13.138C73.1227 12.9513 73.3747 12.69 73.5614 12.354C73.7481 12.0087 73.8414 11.598 73.8414 11.122ZM84.9397 10.954C84.9397 11.234 84.921 11.486 84.8837 11.71H79.2137C79.2603 12.27 79.4563 12.7087 79.8017 13.026C80.147 13.3433 80.5717 13.502 81.0757 13.502C81.8037 13.502 82.3217 13.1893 82.6297 12.564H84.7437C84.5197 13.3107 84.0903 13.9267 83.4557 14.412C82.821 14.888 82.0417 15.126 81.1177 15.126C80.371 15.126 79.699 14.9627 79.1017 14.636C78.5137 14.3 78.0517 13.8287 77.7157 13.222C77.389 12.6153 77.2257 11.9153 77.2257 11.122C77.2257 10.3193 77.389 9.61467 77.7157 9.008C78.0423 8.40133 78.4997 7.93467 79.0877 7.608C79.6757 7.28133 80.3523 7.118 81.1177 7.118C81.855 7.118 82.513 7.27667 83.0917 7.594C83.6797 7.91133 84.1323 8.364 84.4497 8.952C84.7763 9.53067 84.9397 10.198 84.9397 10.954ZM82.9097 10.394C82.9003 9.89 82.7183 9.48867 82.3637 9.19C82.009 8.882 81.575 8.728 81.0617 8.728C80.5763 8.728 80.1657 8.87733 79.8297 9.176C79.503 9.46533 79.3023 9.87133 79.2277 10.394H82.9097ZM93.5803 10.954C93.5803 11.234 93.5616 11.486 93.5243 11.71H87.8543C87.901 12.27 88.097 12.7087 88.4423 13.026C88.7876 13.3433 89.2123 13.502 89.7163 13.502C90.4443 13.502 90.9623 13.1893 91.2703 12.564H93.3843C93.1603 13.3107 92.731 13.9267 92.0963 14.412C91.4616 14.888 90.6823 15.126 89.7583 15.126C89.0116 15.126 88.3396 14.9627 87.7423 14.636C87.1543 14.3 86.6923 13.8287 86.3563 13.222C86.0296 12.6153 85.8663 11.9153 85.8663 11.122C85.8663 10.3193 86.0296 9.61467 86.3563 9.008C86.683 8.40133 87.1403 7.93467 87.7283 7.608C88.3163 7.28133 88.993 7.118 89.7583 7.118C90.4956 7.118 91.1536 7.27667 91.7323 7.594C92.3203 7.91133 92.773 8.364 93.0903 8.952C93.417 9.53067 93.5803 10.198 93.5803 10.954ZM91.5503 10.394C91.541 9.89 91.359 9.48867 91.0043 9.19C90.6496 8.882 90.2156 8.728 89.7023 8.728C89.217 8.728 88.8063 8.87733 88.4703 9.176C88.1436 9.46533 87.943 9.87133 87.8683 10.394H91.5503ZM96.9709 8.364C97.2229 8.00933 97.5683 7.71533 98.0069 7.482C98.4549 7.23933 98.9636 7.118 99.5329 7.118C100.196 7.118 100.793 7.28133 101.325 7.608C101.866 7.93467 102.291 8.40133 102.599 9.008C102.916 9.60533 103.075 10.3007 103.075 11.094C103.075 11.8873 102.916 12.592 102.599 13.208C102.291 13.8147 101.866 14.286 101.325 14.622C100.793 14.958 100.196 15.126 99.5329 15.126C98.9636 15.126 98.4596 15.0093 98.0209 14.776C97.5916 14.5427 97.2416 14.2487 96.9709 13.894V18.696H95.0109V7.244H96.9709V8.364ZM101.073 11.094C101.073 10.6273 100.975 10.226 100.779 9.89C100.592 9.54467 100.34 9.28333 100.023 9.106C99.7149 8.92867 99.3789 8.84 99.0149 8.84C98.6603 8.84 98.3243 8.93333 98.0069 9.12C97.6989 9.29733 97.4469 9.55867 97.2509 9.904C97.0643 10.2493 96.9709 10.6553 96.9709 11.122C96.9709 11.5887 97.0643 11.9947 97.2509 12.34C97.4469 12.6853 97.6989 12.9513 98.0069 13.138C98.3243 13.3153 98.6603 13.404 99.0149 13.404C99.3789 13.404 99.7149 13.3107 100.023 13.124C100.34 12.9373 100.592 12.6713 100.779 12.326C100.975 11.9807 101.073 11.57 101.073 11.094ZM116.193 15H114.233L109.795 8.294V15H107.835V5.214H109.795L114.233 11.934V5.214H116.193V15ZM117.626 11.094C117.626 10.31 117.78 9.61467 118.088 9.008C118.405 8.40133 118.83 7.93467 119.362 7.608C119.903 7.28133 120.505 7.118 121.168 7.118C121.747 7.118 122.251 7.23467 122.68 7.468C123.119 7.70133 123.469 7.99533 123.73 8.35V7.244H125.704V15H123.73V13.866C123.478 14.23 123.128 14.5333 122.68 14.776C122.241 15.0093 121.733 15.126 121.154 15.126C120.501 15.126 119.903 14.958 119.362 14.622C118.83 14.286 118.405 13.8147 118.088 13.208C117.78 12.592 117.626 11.8873 117.626 11.094ZM123.73 11.122C123.73 10.646 123.637 10.24 123.45 9.904C123.263 9.55867 123.011 9.29733 122.694 9.12C122.377 8.93333 122.036 8.84 121.672 8.84C121.308 8.84 120.972 8.92867 120.664 9.106C120.356 9.28333 120.104 9.54467 119.908 9.89C119.721 10.226 119.628 10.6273 119.628 11.094C119.628 11.5607 119.721 11.9713 119.908 12.326C120.104 12.6713 120.356 12.9373 120.664 13.124C120.981 13.3107 121.317 13.404 121.672 13.404C122.036 13.404 122.377 13.3153 122.694 13.138C123.011 12.9513 123.263 12.69 123.45 12.354C123.637 12.0087 123.73 11.598 123.73 11.122ZM128.612 6.32C128.267 6.32 127.978 6.21267 127.744 5.998C127.52 5.774 127.408 5.49867 127.408 5.172C127.408 4.84533 127.52 4.57467 127.744 4.36C127.978 4.136 128.267 4.024 128.612 4.024C128.958 4.024 129.242 4.136 129.466 4.36C129.7 4.57467 129.816 4.84533 129.816 5.172C129.816 5.49867 129.7 5.774 129.466 5.998C129.242 6.21267 128.958 6.32 128.612 6.32ZM129.578 7.244V15H127.618V7.244H129.578ZM133.475 4.64V15H131.515V4.64H133.475ZM146.163 7.244L143.895 15H141.781L140.367 9.582L138.953 15H136.825L134.543 7.244H136.531L137.903 13.152L139.387 7.244H141.459L142.915 13.138L144.287 7.244H146.163ZM146.72 11.094C146.72 10.31 146.874 9.61467 147.182 9.008C147.499 8.40133 147.924 7.93467 148.456 7.608C148.997 7.28133 149.599 7.118 150.262 7.118C150.84 7.118 151.344 7.23467 151.774 7.468C152.212 7.70133 152.562 7.99533 152.824 8.35V7.244H154.798V15H152.824V13.866C152.572 14.23 152.222 14.5333 151.774 14.776C151.335 15.0093 150.826 15.126 150.248 15.126C149.594 15.126 148.997 14.958 148.456 14.622C147.924 14.286 147.499 13.8147 147.182 13.208C146.874 12.592 146.72 11.8873 146.72 11.094ZM152.824 11.122C152.824 10.646 152.73 10.24 152.544 9.904C152.357 9.55867 152.105 9.29733 151.788 9.12C151.47 8.93333 151.13 8.84 150.766 8.84C150.402 8.84 150.066 8.92867 149.758 9.106C149.45 9.28333 149.198 9.54467 149.002 9.89C148.815 10.226 148.722 10.6273 148.722 11.094C148.722 11.5607 148.815 11.9713 149.002 12.326C149.198 12.6713 149.45 12.9373 149.758 13.124C150.075 13.3107 150.411 13.404 150.766 13.404C151.13 13.404 151.47 13.3153 151.788 13.138C152.105 12.9513 152.357 12.69 152.544 12.354C152.73 12.0087 152.824 11.598 152.824 11.122ZM158.672 4.64V15H156.712V4.64H158.672Z" fill="white"/>
<path d="M48.092 24.252C48.092 24.7747 47.966 25.2647 47.714 25.722C47.4713 26.1793 47.084 26.548 46.552 26.828C46.0293 27.108 45.3667 27.248 44.564 27.248H42.926V31H40.966V21.228H44.564C45.32 21.228 45.964 21.3587 46.496 21.62C47.028 21.8813 47.4247 22.2407 47.686 22.698C47.9567 23.1553 48.092 23.6733 48.092 24.252ZM44.48 25.666C45.0213 25.666 45.4227 25.5447 45.684 25.302C45.9453 25.05 46.076 24.7 46.076 24.252C46.076 23.3 45.544 22.824 44.48 22.824H42.926V25.666H44.48ZM52.9276 31.126C52.1809 31.126 51.5089 30.9627 50.9116 30.636C50.3142 30.3 49.8429 29.8287 49.4976 29.222C49.1616 28.6153 48.9936 27.9153 48.9936 27.122C48.9936 26.3287 49.1662 25.6287 49.5116 25.022C49.8662 24.4153 50.3469 23.9487 50.9536 23.622C51.5602 23.286 52.2369 23.118 52.9836 23.118C53.7302 23.118 54.4069 23.286 55.0136 23.622C55.6202 23.9487 56.0962 24.4153 56.4416 25.022C56.7962 25.6287 56.9736 26.3287 56.9736 27.122C56.9736 27.9153 56.7916 28.6153 56.4276 29.222C56.0729 29.8287 55.5876 30.3 54.9716 30.636C54.3649 30.9627 53.6836 31.126 52.9276 31.126ZM52.9276 29.418C53.2822 29.418 53.6136 29.334 53.9216 29.166C54.2389 28.9887 54.4909 28.7273 54.6776 28.382C54.8642 28.0367 54.9576 27.6167 54.9576 27.122C54.9576 26.3847 54.7616 25.82 54.3696 25.428C53.9869 25.0267 53.5156 24.826 52.9556 24.826C52.3956 24.826 51.9242 25.0267 51.5416 25.428C51.1682 25.82 50.9816 26.3847 50.9816 27.122C50.9816 27.8593 51.1636 28.4287 51.5276 28.83C51.9009 29.222 52.3676 29.418 52.9276 29.418ZM60.3713 20.64V31H58.4113V20.64H60.3713ZM69.7278 23.244L64.9258 34.668H62.8398L64.5198 30.804L61.4118 23.244H63.6098L65.6118 28.662L67.6418 23.244H69.7278ZM73.8224 23.118C74.401 23.118 74.9097 23.2347 75.3484 23.468C75.787 23.692 76.1324 23.986 76.3844 24.35V23.244H78.3584V31.056C78.3584 31.7747 78.2137 32.414 77.9244 32.974C77.635 33.5433 77.201 33.9913 76.6224 34.318C76.0437 34.654 75.3437 34.822 74.5224 34.822C73.421 34.822 72.5157 34.5653 71.8064 34.052C71.1064 33.5387 70.7097 32.8387 70.6164 31.952H72.5624C72.665 32.3067 72.8844 32.5867 73.2204 32.792C73.5657 33.0067 73.981 33.114 74.4664 33.114C75.0357 33.114 75.4977 32.9413 75.8524 32.596C76.207 32.26 76.3844 31.7467 76.3844 31.056V29.852C76.1324 30.216 75.7824 30.5193 75.3344 30.762C74.8957 31.0047 74.3917 31.126 73.8224 31.126C73.169 31.126 72.5717 30.958 72.0304 30.622C71.489 30.286 71.0597 29.8147 70.7424 29.208C70.4344 28.592 70.2804 27.8873 70.2804 27.094C70.2804 26.31 70.4344 25.6147 70.7424 25.008C71.0597 24.4013 71.4844 23.9347 72.0164 23.608C72.5577 23.2813 73.1597 23.118 73.8224 23.118ZM76.3844 27.122C76.3844 26.646 76.291 26.24 76.1044 25.904C75.9177 25.5587 75.6657 25.2973 75.3484 25.12C75.031 24.9333 74.6904 24.84 74.3264 24.84C73.9624 24.84 73.6264 24.9287 73.3184 25.106C73.0104 25.2833 72.7584 25.5447 72.5624 25.89C72.3757 26.226 72.2824 26.6273 72.2824 27.094C72.2824 27.5607 72.3757 27.9713 72.5624 28.326C72.7584 28.6713 73.0104 28.9373 73.3184 29.124C73.6357 29.3107 73.9717 29.404 74.3264 29.404C74.6904 29.404 75.031 29.3153 75.3484 29.138C75.6657 28.9513 75.9177 28.69 76.1044 28.354C76.291 28.0087 76.3844 27.598 76.3844 27.122ZM83.7166 31.126C82.97 31.126 82.298 30.9627 81.7006 30.636C81.1033 30.3 80.632 29.8287 80.2866 29.222C79.9506 28.6153 79.7826 27.9153 79.7826 27.122C79.7826 26.3287 79.9553 25.6287 80.3006 25.022C80.6553 24.4153 81.136 23.9487 81.7426 23.622C82.3493 23.286 83.026 23.118 83.7726 23.118C84.5193 23.118 85.196 23.286 85.8026 23.622C86.4093 23.9487 86.8853 24.4153 87.2306 25.022C87.5853 25.6287 87.7626 26.3287 87.7626 27.122C87.7626 27.9153 87.5806 28.6153 87.2166 29.222C86.862 29.8287 86.3766 30.3 85.7606 30.636C85.154 30.9627 84.4726 31.126 83.7166 31.126ZM83.7166 29.418C84.0713 29.418 84.4026 29.334 84.7106 29.166C85.028 28.9887 85.28 28.7273 85.4666 28.382C85.6533 28.0367 85.7466 27.6167 85.7466 27.122C85.7466 26.3847 85.5506 25.82 85.1586 25.428C84.776 25.0267 84.3046 24.826 83.7446 24.826C83.1846 24.826 82.7133 25.0267 82.3306 25.428C81.9573 25.82 81.7706 26.3847 81.7706 27.122C81.7706 27.8593 81.9526 28.4287 82.3166 28.83C82.69 29.222 83.1566 29.418 83.7166 29.418ZM93.4984 23.132C94.4224 23.132 95.169 23.426 95.7384 24.014C96.3077 24.5927 96.5924 25.4047 96.5924 26.45V31H94.6324V26.716C94.6324 26.1 94.4784 25.6287 94.1704 25.302C93.8624 24.966 93.4424 24.798 92.9104 24.798C92.369 24.798 91.9397 24.966 91.6224 25.302C91.3144 25.6287 91.1604 26.1 91.1604 26.716V31H89.2004V23.244H91.1604V24.21C91.4217 23.874 91.753 23.6127 92.1544 23.426C92.565 23.23 93.013 23.132 93.4984 23.132Z" fill="white"/>
</svg>
