<svg width="29" height="29" viewBox="0 0 29 29" fill="none" xmlns="http://www.w3.org/2000/svg">
<path d="M24.3332 5.34375H4.77767C4.42405 5.34375 4.08491 5.48423 3.83486 5.73427C3.58481 5.98432 3.44434 6.32346 3.44434 6.67708V22.6771C3.44434 23.0307 3.58481 23.3698 3.83486 23.6199C4.08491 23.8699 4.42405 24.0104 4.77767 24.0104H24.3332C24.6868 24.0104 25.026 23.8699 25.276 23.6199C25.5261 23.3698 25.6666 23.0307 25.6666 22.6771V6.67708C25.6666 6.32346 25.5261 5.98432 25.276 5.73427C25.026 5.48423 24.6868 5.34375 24.3332 5.34375ZM24.7777 22.6771C24.7777 22.795 24.7308 22.908 24.6475 22.9914C24.5641 23.0747 24.4511 23.1215 24.3332 23.1215H4.77767C4.6598 23.1215 4.54675 23.0747 4.4634 22.9914C4.38005 22.908 4.33322 22.795 4.33322 22.6771V6.67708C4.33322 6.55921 4.38005 6.44616 4.4634 6.36281C4.54675 6.27946 4.6598 6.23264 4.77767 6.23264H24.3332C24.4511 6.23264 24.5641 6.27946 24.6475 6.36281C24.7308 6.44616 24.7777 6.55921 24.7777 6.67708V22.6771ZM20.3332 11.1215C20.3332 11.2394 20.2864 11.3524 20.2031 11.4358C20.1197 11.5191 20.0067 11.566 19.8888 11.566H9.22211C9.10424 11.566 8.99119 11.5191 8.90784 11.4358C8.82449 11.3524 8.77767 11.2394 8.77767 11.1215C8.77767 11.0037 8.82449 10.8906 8.90784 10.8073C8.99119 10.7239 9.10424 10.6771 9.22211 10.6771H19.8888C20.0067 10.6771 20.1197 10.7239 20.2031 10.8073C20.2864 10.8906 20.3332 11.0037 20.3332 11.1215ZM20.3332 14.6771C20.3332 14.795 20.2864 14.908 20.2031 14.9914C20.1197 15.0747 20.0067 15.1215 19.8888 15.1215H9.22211C9.10424 15.1215 8.99119 15.0747 8.90784 14.9914C8.82449 14.908 8.77767 14.795 8.77767 14.6771C8.77767 14.5592 8.82449 14.4462 8.90784 14.3628C8.99119 14.2795 9.10424 14.2326 9.22211 14.2326H19.8888C20.0067 14.2326 20.1197 14.2795 20.2031 14.3628C20.2864 14.4462 20.3332 14.5592 20.3332 14.6771ZM20.3332 18.2326C20.3332 18.3505 20.2864 18.4636 20.2031 18.5469C20.1197 18.6303 20.0067 18.6771 19.8888 18.6771H9.22211C9.10424 18.6771 8.99119 18.6303 8.90784 18.5469C8.82449 18.4636 8.77767 18.3505 8.77767 18.2326C8.77767 18.1148 8.82449 18.0017 8.90784 17.9184C8.99119 17.835 9.10424 17.7882 9.22211 17.7882H19.8888C20.0067 17.7882 20.1197 17.835 20.2031 17.9184C20.2864 18.0017 20.3332 18.1148 20.3332 18.2326Z" fill="white"/>
</svg>
