<svg width="29" height="29" viewBox="0 0 29 29" fill="none" xmlns="http://www.w3.org/2000/svg">
<path d="M25.2221 23.2292H23.8888V5.00694C23.8888 4.88907 23.842 4.77602 23.7586 4.69267C23.6753 4.60933 23.5622 4.5625 23.4443 4.5625H17.2221C17.1042 4.5625 16.9912 4.60933 16.9078 4.69267C16.8245 4.77602 16.7777 4.88907 16.7777 5.00694V9.89583H10.9999C10.882 9.89583 10.769 9.94266 10.6856 10.026C10.6023 10.1094 10.5554 10.2224 10.5554 10.3403V15.2292H5.66656C5.54868 15.2292 5.43564 15.276 5.35229 15.3593C5.26894 15.4427 5.22211 15.5557 5.22211 15.6736V23.2292H3.88878C3.77091 23.2292 3.65786 23.276 3.57451 23.3593C3.49116 23.4427 3.44434 23.5557 3.44434 23.6736C3.44434 23.7915 3.49116 23.9045 3.57451 23.9879C3.65786 24.0712 3.77091 24.1181 3.88878 24.1181H25.2221C25.34 24.1181 25.453 24.0712 25.5364 23.9879C25.6197 23.9045 25.6666 23.7915 25.6666 23.6736C25.6666 23.5557 25.6197 23.4427 25.5364 23.3593C25.453 23.276 25.34 23.2292 25.2221 23.2292ZM17.6666 5.45139H22.9999V23.2292H17.6666V5.45139ZM11.4443 10.7847H16.7777V23.2292H11.4443V10.7847ZM6.111 16.1181H10.5554V23.2292H6.111V16.1181Z" fill="white"/>
</svg>
