<svg width="29" height="29" viewBox="0 0 29 29" fill="none" xmlns="http://www.w3.org/2000/svg">
<path d="M23.2224 10.3394C23.5761 10.3394 23.9152 10.1989 24.1652 9.94889C24.4153 9.69884 24.5558 9.3597 24.5558 9.00608V5.45052C24.5558 5.0969 24.4153 4.75776 24.1652 4.50771C23.9152 4.25766 23.5761 4.11719 23.2224 4.11719H19.6669C19.3133 4.11719 18.9741 4.25766 18.7241 4.50771C18.474 4.75776 18.3336 5.0969 18.3336 5.45052V6.78385H10.3336V5.45052C10.3336 5.0969 10.1931 4.75776 9.94303 4.50771C9.69298 4.25766 9.35384 4.11719 9.00022 4.11719H5.44466C5.09104 4.11719 4.7519 4.25766 4.50185 4.50771C4.2518 4.75776 4.11133 5.0969 4.11133 5.45052V9.00608C4.11133 9.3597 4.2518 9.69884 4.50185 9.94889C4.7519 10.1989 5.09104 10.3394 5.44466 10.3394H6.77799V18.3394H5.44466C5.09104 18.3394 4.7519 18.4799 4.50185 18.7299C4.2518 18.98 4.11133 19.3191 4.11133 19.6727V23.2283C4.11133 23.5819 4.2518 23.9211 4.50185 24.1711C4.7519 24.4212 5.09104 24.5616 5.44466 24.5616H9.00022C9.35384 24.5616 9.69298 24.4212 9.94303 24.1711C10.1931 23.9211 10.3336 23.5819 10.3336 23.2283V21.895H18.3336V23.2283C18.3336 23.5819 18.474 23.9211 18.7241 24.1711C18.9741 24.4212 19.3133 24.5616 19.6669 24.5616H23.2224C23.5761 24.5616 23.9152 24.4212 24.1652 24.1711C24.4153 23.9211 24.5558 23.5819 24.5558 23.2283V19.6727C24.5558 19.3191 24.4153 18.98 24.1652 18.7299C23.9152 18.4799 23.5761 18.3394 23.2224 18.3394H21.8891V10.3394H23.2224ZM19.2224 5.45052C19.2224 5.33265 19.2693 5.2196 19.3526 5.13625C19.436 5.0529 19.549 5.00608 19.6669 5.00608H23.2224C23.3403 5.00608 23.4534 5.0529 23.5367 5.13625C23.6201 5.2196 23.6669 5.33265 23.6669 5.45052V9.00608C23.6669 9.12395 23.6201 9.237 23.5367 9.32035C23.4534 9.4037 23.3403 9.45052 23.2224 9.45052H19.6669C19.549 9.45052 19.436 9.4037 19.3526 9.32035C19.2693 9.237 19.2224 9.12395 19.2224 9.00608V5.45052ZM5.00022 9.00608V5.45052C5.00022 5.33265 5.04704 5.2196 5.13039 5.13625C5.21374 5.0529 5.32679 5.00608 5.44466 5.00608H9.00022C9.11809 5.00608 9.23114 5.0529 9.31449 5.13625C9.39784 5.2196 9.44466 5.33265 9.44466 5.45052V9.00608C9.44466 9.12395 9.39784 9.237 9.31449 9.32035C9.23114 9.4037 9.11809 9.45052 9.00022 9.45052H5.44466C5.32679 9.45052 5.21374 9.4037 5.13039 9.32035C5.04704 9.237 5.00022 9.12395 5.00022 9.00608ZM9.44466 23.2283C9.44466 23.3462 9.39784 23.4592 9.31449 23.5426C9.23114 23.6259 9.11809 23.6727 9.00022 23.6727H5.44466C5.32679 23.6727 5.21374 23.6259 5.13039 23.5426C5.04704 23.4592 5.00022 23.3462 5.00022 23.2283V19.6727C5.00022 19.5549 5.04704 19.4418 5.13039 19.3585C5.21374 19.2751 5.32679 19.2283 5.44466 19.2283H9.00022C9.11809 19.2283 9.23114 19.2751 9.31449 19.3585C9.39784 19.4418 9.44466 19.5549 9.44466 19.6727V23.2283ZM23.6669 19.6727V23.2283C23.6669 23.3462 23.6201 23.4592 23.5367 23.5426C23.4534 23.6259 23.3403 23.6727 23.2224 23.6727H19.6669C19.549 23.6727 19.436 23.6259 19.3526 23.5426C19.2693 23.4592 19.2224 23.3462 19.2224 23.2283V19.6727C19.2224 19.5549 19.2693 19.4418 19.3526 19.3585C19.436 19.2751 19.549 19.2283 19.6669 19.2283H23.2224C23.3403 19.2283 23.4534 19.2751 23.5367 19.3585C23.6201 19.4418 23.6669 19.5549 23.6669 19.6727ZM21.0002 18.3394H19.6669C19.3133 18.3394 18.9741 18.4799 18.7241 18.7299C18.474 18.98 18.3336 19.3191 18.3336 19.6727V21.0061H10.3336V19.6727C10.3336 19.3191 10.1931 18.98 9.94303 18.7299C9.69298 18.4799 9.35384 18.3394 9.00022 18.3394H7.66688V10.3394H9.00022C9.35384 10.3394 9.69298 10.1989 9.94303 9.94889C10.1931 9.69884 10.3336 9.3597 10.3336 9.00608V7.67274H18.3336V9.00608C18.3336 9.3597 18.474 9.69884 18.7241 9.94889C18.9741 10.1989 19.3133 10.3394 19.6669 10.3394H21.0002V18.3394Z" fill="white"/>
</svg>
