<svg width="28" height="28" viewBox="0 0 28 28" fill="none" xmlns="http://www.w3.org/2000/svg">
<path d="M24.5007 3.0625C22.2815 3.0625 19.7801 4.29188 17.0632 6.71562C15.0431 8.51922 13.3018 10.6345 12.1414 12.1767C11.2166 11.8432 10.2251 11.7371 9.25075 11.8675C8.27636 11.9979 7.34768 12.361 6.54317 12.926C5.73866 13.4909 5.08196 14.2413 4.62856 15.1135C4.17517 15.9858 3.93839 16.9544 3.93825 17.9375C3.93825 21.5709 1.61293 23.1875 1.50793 23.2619C1.4302 23.3141 1.37128 23.3899 1.33984 23.4781C1.3084 23.5664 1.3061 23.6623 1.33328 23.752C1.36047 23.8416 1.41569 23.9201 1.49084 23.976C1.56599 24.0319 1.65709 24.0622 1.75075 24.0625H10.0632C11.0463 24.0624 12.0149 23.8256 12.8872 23.3722C13.7595 22.9188 14.5098 22.2621 15.0748 21.4576C15.6398 20.6531 16.0028 19.7244 16.1332 18.75C16.2636 17.7756 16.1576 16.7841 15.824 15.8594C17.3673 14.6967 19.4815 12.9555 21.2851 10.9375C23.7089 8.22062 24.9382 5.71922 24.9382 3.5C24.9382 3.38397 24.8922 3.27269 24.8101 3.19064C24.7281 3.10859 24.6168 3.0625 24.5007 3.0625ZM10.0632 23.1875H2.88278C3.70965 22.2786 4.81325 20.5712 4.81325 17.9375C4.81325 16.8991 5.12115 15.8841 5.69803 15.0208C6.27491 14.1574 7.09485 13.4845 8.05416 13.0871C9.01347 12.6898 10.0691 12.5858 11.0875 12.7884C12.1059 12.9909 13.0413 13.491 13.7756 14.2252C14.5098 14.9594 15.0098 15.8949 15.2124 16.9133C15.4149 17.9317 15.311 18.9873 14.9136 19.9466C14.5163 20.9059 13.8433 21.7258 12.98 22.3027C12.1166 22.8796 11.1016 23.1875 10.0632 23.1875ZM12.9639 12.5442C13.4156 11.9492 13.9832 11.2317 14.6362 10.477C15.8128 11.1986 16.8022 12.188 17.5237 13.3645C16.7647 14.0208 16.0515 14.5852 15.4565 15.0369C14.8862 13.9809 14.0198 13.1145 12.9639 12.5442ZM18.1887 12.7783C17.4296 11.5839 16.4169 10.5711 15.2225 9.81203C17.6101 7.15641 20.9198 4.22516 24.0436 3.95719C23.7756 7.08094 20.8443 10.3906 18.1887 12.7783Z" fill="white"/>
</svg>
