<svg width="28" height="28" viewBox="0 0 28 28" fill="none" xmlns="http://www.w3.org/2000/svg">
<path d="M17.5 4.8125C15.7388 4.8141 14.0152 5.3212 12.5337 6.27355C11.0523 7.22589 9.8753 8.58347 9.14266 10.185C8.725 10.1036 8.3005 10.0626 7.875 10.0625C6.13452 10.0625 4.46532 10.7539 3.23461 11.9846C2.0039 13.2153 1.3125 14.8845 1.3125 16.625C1.3125 18.3655 2.0039 20.0347 3.23461 21.2654C4.46532 22.4961 6.13452 23.1875 7.875 23.1875H17.5C19.9367 23.1875 22.2736 22.2195 23.9965 20.4965C25.7195 18.7736 26.6875 16.4367 26.6875 14C26.6875 11.5633 25.7195 9.22645 23.9965 7.50346C22.2736 5.78047 19.9367 4.8125 17.5 4.8125ZM17.5 22.3125H7.875C7.089 22.3118 6.31167 22.1482 5.59207 21.832C4.87248 21.5158 4.22623 21.0539 3.69412 20.4754C3.16201 19.8969 2.75558 19.2144 2.50048 18.4709C2.24538 17.7274 2.14714 16.9392 2.21198 16.1559C2.27681 15.3725 2.50331 14.6111 2.87717 13.9198C3.25103 13.2284 3.76414 12.622 4.38412 12.1388C5.00411 11.6557 5.7175 11.3063 6.47929 11.1127C7.24109 10.9191 8.03473 10.8855 8.81016 11.0141C8.47964 11.9748 8.31146 12.984 8.3125 14C8.3125 14.116 8.35859 14.2273 8.44064 14.3094C8.52269 14.3914 8.63397 14.4375 8.75 14.4375C8.86603 14.4375 8.97731 14.3914 9.05936 14.3094C9.14141 14.2273 9.1875 14.116 9.1875 14C9.1875 12.3559 9.67502 10.7488 10.5884 9.38182C11.5018 8.01484 12.8 6.9494 14.3189 6.32025C15.8379 5.6911 17.5092 5.52648 19.1217 5.84722C20.7342 6.16796 22.2153 6.95965 23.3778 8.12217C24.5403 9.2847 25.332 10.7658 25.6528 12.3783C25.9735 13.9908 25.8089 15.6621 25.1797 17.1811C24.5506 18.7 23.4852 19.9982 22.1182 20.9116C20.7512 21.825 19.1441 22.3125 17.5 22.3125Z" fill="white"/>
</svg>
