<svg width="30" height="29" viewBox="0 0 30 29" fill="none" xmlns="http://www.w3.org/2000/svg">
<path d="M25.5289 8.29041L15.7511 2.93708C15.5549 2.82971 15.3348 2.77344 15.1111 2.77344C14.8874 2.77344 14.6673 2.82971 14.4711 2.93708L4.69333 8.29041C4.48358 8.40518 4.30854 8.57424 4.18656 8.77989C4.06458 8.98554 4.00014 9.2202 4 9.4593V20.086C4.00014 20.3251 4.06458 20.5597 4.18656 20.7654C4.30854 20.971 4.48358 21.1401 4.69333 21.2549L14.4711 26.6082C14.6672 26.7161 14.8873 26.7726 15.1111 26.7726C15.3349 26.7726 15.555 26.7161 15.7511 26.6082L25.5289 21.2549C25.7386 21.1401 25.9137 20.971 26.0357 20.7654C26.1576 20.5597 26.2221 20.3251 26.2222 20.086V9.4593C26.2221 9.2202 26.1576 8.98554 26.0357 8.77989C25.9137 8.57424 25.7386 8.40518 25.5289 8.29041ZM15.1111 14.266L5.37 8.93264L10.1267 6.32819L14.8978 8.9393C14.9632 8.97509 15.0366 8.99385 15.1111 8.99385C15.1857 8.99385 15.259 8.97509 15.3244 8.9393L20.0956 6.32819L24.8522 8.93152L15.1111 14.266ZM14.8978 3.71708C14.963 3.68069 15.0364 3.66158 15.1111 3.66158C15.1858 3.66158 15.2592 3.68069 15.3244 3.71708L19.17 5.82819L15.1111 8.04375L11.0522 5.82152L14.8978 3.71708ZM4.88889 20.086V15.2693L9.33333 17.7026V22.7826L5.12 20.476C5.05003 20.4377 4.99165 20.3813 4.95098 20.3127C4.91032 20.244 4.88887 20.1657 4.88889 20.086ZM10.2222 23.2693V17.4393C10.2222 17.3595 10.2008 17.2812 10.1601 17.2126C10.1195 17.144 10.0611 17.0876 9.99111 17.0493L4.88889 14.256V9.68264L14.6667 15.036V25.7026L10.2222 23.2693ZM15.5556 25.7015V15.0349L25.3333 9.68152V14.2549L20.2311 17.0482C20.161 17.0866 20.1025 17.1432 20.0618 17.212C20.0211 17.2808 19.9998 17.3594 20 17.4393V23.2693L15.5556 25.7015ZM25.1022 20.4793L20.8889 22.7826V17.7026L25.3333 15.2693V20.086C25.3334 20.1657 25.3119 20.244 25.2712 20.3127C25.2306 20.3813 25.1722 20.4377 25.1022 20.476V20.4793Z" fill="white"/>
</svg>
