<svg width="29" height="29" viewBox="0 0 29 29" fill="none" xmlns="http://www.w3.org/2000/svg">
<path d="M20.3327 10.4645V9.45226C20.3327 6.96003 16.2327 5.00781 10.9993 5.00781C5.76602 5.00781 1.66602 6.96003 1.66602 9.45226V13.8967C1.66602 16.0234 4.65046 17.7545 8.77713 18.2178V19.23C8.77713 21.7223 12.8771 23.6745 18.1105 23.6745C23.3438 23.6745 27.4438 21.7223 27.4438 19.23V14.7856C27.4438 12.6878 24.5405 10.9378 20.3327 10.4645ZM26.5549 14.7856C26.5549 16.5023 23.1616 18.3411 18.1105 18.3411C17.0679 18.3427 16.0272 18.2557 14.9993 18.0811V17.9267C18.1782 17.2256 20.3327 15.7045 20.3327 13.8967V11.36C23.9127 11.7856 26.5549 13.2223 26.5549 14.7856ZM12.3538 17.4067C11.9175 17.4371 11.466 17.4523 10.9993 17.4523C10.3916 17.4523 9.80824 17.4245 9.25157 17.3756H9.22157C8.75935 17.3334 8.3149 17.2756 7.88824 17.2023V13.6523C8.91704 13.817 9.95744 13.8988 10.9993 13.8967C12.0413 13.8988 13.0817 13.817 14.1105 13.6523V17.1989C13.5395 17.2964 12.9639 17.365 12.386 17.4045L12.3538 17.4067ZM19.4438 11.3767V13.8967C19.4438 15.1056 17.7593 16.3745 14.9993 17.02V13.4823C16.9582 13.05 18.5271 12.3067 19.4438 11.3767ZM10.9993 5.8967C16.0505 5.8967 19.4438 7.73559 19.4438 9.45226C19.4438 11.1689 16.0505 13.0078 10.9993 13.0078C5.94824 13.0078 2.5549 11.1689 2.5549 9.45226C2.5549 7.73559 5.94824 5.8967 10.9993 5.8967ZM2.5549 13.8967V11.3767C3.47157 12.3067 5.04046 13.05 6.99935 13.4878V17.0256C4.23935 16.3745 2.5549 15.1056 2.5549 13.8967ZM9.66602 19.23V18.2967C10.1005 18.3256 10.546 18.3411 10.9993 18.3411C11.4527 18.3411 11.8949 18.3256 12.3327 18.2978C12.9131 18.509 13.507 18.6808 14.1105 18.8123V22.3534C11.3505 21.7078 9.66602 20.4389 9.66602 19.23ZM14.9993 22.5323V18.9823C16.028 19.1483 17.0684 19.2312 18.1105 19.23C19.1524 19.2321 20.1928 19.1504 21.2216 18.9856V22.5323C19.1612 22.87 17.0597 22.87 14.9993 22.5323ZM26.5549 19.23C26.5549 20.4389 24.8705 21.7078 22.1105 22.3534V18.8156C24.0693 18.3834 25.6382 17.64 26.5549 16.7045V19.23Z" fill="white"/>
</svg>
