<svg width="30" height="29" viewBox="0 0 30 29" fill="none" xmlns="http://www.w3.org/2000/svg">
<path d="M14.8894 3.22656C12.6919 3.22656 10.5436 3.87822 8.71643 5.09912C6.88922 6.32003 5.46508 8.05535 4.62411 10.0856C3.78313 12.1159 3.5631 14.35 3.99182 16.5053C4.42055 18.6607 5.47878 20.6405 7.03269 22.1944C8.58661 23.7483 10.5664 24.8066 12.7218 25.2353C14.8771 25.664 17.1112 25.444 19.1415 24.603C21.1718 23.762 22.9071 22.3379 24.128 20.5107C25.3489 18.6835 26.0005 16.5352 26.0005 14.3377C25.9973 11.3918 24.8256 8.56754 22.7426 6.4845C20.6596 4.40147 17.8353 3.2298 14.8894 3.22656ZM14.8894 24.5599C12.8677 24.5599 10.8913 23.9604 9.21027 22.8371C7.52924 21.7139 6.21903 20.1174 5.44533 18.2495C4.67164 16.3817 4.4692 14.3263 4.86363 12.3434C5.25806 10.3605 6.23163 8.53907 7.66123 7.10947C9.09084 5.67987 10.9123 4.7063 12.8952 4.31187C14.8781 3.91744 16.9334 4.11988 18.8013 4.89357C20.6692 5.66727 22.2657 6.97748 23.3889 8.65851C24.5121 10.3395 25.1117 12.3159 25.1117 14.3377C25.1087 17.0479 24.0308 19.6462 22.1144 21.5626C20.198 23.479 17.5996 24.557 14.8894 24.5599ZM18.8894 16.5599C18.8894 17.2671 18.6085 17.9454 18.1084 18.4455C17.6083 18.9456 16.93 19.2266 16.2228 19.2266H15.3339V20.5599C15.3339 20.6778 15.2871 20.7908 15.2037 20.8742C15.1204 20.9575 15.0073 21.0043 14.8894 21.0043C14.7716 21.0043 14.6585 20.9575 14.5752 20.8742C14.4918 20.7908 14.445 20.6778 14.445 20.5599V19.2266H12.2228C12.1049 19.2266 11.9918 19.1797 11.9085 19.0964C11.8252 19.013 11.7783 18.9 11.7783 18.7821C11.7783 18.6642 11.8252 18.5512 11.9085 18.4678C11.9918 18.3845 12.1049 18.3377 12.2228 18.3377H16.2228C16.6943 18.3377 17.1465 18.1504 17.4798 17.817C17.8132 17.4836 18.0005 17.0314 18.0005 16.5599C18.0005 16.0884 17.8132 15.6362 17.4798 15.3028C17.1465 14.9694 16.6943 14.7821 16.2228 14.7821H13.5561C12.8489 14.7821 12.1706 14.5012 11.6705 14.0011C11.1704 13.501 10.8894 12.8227 10.8894 12.1155C10.8894 11.4082 11.1704 10.7299 11.6705 10.2298C12.1706 9.72974 12.8489 9.44878 13.5561 9.44878H14.445V8.11545C14.445 7.99758 14.4918 7.88453 14.5752 7.80118C14.6585 7.71783 14.7716 7.67101 14.8894 7.67101C15.0073 7.67101 15.1204 7.71783 15.2037 7.80118C15.2871 7.88453 15.3339 7.99758 15.3339 8.11545V9.44878H17.5561C17.674 9.44878 17.787 9.49561 17.8704 9.57896C17.9537 9.66231 18.0005 9.77536 18.0005 9.89323C18.0005 10.0111 17.9537 10.1241 17.8704 10.2075C17.787 10.2908 17.674 10.3377 17.5561 10.3377H13.5561C13.0846 10.3377 12.6324 10.525 12.299 10.8584C11.9656 11.1918 11.7783 11.644 11.7783 12.1155C11.7783 12.5869 11.9656 13.0391 12.299 13.3725C12.6324 13.7059 13.0846 13.8932 13.5561 13.8932H16.2228C16.93 13.8932 17.6083 14.1742 18.1084 14.6743C18.6085 15.1744 18.8894 15.8527 18.8894 16.5599Z" fill="white"/>
</svg>
