<svg width="28" height="28" viewBox="0 0 28 28" fill="none" xmlns="http://www.w3.org/2000/svg">
<path d="M5.6875 16.1875H3.9375C3.82147 16.1875 3.71019 16.2336 3.62814 16.3156C3.54609 16.3977 3.5 16.509 3.5 16.625V22.75C3.5 22.866 3.54609 22.9773 3.62814 23.0594C3.71019 23.1414 3.82147 23.1875 3.9375 23.1875H5.6875C6.61576 23.1875 7.506 22.8187 8.16237 22.1624C8.81875 21.506 9.1875 20.6158 9.1875 19.6875C9.1875 18.7592 8.81875 17.869 8.16237 17.2126C7.506 16.5562 6.61576 16.1875 5.6875 16.1875ZM5.6875 22.3125H4.375V17.0625H5.6875C6.38369 17.0625 7.05137 17.3391 7.54366 17.8313C8.03594 18.3236 8.3125 18.9913 8.3125 19.6875C8.3125 20.3837 8.03594 21.0514 7.54366 21.5437C7.05137 22.0359 6.38369 22.3125 5.6875 22.3125ZM23.928 21.6562C23.9695 21.696 24.0028 21.7436 24.026 21.7962C24.0491 21.8489 24.0617 21.9056 24.0629 21.9631C24.0641 22.0206 24.054 22.0777 24.0331 22.1313C24.0122 22.1849 23.9809 22.2338 23.9411 22.2753C23.6768 22.5598 23.3573 22.7875 23.0021 22.9443C22.6468 23.1012 22.2633 23.1839 21.875 23.1875C20.1862 23.1875 18.8125 21.6169 18.8125 19.6875C18.8125 17.7581 20.1862 16.1875 21.875 16.1875C22.2635 16.1914 22.6471 16.2745 23.0023 16.4317C23.3576 16.5889 23.677 16.8169 23.9411 17.1019C23.9809 17.1434 24.0121 17.1923 24.033 17.2459C24.0538 17.2995 24.064 17.3566 24.0627 17.4141C24.0615 17.4716 24.049 17.5283 24.0259 17.5809C24.0027 17.6336 23.9695 17.6812 23.928 17.7209C23.8865 17.7607 23.8375 17.7919 23.7839 17.8128C23.7304 17.8337 23.6732 17.8438 23.6157 17.8426C23.5582 17.8414 23.5015 17.8288 23.4489 17.8057C23.3963 17.7826 23.3487 17.7493 23.3089 17.7078C23.1264 17.5083 22.9051 17.3481 22.6586 17.2371C22.412 17.1262 22.1454 17.0667 21.875 17.0625C20.6719 17.0625 19.6875 18.2405 19.6875 19.6875C19.6875 21.1345 20.6719 22.3125 21.875 22.3125C22.1454 22.3083 22.412 22.2488 22.6586 22.1379C22.9051 22.0269 23.1264 21.8667 23.3089 21.6672C23.3488 21.6258 23.3965 21.5927 23.4492 21.5697C23.5019 21.5467 23.5587 21.5344 23.6162 21.5334C23.6737 21.5324 23.7308 21.5427 23.7843 21.5638C23.8378 21.5849 23.8866 21.6163 23.928 21.6562ZM14 16.1875C12.3112 16.1875 10.9375 17.7581 10.9375 19.6875C10.9375 21.6169 12.3112 23.1875 14 23.1875C15.6887 23.1875 17.0625 21.6169 17.0625 19.6875C17.0625 17.7581 15.6887 16.1875 14 16.1875ZM14 22.3125C12.7969 22.3125 11.8125 21.1345 11.8125 19.6875C11.8125 18.2405 12.7969 17.0625 14 17.0625C15.2031 17.0625 16.1875 18.2405 16.1875 19.6875C16.1875 21.1345 15.2031 22.3125 14 22.3125ZM5.25 12.6875C5.36603 12.6875 5.47731 12.6414 5.55936 12.5594C5.64141 12.4773 5.6875 12.366 5.6875 12.25V4.375C5.6875 4.25897 5.73359 4.14769 5.81564 4.06564C5.89769 3.98359 6.00897 3.9375 6.125 3.9375H16.1875V9.625C16.1875 9.74103 16.2336 9.85231 16.3156 9.93436C16.3977 10.0164 16.509 10.0625 16.625 10.0625H22.3125V12.25C22.3125 12.366 22.3586 12.4773 22.4406 12.5594C22.5227 12.6414 22.634 12.6875 22.75 12.6875C22.866 12.6875 22.9773 12.6414 23.0594 12.5594C23.1414 12.4773 23.1875 12.366 23.1875 12.25V9.625C23.1875 9.56753 23.1763 9.51061 23.1543 9.4575C23.1324 9.40439 23.1001 9.35613 23.0595 9.31547L16.9345 3.19047C16.8939 3.14985 16.8456 3.11765 16.7925 3.09569C16.7394 3.07373 16.6825 3.06245 16.625 3.0625H6.125C5.7769 3.0625 5.44306 3.20078 5.19692 3.44692C4.95078 3.69306 4.8125 4.0269 4.8125 4.375V12.25C4.8125 12.366 4.85859 12.4773 4.94064 12.5594C5.02269 12.6414 5.13397 12.6875 5.25 12.6875ZM17.0625 4.55547L21.6934 9.1875H17.0625V4.55547Z" fill="white"/>
</svg>
