<svg width="28" height="28" viewBox="0 0 28 28" fill="none" xmlns="http://www.w3.org/2000/svg">
<path d="M14 3.0625C11.8368 3.0625 9.72212 3.70397 7.92346 4.9058C6.12479 6.10763 4.72291 7.81583 3.89507 9.8144C3.06724 11.813 2.85064 14.0121 3.27267 16.1338C3.69469 18.2555 4.73639 20.2043 6.26602 21.734C7.79566 23.2636 9.74454 24.3053 11.8662 24.7273C13.9879 25.1494 16.187 24.9328 18.1856 24.1049C20.1842 23.2771 21.8924 21.8752 23.0942 20.0765C24.296 18.2779 24.9375 16.1632 24.9375 14C24.9343 11.1002 23.781 8.32003 21.7305 6.26954C19.68 4.21905 16.8998 3.06568 14 3.0625ZM14 23.9105C13.3077 23.2444 11.4844 21.2406 10.5798 17.9375H17.4202C16.5156 21.2406 14.6923 23.2444 14 23.9105ZM10.3709 17.0625C9.9597 15.0415 9.9597 12.9585 10.3709 10.9375H17.6291C18.0403 12.9585 18.0403 15.0415 17.6291 17.0625H10.3709ZM14 4.08953C14.6923 4.75562 16.5156 6.75937 17.4202 10.0625H10.5798C11.4844 6.75937 13.3077 4.75562 14 4.08953ZM18.5292 10.9375H23.5856C24.2214 12.9297 24.2214 15.0703 23.5856 17.0625H18.5292C18.9069 15.0383 18.9069 12.9617 18.5292 10.9375ZM23.2597 10.0625H18.3378C17.7858 7.81177 16.6894 5.73105 15.1452 4.00312C16.9117 4.20837 18.5927 4.87691 20.0177 5.94101C21.4427 7.00511 22.5611 8.42696 23.2597 10.0625ZM12.8559 4.00312C11.3117 5.73105 10.2153 7.81177 9.66329 10.0625H4.74141C5.43995 8.42696 6.55839 7.00511 7.98339 5.94101C9.4084 4.87691 11.0894 4.20837 12.8559 4.00312ZM4.41438 10.9375H9.47079C9.09309 12.9617 9.09309 15.0383 9.47079 17.0625H4.41438C3.77856 15.0703 3.77856 12.9297 4.41438 10.9375ZM4.7425 17.9375H9.66438C10.2164 20.1882 11.3127 22.269 12.857 23.9969C11.0901 23.792 9.40865 23.1236 7.98323 22.0595C6.55781 20.9954 5.43904 19.5733 4.74032 17.9375H4.7425ZM15.1463 23.9969C16.6898 22.2687 17.7853 20.188 18.3367 17.9375H23.2586C22.5601 19.573 21.4416 20.9949 20.0166 22.059C18.5916 23.1231 16.9107 23.7916 15.1441 23.9969H15.1463Z" fill="white"/>
</svg>
