<svg width="110" height="110" viewBox="0 0 110 110" fill="none" xmlns="http://www.w3.org/2000/svg">
<path d="M97.9258 61.9781C96.8516 61.1511 95.6007 60.5839 94.2709 60.3207C92.941 60.0576 91.5683 60.1057 90.2602 60.4613L69.0723 65.3125C69.9871 63.7482 70.4691 61.9685 70.4688 60.1562C70.4688 57.4212 69.3823 54.7982 67.4483 52.8642C65.5143 50.9302 62.8913 49.8438 60.1562 49.8438H38.6461C37.0654 49.8392 35.4995 50.1482 34.0392 50.753C32.5788 51.3578 31.2529 52.2464 30.1383 53.3672L19.9117 63.5938H6.875C5.50748 63.5938 4.19597 64.137 3.22898 65.104C2.262 66.071 1.71875 67.3825 1.71875 68.75V85.9375C1.71875 87.305 2.262 88.6165 3.22898 89.5835C4.19597 90.5505 5.50748 91.0938 6.875 91.0938H51.5625C51.7073 91.0947 51.8517 91.0774 51.9922 91.0422L79.4922 84.1672C79.58 84.1444 79.6661 84.1157 79.75 84.0812L96.4305 76.9742L96.525 76.9312C97.8689 76.2595 99.0198 75.2567 99.8691 74.0173C100.718 72.7778 101.238 71.3426 101.38 69.8468C101.521 68.351 101.279 66.8438 100.677 65.4672C100.075 64.0906 99.1329 62.8899 97.9387 61.9781H97.9258ZM5.15625 85.9375V68.75C5.15625 68.2942 5.33733 67.857 5.65966 67.5347C5.98199 67.2123 6.41916 67.0312 6.875 67.0312H18.9062V87.6562H6.875C6.41916 87.6562 5.98199 87.4752 5.65966 87.1528C5.33733 86.8305 5.15625 86.3933 5.15625 85.9375ZM95.0168 73.8332L78.5125 80.8672L51.352 87.6562H22.3438V66.0258L32.5703 55.7992C33.3661 54.9985 34.313 54.3636 35.3559 53.9314C36.3988 53.4992 37.5172 53.2782 38.6461 53.2812H60.1562C61.9796 53.2812 63.7283 54.0056 65.0176 55.2949C66.3069 56.5842 67.0312 58.3329 67.0312 60.1562C67.0312 61.9796 66.3069 63.7283 65.0176 65.0176C63.7283 66.3069 61.9796 67.0312 60.1562 67.0312H48.125C47.6692 67.0312 47.232 67.2123 46.9097 67.5347C46.5873 67.857 46.4062 68.2942 46.4062 68.75C46.4062 69.2058 46.5873 69.643 46.9097 69.9653C47.232 70.2877 47.6692 70.4688 48.125 70.4688H61.875C62.0051 70.4693 62.1349 70.4549 62.2617 70.4258L91.0508 63.8043H91.1195C92.4096 63.4622 93.7805 63.6087 94.9691 64.2156C96.1577 64.8225 97.0803 65.847 97.5598 67.0925C98.0392 68.338 98.0417 69.7168 97.5668 70.964C97.0919 72.2113 96.1731 73.2392 94.9867 73.8504L95.0168 73.8332ZM70.4688 39.5312C71.737 39.5338 72.9994 39.3603 74.2199 39.0156C74.8048 41.7088 76.1855 44.164 78.1828 46.0628C80.1802 47.9617 82.702 49.2165 85.4213 49.6646C88.1405 50.1126 90.9316 49.7332 93.4326 48.5755C95.9336 47.4179 98.029 45.5354 99.4469 43.1723C100.865 40.8091 101.54 38.0745 101.385 35.3229C101.23 32.5714 100.251 29.93 98.5763 27.7414C96.9015 25.5528 94.6077 23.9179 91.9924 23.0489C89.3771 22.1799 86.561 22.1169 83.9094 22.868C83.3597 20.3324 82.1038 18.0041 80.2868 16.152C78.4699 14.3 76.166 12.9998 73.6414 12.4016C71.1168 11.8035 68.4745 11.9319 66.0198 12.7719C63.565 13.6119 61.398 15.1292 59.7691 17.1487C58.1403 19.1681 57.116 21.6072 56.8146 24.1841C56.5133 26.7611 56.9471 29.3707 58.0661 31.7115C59.1851 34.0522 60.9435 36.0287 63.1382 37.4124C65.3329 38.7962 67.8743 39.5307 70.4688 39.5312ZM97.9688 36.0938C97.9688 38.1334 97.3639 40.1272 96.2308 41.8231C95.0976 43.519 93.487 44.8407 91.6027 45.6213C89.7183 46.4018 87.6448 46.606 85.6444 46.2081C83.644 45.8102 81.8064 44.828 80.3642 43.3858C78.922 41.9436 77.9398 40.106 77.5419 38.1056C77.144 36.1052 77.3482 34.0317 78.1287 32.1473C78.9093 30.263 80.2311 28.6524 81.9269 27.5192C83.6228 26.3861 85.6166 25.7813 87.6562 25.7813C90.3913 25.7813 93.0143 26.8677 94.9483 28.8017C96.8823 30.7357 97.9688 33.3587 97.9688 36.0938ZM70.4688 15.4688C72.9404 15.4685 75.33 16.356 77.2022 17.9696C79.0745 19.5832 80.305 21.8155 80.6695 24.2602C78.695 25.422 77.0421 27.0588 75.8609 29.0219C74.6798 30.985 74.0079 33.212 73.9062 35.5008C72.49 36.003 70.9811 36.1896 69.4852 36.0476C67.9893 35.9056 66.5425 35.4384 65.246 34.6787C63.9496 33.919 62.8348 32.8852 61.9798 31.6496C61.1247 30.4139 60.55 29.0064 60.2958 27.5254C60.0417 26.0444 60.1143 24.5258 60.5085 23.0757C60.9027 21.6257 61.609 20.2794 62.5781 19.131C63.5471 17.9825 64.7554 17.0597 66.1183 16.4271C67.4813 15.7945 68.9661 15.4674 70.4688 15.4688Z" fill="white"/>
<path d="M92.7812 38.8125C92.7803 39.6327 92.4541 40.4191 91.8741 40.9991C91.2941 41.5791 90.5077 41.9053 89.6875 41.9062H88.2812V43.3125C88.2812 43.3871 88.2516 43.4586 88.1989 43.5114C88.1461 43.5641 88.0746 43.5938 88 43.5938C87.9254 43.5938 87.8539 43.5641 87.8011 43.5114C87.7484 43.4586 87.7188 43.3871 87.7188 43.3125V41.9062H86.3125C85.4923 41.9053 84.7059 41.5791 84.1259 40.9991C83.5459 40.4191 83.2197 39.6327 83.2188 38.8125C83.2188 38.7379 83.2484 38.6664 83.3011 38.6136C83.3539 38.5609 83.4254 38.5312 83.5 38.5312C83.5746 38.5312 83.6461 38.5609 83.6989 38.6136C83.7516 38.6664 83.7812 38.7379 83.7812 38.8125C83.7812 39.4838 84.0479 40.1277 84.5226 40.6024C84.9973 41.0771 85.6412 41.3438 86.3125 41.3438H89.6875C90.3588 41.3437 91.0027 41.0771 91.4774 40.6024C91.9521 40.1277 92.2188 39.4838 92.2188 38.8125C92.2188 38.1412 91.9521 37.4973 91.4774 37.0226C91.0027 36.5479 90.3588 36.2813 89.6875 36.2812H86.875C86.0545 36.2812 85.2676 35.9553 84.6874 35.3751C84.1072 34.7949 83.7812 34.008 83.7812 33.1875C83.7812 32.367 84.1072 31.5801 84.6874 30.9999C85.2676 30.4197 86.0545 30.0938 86.875 30.0938H87.7188V28.6875C87.7188 28.6129 87.7484 28.5414 87.8011 28.4886C87.8539 28.4359 87.9254 28.4062 88 28.4062C88.0746 28.4062 88.1461 28.4359 88.1989 28.4886C88.2516 28.5414 88.2812 28.6129 88.2812 28.6875V30.0938H89.125C89.9452 30.0947 90.7316 30.4209 91.3116 31.0009C91.8916 31.5809 92.2178 32.3673 92.2188 33.1875C92.2188 33.2621 92.1891 33.3336 92.1364 33.3864C92.0836 33.4391 92.0121 33.4688 91.9375 33.4688C91.8629 33.4688 91.7914 33.4391 91.7386 33.3864C91.6859 33.3336 91.6562 33.2621 91.6562 33.1875C91.6562 32.5162 91.3896 31.8723 90.9149 31.3976C90.4402 30.9229 89.7963 30.6562 89.125 30.6562H86.875C86.2037 30.6563 85.5598 30.9229 85.0851 31.3976C84.6104 31.8723 84.3438 32.5162 84.3438 33.1875C84.3438 33.8588 84.6104 34.5027 85.0851 34.9774C85.5598 35.4521 86.2037 35.7187 86.875 35.7188H89.6875C90.5077 35.7197 91.2941 36.0459 91.8741 36.6259C92.4541 37.2059 92.7803 37.9923 92.7812 38.8125Z" stroke="white" stroke-width="2"/>
<path d="M75.7812 28.8125C75.7803 29.6327 75.4541 30.4191 74.8741 30.9991C74.2941 31.5791 73.5077 31.9053 72.6875 31.9062H71.2812V33.3125C71.2812 33.3871 71.2516 33.4586 71.1989 33.5114C71.1461 33.5641 71.0746 33.5938 71 33.5938C70.9254 33.5938 70.8539 33.5641 70.8011 33.5114C70.7484 33.4586 70.7188 33.3871 70.7188 33.3125V31.9062H69.3125C68.4923 31.9053 67.7059 31.5791 67.1259 30.9991C66.5459 30.4191 66.2197 29.6327 66.2188 28.8125C66.2188 28.7379 66.2484 28.6664 66.3011 28.6136C66.3539 28.5609 66.4254 28.5312 66.5 28.5312C66.5746 28.5312 66.6461 28.5609 66.6989 28.6136C66.7516 28.6664 66.7812 28.7379 66.7812 28.8125C66.7812 29.4838 67.0479 30.1277 67.5226 30.6024C67.9973 31.0771 68.6412 31.3438 69.3125 31.3438H72.6875C73.3588 31.3437 74.0027 31.0771 74.4774 30.6024C74.9521 30.1277 75.2188 29.4838 75.2188 28.8125C75.2188 28.1412 74.9521 27.4973 74.4774 27.0226C74.0027 26.5479 73.3588 26.2813 72.6875 26.2812H69.875C69.0545 26.2812 68.2676 25.9553 67.6874 25.3751C67.1072 24.7949 66.7812 24.008 66.7812 23.1875C66.7812 22.367 67.1072 21.5801 67.6874 20.9999C68.2676 20.4197 69.0545 20.0938 69.875 20.0938H70.7188V18.6875C70.7188 18.6129 70.7484 18.5414 70.8011 18.4886C70.8539 18.4359 70.9254 18.4062 71 18.4062C71.0746 18.4062 71.1461 18.4359 71.1989 18.4886C71.2516 18.5414 71.2812 18.6129 71.2812 18.6875V20.0938H72.125C72.9452 20.0947 73.7316 20.4209 74.3116 21.0009C74.8916 21.5809 75.2178 22.3673 75.2188 23.1875C75.2188 23.2621 75.1891 23.3336 75.1364 23.3864C75.0836 23.4391 75.0121 23.4688 74.9375 23.4688C74.8629 23.4688 74.7914 23.4391 74.7386 23.3864C74.6859 23.3336 74.6562 23.2621 74.6562 23.1875C74.6562 22.5162 74.3896 21.8723 73.9149 21.3976C73.4402 20.9229 72.7963 20.6562 72.125 20.6562H69.875C69.2037 20.6563 68.5598 20.9229 68.0851 21.3976C67.6104 21.8723 67.3438 22.5162 67.3438 23.1875C67.3438 23.8588 67.6104 24.5027 68.0851 24.9774C68.5598 25.4521 69.2037 25.7187 69.875 25.7188H72.6875C73.5077 25.7197 74.2941 26.0459 74.8741 26.6259C75.4541 27.2059 75.7803 27.9923 75.7812 28.8125Z" stroke="white" stroke-width="2"/>
</svg>
