<svg width="28" height="28" viewBox="0 0 28 28" fill="none" xmlns="http://www.w3.org/2000/svg">
<path d="M27.4232 11.9969L24.6308 6.41881C24.5538 6.26461 24.4471 6.1271 24.3169 6.01413C24.1867 5.90116 24.0356 5.81494 23.872 5.7604C23.7085 5.70586 23.5358 5.68406 23.3639 5.69626C23.192 5.70845 23.0241 5.7544 22.8699 5.83147L20.0021 7.25991L14.109 5.70241C14.0373 5.68349 13.9619 5.68349 13.8902 5.70241L7.9971 7.25991L5.12928 5.826C4.9751 5.74893 4.80724 5.70298 4.63529 5.69079C4.46334 5.67859 4.29068 5.70039 4.12716 5.75493C3.96364 5.80947 3.81246 5.89569 3.68226 6.00866C3.55206 6.12163 3.44539 6.25915 3.36835 6.41335L0.576003 11.9969C0.498929 12.1511 0.452983 12.319 0.440789 12.4909C0.428594 12.6629 0.450389 12.8355 0.504931 12.9991C0.559472 13.1626 0.64569 13.3138 0.758662 13.444C0.871634 13.5742 1.00915 13.6808 1.16335 13.7579L4.14819 15.2508L10.2458 19.6062C10.2902 19.6381 10.3404 19.6611 10.3935 19.674L17.3935 21.424C17.4663 21.443 17.5429 21.443 17.6157 21.4238C17.6885 21.4047 17.7551 21.367 17.8091 21.3146L23.8838 15.2399L26.8369 13.7633C26.9911 13.6863 27.1287 13.5796 27.2416 13.4494C27.3546 13.3192 27.4408 13.1681 27.4954 13.0045C27.5499 12.841 27.5717 12.6683 27.5595 12.4964C27.5473 12.3245 27.5014 12.1566 27.4243 12.0024L27.4232 11.9969ZM21.8451 16.0383L17.7763 12.779C17.6921 12.7114 17.5858 12.6773 17.478 12.6834C17.3702 12.6895 17.2684 12.7352 17.1923 12.8118C15.0605 14.9599 12.6707 14.6832 11.1449 13.7087C11.0887 13.6726 11.0414 13.6244 11.0064 13.5676C10.9714 13.5108 10.9495 13.4469 10.9426 13.3805C10.9351 13.3166 10.9421 13.2519 10.9632 13.1911C10.9842 13.1303 11.0186 13.0751 11.064 13.0294L15.9268 8.3121H19.8544L23.0919 14.7882L21.8451 16.0383ZM1.33507 12.7221C1.30009 12.6138 1.30872 12.496 1.35913 12.394L4.15585 6.80491C4.19173 6.73268 4.24689 6.67178 4.31521 6.62893C4.38354 6.58608 4.46239 6.56295 4.54303 6.5621C4.61069 6.56251 4.67734 6.57861 4.73772 6.60913L7.36272 7.92163L4.17881 14.2883L1.55382 12.9758C1.50247 12.95 1.45672 12.9143 1.41919 12.8707C1.38165 12.8272 1.35307 12.7767 1.33507 12.7221ZM17.3651 20.5151L10.6866 18.8449L4.9335 14.7357L8.25194 8.09335L13.9996 6.57741L17.2502 7.4371H15.7496C15.6357 7.43699 15.5262 7.48133 15.4444 7.56069L10.446 12.4093C10.3069 12.5484 10.2008 12.717 10.1357 12.9026C10.0705 13.0882 10.0479 13.2861 10.0696 13.4817C10.0912 13.6772 10.1565 13.8654 10.2607 14.0323C10.3648 14.1992 10.5052 14.3405 10.6713 14.4458C12.8457 15.836 15.498 15.5396 17.5248 13.701L21.2183 16.6607L17.3651 20.5151ZM26.6619 12.7221C26.6439 12.7767 26.6153 12.8272 26.5778 12.8707C26.5403 12.9143 26.4945 12.95 26.4432 12.9758L23.8182 14.2883L20.6365 7.92163L23.2615 6.60913C23.3647 6.55884 23.4836 6.55119 23.5925 6.58782C23.7014 6.62445 23.7915 6.70242 23.8433 6.80491L26.6357 12.3885C26.689 12.4915 26.6993 12.6115 26.6641 12.7221H26.6619ZM13.993 23.734C13.9688 23.828 13.9139 23.9113 13.837 23.9707C13.7602 24.0301 13.6658 24.0623 13.5687 24.0621C13.5318 24.0622 13.4951 24.0578 13.4593 24.049L8.90053 22.9082C8.84713 22.8951 8.79667 22.8721 8.75178 22.8404L5.87085 20.7808C5.77642 20.7134 5.71266 20.6112 5.69359 20.4968C5.67451 20.3823 5.70168 20.265 5.76913 20.1705C5.83657 20.0761 5.93876 20.0123 6.05322 19.9933C6.16767 19.9742 6.28502 20.0014 6.37944 20.0688L9.19256 22.078L13.6769 23.1991C13.7329 23.2133 13.7856 23.2384 13.8318 23.273C13.8781 23.3076 13.917 23.351 13.9464 23.4007C13.9758 23.4504 13.995 23.5055 14.003 23.5627C14.011 23.6199 14.0076 23.6781 13.993 23.734Z" fill="white"/>
</svg>
