<svg width="28" height="28" viewBox="0 0 28 28" fill="none" xmlns="http://www.w3.org/2000/svg">
<path d="M19.6875 12.25C19.6875 12.366 19.6414 12.4773 19.5594 12.5594C19.4773 12.6414 19.366 12.6875 19.25 12.6875H10.5C10.384 12.6875 10.2727 12.6414 10.1906 12.5594C10.1086 12.4773 10.0625 12.366 10.0625 12.25C10.0625 12.134 10.1086 12.0227 10.1906 11.9406C10.2727 11.8586 10.384 11.8125 10.5 11.8125H19.25C19.366 11.8125 19.4773 11.8586 19.5594 11.9406C19.6414 12.0227 19.6875 12.134 19.6875 12.25ZM19.25 15.3125H10.5C10.384 15.3125 10.2727 15.3586 10.1906 15.4406C10.1086 15.5227 10.0625 15.634 10.0625 15.75C10.0625 15.866 10.1086 15.9773 10.1906 16.0594C10.2727 16.1414 10.384 16.1875 10.5 16.1875H19.25C19.366 16.1875 19.4773 16.1414 19.5594 16.0594C19.6414 15.9773 19.6875 15.866 19.6875 15.75C19.6875 15.634 19.6414 15.5227 19.5594 15.4406C19.4773 15.3586 19.366 15.3125 19.25 15.3125ZM24.9375 7V20.125C24.9375 20.7052 24.707 21.2616 24.2968 21.6718C23.8866 22.082 23.3302 22.3125 22.75 22.3125H3.5C2.92135 22.3125 2.36627 22.0832 1.95629 21.6749C1.5463 21.2665 1.31481 20.7124 1.3125 20.1337V9.625C1.3125 9.50897 1.35859 9.39769 1.44064 9.31564C1.52269 9.23359 1.63397 9.1875 1.75 9.1875C1.86603 9.1875 1.97731 9.23359 2.05936 9.31564C2.14141 9.39769 2.1875 9.50897 2.1875 9.625V20.125C2.1875 20.4731 2.32578 20.8069 2.57192 21.0531C2.81806 21.2992 3.1519 21.4375 3.5 21.4375C3.8481 21.4375 4.18194 21.2992 4.42808 21.0531C4.67422 20.8069 4.8125 20.4731 4.8125 20.125V7C4.8125 6.6519 4.95078 6.31806 5.19692 6.07192C5.44306 5.82578 5.7769 5.6875 6.125 5.6875H23.625C23.9731 5.6875 24.3069 5.82578 24.5531 6.07192C24.7992 6.31806 24.9375 6.6519 24.9375 7ZM24.0625 7C24.0625 6.88397 24.0164 6.77269 23.9344 6.69064C23.8523 6.60859 23.741 6.5625 23.625 6.5625H6.125C6.00897 6.5625 5.89769 6.60859 5.81564 6.69064C5.73359 6.77269 5.6875 6.88397 5.6875 7V20.125C5.68861 20.5985 5.53498 21.0594 5.25 21.4375H22.75C23.0981 21.4375 23.4319 21.2992 23.6781 21.0531C23.9242 20.8069 24.0625 20.4731 24.0625 20.125V7Z" fill="white"/>
</svg>
