<svg width="29" height="28" viewBox="0 0 29 28" fill="none" xmlns="http://www.w3.org/2000/svg">
<path d="M24.125 4.8125H4.875C4.5269 4.8125 4.19306 4.95078 3.94692 5.19692C3.70078 5.44306 3.5625 5.7769 3.5625 6.125V23.625C3.56245 23.6996 3.58148 23.773 3.61778 23.8382C3.65408 23.9034 3.70646 23.9582 3.76992 23.9974C3.83338 24.0367 3.90582 24.059 3.98036 24.0624C4.0549 24.0657 4.12906 24.05 4.19578 24.0166L7.5 22.3639L10.8042 24.0166C10.865 24.047 10.932 24.0628 11 24.0628C11.068 24.0628 11.135 24.047 11.1958 24.0166L14.5 22.3639L17.8042 24.0166C17.865 24.047 17.932 24.0628 18 24.0628C18.068 24.0628 18.135 24.047 18.1958 24.0166L21.5 22.3639L24.8042 24.0166C24.8651 24.0467 24.9321 24.0624 25 24.0625C25.116 24.0625 25.2273 24.0164 25.3094 23.9344C25.3914 23.8523 25.4375 23.741 25.4375 23.625V6.125C25.4375 5.7769 25.2992 5.44306 25.0531 5.19692C24.8069 4.95078 24.4731 4.8125 24.125 4.8125ZM24.5625 22.9173L21.6958 21.4834C21.635 21.453 21.568 21.4372 21.5 21.4372C21.432 21.4372 21.365 21.453 21.3042 21.4834L18 23.1361L14.6958 21.4834C14.635 21.453 14.568 21.4372 14.5 21.4372C14.432 21.4372 14.365 21.453 14.3042 21.4834L11 23.1361L7.69578 21.4834C7.635 21.453 7.56797 21.4372 7.5 21.4372C7.43203 21.4372 7.365 21.453 7.30422 21.4834L4.4375 22.9173V6.125C4.4375 6.00897 4.48359 5.89769 4.56564 5.81564C4.64769 5.73359 4.75897 5.6875 4.875 5.6875H24.125C24.241 5.6875 24.3523 5.73359 24.4344 5.81564C24.5164 5.89769 24.5625 6.00897 24.5625 6.125V22.9173ZM21.9375 12.25C21.9375 12.366 21.8914 12.4773 21.8094 12.5594C21.7273 12.6414 21.616 12.6875 21.5 12.6875H16.25C16.134 12.6875 16.0227 12.6414 15.9406 12.5594C15.8586 12.4773 15.8125 12.366 15.8125 12.25C15.8125 12.134 15.8586 12.0227 15.9406 11.9406C16.0227 11.8586 16.134 11.8125 16.25 11.8125H21.5C21.616 11.8125 21.7273 11.8586 21.8094 11.9406C21.8914 12.0227 21.9375 12.134 21.9375 12.25ZM21.9375 15.75C21.9375 15.866 21.8914 15.9773 21.8094 16.0594C21.7273 16.1414 21.616 16.1875 21.5 16.1875H16.25C16.134 16.1875 16.0227 16.1414 15.9406 16.0594C15.8586 15.9773 15.8125 15.866 15.8125 15.75C15.8125 15.634 15.8586 15.5227 15.9406 15.4406C16.0227 15.3586 16.134 15.3125 16.25 15.3125H21.5C21.616 15.3125 21.7273 15.3586 21.8094 15.4406C21.8914 15.5227 21.9375 15.634 21.9375 15.75ZM12.75 10.0625H7.5C7.38397 10.0625 7.27269 10.1086 7.19064 10.1906C7.10859 10.2727 7.0625 10.384 7.0625 10.5V17.5C7.0625 17.616 7.10859 17.7273 7.19064 17.8094C7.27269 17.8914 7.38397 17.9375 7.5 17.9375H12.75C12.866 17.9375 12.9773 17.8914 13.0594 17.8094C13.1414 17.7273 13.1875 17.616 13.1875 17.5V10.5C13.1875 10.384 13.1414 10.2727 13.0594 10.1906C12.9773 10.1086 12.866 10.0625 12.75 10.0625ZM12.3125 17.0625H7.9375V10.9375H12.3125V17.0625Z" fill="white"/>
</svg>
