<svg width="29" height="28" viewBox="0 0 29 28" fill="none" xmlns="http://www.w3.org/2000/svg">
<path d="M25.875 5.6875H18C17.2766 5.68784 16.5672 5.88746 15.9498 6.26448C15.3324 6.64149 14.8308 7.18131 14.5 7.82469C14.1692 7.18131 13.6676 6.64149 13.0502 6.26448C12.4328 5.88746 11.7234 5.68784 11 5.6875H3.125C3.00897 5.6875 2.89769 5.73359 2.81564 5.81564C2.73359 5.89769 2.6875 6.00897 2.6875 6.125V21.875C2.6875 21.991 2.73359 22.1023 2.81564 22.1844C2.89769 22.2664 3.00897 22.3125 3.125 22.3125H11C11.8122 22.3125 12.5912 22.6352 13.1655 23.2095C13.7398 23.7838 14.0625 24.5628 14.0625 25.375C14.0625 25.491 14.1086 25.6023 14.1906 25.6844C14.2727 25.7664 14.384 25.8125 14.5 25.8125C14.616 25.8125 14.7273 25.7664 14.8094 25.6844C14.8914 25.6023 14.9375 25.491 14.9375 25.375C14.9375 24.5628 15.2602 23.7838 15.8345 23.2095C16.4088 22.6352 17.1878 22.3125 18 22.3125H25.875C25.991 22.3125 26.1023 22.2664 26.1844 22.1844C26.2664 22.1023 26.3125 21.991 26.3125 21.875V6.125C26.3125 6.00897 26.2664 5.89769 26.1844 5.81564C26.1023 5.73359 25.991 5.6875 25.875 5.6875ZM11 21.4375H3.5625V6.5625H11C11.8122 6.5625 12.5912 6.88516 13.1655 7.45949C13.7398 8.03382 14.0625 8.81277 14.0625 9.625V22.9031C13.694 22.4455 13.2276 22.0763 12.6976 21.8226C12.1677 21.569 11.5876 21.4374 11 21.4375ZM25.4375 21.4375H18C17.4124 21.4375 16.8322 21.5693 16.3022 21.8231C15.7722 22.077 15.3059 22.4464 14.9375 22.9042V9.625C14.9375 8.81277 15.2602 8.03382 15.8345 7.45949C16.4088 6.88516 17.1878 6.5625 18 6.5625H25.4375V21.4375ZM18 10.0625H22.375C22.491 10.0625 22.6023 10.1086 22.6844 10.1906C22.7664 10.2727 22.8125 10.384 22.8125 10.5C22.8125 10.616 22.7664 10.7273 22.6844 10.8094C22.6023 10.8914 22.491 10.9375 22.375 10.9375H18C17.884 10.9375 17.7727 10.8914 17.6906 10.8094C17.6086 10.7273 17.5625 10.616 17.5625 10.5C17.5625 10.384 17.6086 10.2727 17.6906 10.1906C17.7727 10.1086 17.884 10.0625 18 10.0625ZM22.8125 14C22.8125 14.116 22.7664 14.2273 22.6844 14.3094C22.6023 14.3914 22.491 14.4375 22.375 14.4375H18C17.884 14.4375 17.7727 14.3914 17.6906 14.3094C17.6086 14.2273 17.5625 14.116 17.5625 14C17.5625 13.884 17.6086 13.7727 17.6906 13.6906C17.7727 13.6086 17.884 13.5625 18 13.5625H22.375C22.491 13.5625 22.6023 13.6086 22.6844 13.6906C22.7664 13.7727 22.8125 13.884 22.8125 14ZM22.8125 17.5C22.8125 17.616 22.7664 17.7273 22.6844 17.8094C22.6023 17.8914 22.491 17.9375 22.375 17.9375H18C17.884 17.9375 17.7727 17.8914 17.6906 17.8094C17.6086 17.7273 17.5625 17.616 17.5625 17.5C17.5625 17.384 17.6086 17.2727 17.6906 17.1906C17.7727 17.1086 17.884 17.0625 18 17.0625H22.375C22.491 17.0625 22.6023 17.1086 22.6844 17.1906C22.7664 17.2727 22.8125 17.384 22.8125 17.5Z" fill="white"/>
</svg>
