<svg width="29px" height="29px" viewBox="0 0 48 48" fill="none" xmlns="http://www.w3.org/2000/svg">
<path d="M42.75 24C42.75 27.7085 41.6503 31.3334 39.5902 34.417C37.5298 37.5005 34.6015 39.9036 31.1753 41.3227C27.7493 42.7418 23.9792 43.1131 20.3421 42.3898C16.7049 41.6662 13.364 39.8806 10.7418 37.2583C8.11952 34.6361 6.33377 31.295 5.61029 27.6578C4.88681 24.0209 5.25812 20.2508 6.67726 16.8247C8.0964 13.3986 10.4996 10.4702 13.5831 8.40994C16.6665 6.34968 20.2916 5.25 24 5.25C28.9711 5.25545 33.737 7.23266 37.2523 10.7478C40.7674 14.2629 42.7445 19.0289 42.75 24ZM41.25 24C41.25 20.5883 40.2384 17.2532 38.3429 14.4164C36.4474 11.5797 33.7534 9.36869 30.6012 8.06309C27.4493 6.75746 23.9809 6.41585 20.6347 7.08146C17.2885 7.74706 14.2149 9.38995 11.8024 11.8024C9.38996 14.2149 7.74706 17.2885 7.08147 20.6347C6.41588 23.9809 6.75747 27.4493 8.06309 30.6012C9.36869 33.7534 11.5797 36.4474 14.4164 38.3429C17.2532 40.2384 20.5883 41.25 24 41.25C28.5734 41.245 32.9582 39.426 36.192 36.192C39.426 32.9582 41.245 28.5734 41.25 24Z" fill="white"/>
<path d="M20.3953 31.0735H13.2V16.8H27.6379V22.443L29.1055 23.8656H34.7388V30.9785H27.6379V25.3831L26.2178 24.0079H20.3953V31.0735Z" fill="white"/>
</svg>
