<svg width="28" height="29" viewBox="0 0 28 29" fill="none" xmlns="http://www.w3.org/2000/svg">
<path d="M25.7909 4.23303C25.5065 3.94862 25.1689 3.72301 24.7973 3.56909C24.4257 3.41516 24.0274 3.33594 23.6252 3.33594C23.223 3.33594 22.8248 3.41516 22.4532 3.56909C22.0816 3.72301 21.744 3.94862 21.4596 4.23303C21.1752 4.51742 20.9496 4.85504 20.7957 5.22662C20.6417 5.5982 20.5625 5.99646 20.5625 6.39866C20.5625 6.80086 20.6417 7.19912 20.7957 7.5707C20.9496 7.94228 21.1752 8.2799 21.4596 8.56428C21.5662 8.67187 21.681 8.77097 21.803 8.86069L18.5513 14.8993C18.073 14.7252 17.5589 14.6727 17.0552 14.7466C16.5516 14.8205 16.0742 15.0184 15.666 15.3226L12.9513 12.6079C13.415 11.9878 13.6266 11.2152 13.5436 10.4454C13.4605 9.67565 13.089 8.9659 12.5038 8.45899C11.9186 7.95209 11.1631 7.68565 10.3893 7.71331C9.61561 7.74096 8.88106 8.06065 8.33352 8.60803C8.022 8.91944 7.78132 9.29439 7.62791 9.70728C7.4745 10.1202 7.41196 10.5613 7.44456 11.0006C7.47716 11.4398 7.60413 11.8669 7.81681 12.2526C8.02949 12.6384 8.32288 12.9737 8.67695 13.2357L5.42414 19.2754C4.87606 19.0749 4.2821 19.0352 3.71221 19.161C3.14233 19.2867 2.62024 19.5727 2.20742 19.9852C1.77916 20.4135 1.48751 20.9592 1.36937 21.5533C1.25123 22.1473 1.31189 22.7631 1.5437 23.3227C1.7755 23.8822 2.16803 24.3605 2.67165 24.697C3.17527 25.0335 3.76736 25.2131 4.37305 25.2131C4.97874 25.2131 5.57083 25.0335 6.07445 24.697C6.57807 24.3605 6.9706 23.8822 7.2024 23.3227C7.4342 22.7631 7.49487 22.1473 7.37673 21.5533C7.25858 20.9592 6.96694 20.4135 6.53867 19.9852C6.43151 19.8782 6.31673 19.7792 6.19524 19.6888L9.44695 13.6502C9.92517 13.8251 10.4394 13.878 10.9432 13.8041C11.447 13.7301 11.9244 13.5318 12.3323 13.2269L15.047 15.9416C14.684 16.4273 14.4733 17.0097 14.4417 17.6152C14.41 18.2206 14.5588 18.8219 14.8692 19.3427C15.1795 19.8635 15.6375 20.2805 16.185 20.5409C16.7326 20.8012 17.3451 20.8931 17.9449 20.8051C18.5448 20.717 19.105 20.4528 19.5546 20.0461C20.0042 19.6393 20.323 19.1083 20.4705 18.5202C20.618 17.9321 20.5876 17.3135 20.3833 16.7427C20.1789 16.1719 19.8097 15.6746 19.3224 15.3138L22.5741 9.27413C23.229 9.51311 23.9458 9.52151 24.6061 9.29795C25.2664 9.07439 25.8307 8.63224 26.2057 8.04457C26.5807 7.4569 26.7439 6.75888 26.6685 6.06586C26.5931 5.37283 26.2835 4.72628 25.7909 4.23303ZM5.91961 23.7018C5.61371 24.0078 5.22394 24.2162 4.79958 24.3006C4.37523 24.3851 3.93537 24.3418 3.53561 24.1763C3.13586 24.0107 2.79418 23.7303 2.55379 23.3706C2.31339 23.0109 2.18508 22.5879 2.18508 22.1552C2.18508 21.7225 2.31339 21.2996 2.55379 20.9398C2.79418 20.5801 3.13586 20.2997 3.53561 20.1342C3.93537 19.9686 4.37523 19.9253 4.79958 20.0098C5.22394 20.0943 5.61371 20.3027 5.91961 20.6087C6.32837 21.0187 6.5579 21.5741 6.5579 22.153C6.5579 22.732 6.32837 23.2874 5.91961 23.6974V23.7018ZM8.95148 12.3268C8.64565 12.0208 8.4374 11.631 8.35306 11.2067C8.26873 10.7824 8.3121 10.3426 8.47769 9.94298C8.64328 9.54331 8.92366 9.20173 9.28338 8.9614C9.64309 8.72107 10.066 8.5928 10.4986 8.5928C10.9312 8.5928 11.3541 8.72107 11.7138 8.9614C12.0735 9.20173 12.3539 9.54331 12.5195 9.94298C12.6851 10.3426 12.7285 10.7824 12.6441 11.2067C12.5598 11.631 12.3515 12.0208 12.0457 12.3268C11.8422 12.5296 11.6007 12.6904 11.3351 12.7999C11.0694 12.9095 10.7848 12.9656 10.4975 12.9651C10.2101 12.9646 9.92569 12.9074 9.66043 12.797C9.39517 12.6865 9.15426 12.5249 8.95148 12.3213V12.3268ZM19.0468 19.3268C18.7408 19.6326 18.3511 19.8409 17.9267 19.9252C17.5024 20.0095 17.0627 19.9662 16.663 19.8006C16.2633 19.635 15.9217 19.3546 15.6814 18.9949C15.4411 18.6352 15.3128 18.2123 15.3128 17.7797C15.3128 17.3471 15.4411 16.9242 15.6814 16.5645C15.9217 16.2047 16.2633 15.9244 16.663 15.7588C17.0627 15.5932 17.5024 15.5498 17.9267 15.6341C18.3511 15.7185 18.7408 15.9267 19.0468 16.2326C19.4559 16.6426 19.6856 17.1982 19.6856 17.7775C19.6856 18.3567 19.4559 18.9123 19.0468 19.3224V19.3268ZM25.1718 7.95178C24.8658 8.25762 24.4761 8.46587 24.0517 8.55021C23.6274 8.63454 23.1877 8.59117 22.788 8.42558C22.3883 8.25998 22.0467 7.9796 21.8064 7.61989C21.5661 7.26018 21.4378 6.83728 21.4378 6.40467C21.4378 5.97206 21.5661 5.54917 21.8064 5.18946C22.0467 4.82974 22.3883 4.54936 22.788 4.38377C23.1877 4.21818 23.6274 4.17481 24.0517 4.25914C24.4761 4.34347 24.8658 4.55173 25.1718 4.85756C25.5806 5.2676 25.8101 5.82296 25.8101 6.40194C25.8101 6.98092 25.5806 7.53628 25.1718 7.94631V7.95178Z" fill="white"/>
</svg>
