<svg width="29" height="30" viewBox="0 0 29 30" fill="none" xmlns="http://www.w3.org/2000/svg">
<path d="M22.3338 6.45226H14.7782V2.45226C14.7782 2.33438 14.7314 2.22134 14.648 2.13799C14.5647 2.05464 14.4516 2.00781 14.3338 2.00781C14.2159 2.00781 14.1028 2.05464 14.0195 2.13799C13.9361 2.22134 13.8893 2.33438 13.8893 2.45226V6.45226H6.33377C5.50865 6.45226 4.71733 6.78003 4.13388 7.36348C3.55043 7.94693 3.22266 8.73825 3.22266 9.56337V22.0078C3.22266 22.8329 3.55043 23.6243 4.13388 24.2077C4.71733 24.7911 5.50865 25.1189 6.33377 25.1189H22.3338C23.1589 25.1189 23.9502 24.7911 24.5337 24.2077C25.1171 23.6243 25.4449 22.8329 25.4449 22.0078V9.56337C25.4449 8.73825 25.1171 7.94693 24.5337 7.36348C23.9502 6.78003 23.1589 6.45226 22.3338 6.45226ZM24.556 22.0078C24.556 22.5972 24.3219 23.1624 23.9051 23.5792C23.4884 23.9959 22.9231 24.23 22.3338 24.23H6.33377C5.7444 24.23 5.17917 23.9959 4.76242 23.5792C4.34567 23.1624 4.11155 22.5972 4.11155 22.0078V9.56337C4.11155 8.974 4.34567 8.40877 4.76242 7.99202C5.17917 7.57527 5.7444 7.34115 6.33377 7.34115H22.3338C22.9231 7.34115 23.4884 7.57527 23.9051 7.99202C24.3219 8.40877 24.556 8.974 24.556 9.56337V22.0078ZM8.55599 12.6745C8.55599 12.4987 8.60812 12.3268 8.70579 12.1806C8.80347 12.0345 8.94229 11.9205 9.10472 11.8533C9.26714 11.786 9.44587 11.7684 9.61829 11.8027C9.79072 11.837 9.9491 11.9216 10.0734 12.0459C10.1977 12.1703 10.2824 12.3286 10.3167 12.5011C10.351 12.6735 10.3334 12.8522 10.2661 13.0146C10.1988 13.1771 10.0849 13.3159 9.93872 13.4136C9.79254 13.5112 9.62068 13.5634 9.44488 13.5634C9.20913 13.5634 8.98304 13.4697 8.81634 13.303C8.64964 13.1363 8.55599 12.9102 8.55599 12.6745ZM18.3338 12.6745C18.3338 12.4987 18.3859 12.3268 18.4836 12.1806C18.5812 12.0345 18.7201 11.9205 18.8825 11.8533C19.0449 11.786 19.2236 11.7684 19.3961 11.8027C19.5685 11.837 19.7269 11.9216 19.8512 12.0459C19.9755 12.1703 20.0602 12.3286 20.0945 12.5011C20.1288 12.6735 20.1112 12.8522 20.0439 13.0146C19.9766 13.1771 19.8627 13.3159 19.7165 13.4136C19.5703 13.5112 19.3985 13.5634 19.2227 13.5634C18.9869 13.5634 18.7608 13.4697 18.5941 13.303C18.4274 13.1363 18.3338 12.9102 18.3338 12.6745ZM18.3338 16.23H10.3338C9.62652 16.23 8.94825 16.511 8.44815 17.0111C7.94805 17.5112 7.6671 18.1895 7.6671 18.8967C7.6671 19.6039 7.94805 20.2822 8.44815 20.7823C8.94825 21.2824 9.62652 21.5634 10.3338 21.5634H18.3338C19.041 21.5634 19.7193 21.2824 20.2194 20.7823C20.7195 20.2822 21.0004 19.6039 21.0004 18.8967C21.0004 18.1895 20.7195 17.5112 20.2194 17.0111C19.7193 16.511 19.041 16.23 18.3338 16.23ZM16.1115 17.1189V20.6745H12.556V17.1189H16.1115ZM8.55599 18.8967C8.55599 18.4252 8.74329 17.973 9.07669 17.6396C9.41009 17.3062 9.86227 17.1189 10.3338 17.1189H11.6671V20.6745H10.3338C9.86227 20.6745 9.41009 20.4872 9.07669 20.1538C8.74329 19.8204 8.55599 19.3682 8.55599 18.8967ZM18.3338 20.6745H17.0004V17.1189H18.3338C18.8053 17.1189 19.2574 17.3062 19.5908 17.6396C19.9242 17.973 20.1115 18.4252 20.1115 18.8967C20.1115 19.3682 19.9242 19.8204 19.5908 20.1538C19.2574 20.4872 18.8053 20.6745 18.3338 20.6745Z" fill="white"/>
</svg>
