<svg width="28" height="28" viewBox="0 0 28 28" fill="none" xmlns="http://www.w3.org/2000/svg">
<path d="M16.1879 24.5C16.1879 24.616 16.1418 24.7273 16.0598 24.8094C15.9777 24.8914 15.8665 24.9375 15.7504 24.9375H12.2504C12.1344 24.9375 12.0231 24.8914 11.9411 24.8094C11.859 24.7273 11.8129 24.616 11.8129 24.5C11.8129 24.384 11.859 24.2727 11.9411 24.1906C12.0231 24.1086 12.1344 24.0625 12.2504 24.0625H15.7504C15.8665 24.0625 15.9777 24.1086 16.0598 24.1906C16.1418 24.2727 16.1879 24.384 16.1879 24.5ZM14.0004 11.8125C14.1735 11.8125 14.3427 11.7612 14.4865 11.665C14.6304 11.5689 14.7426 11.4322 14.8088 11.2724C14.875 11.1125 14.8924 10.9365 14.8586 10.7668C14.8248 10.5971 14.7415 10.4412 14.6191 10.3188C14.4968 10.1964 14.3409 10.1131 14.1711 10.0793C14.0014 10.0456 13.8255 10.0629 13.6656 10.1291C13.5057 10.1953 13.369 10.3075 13.2729 10.4514C13.1767 10.5953 13.1254 10.7644 13.1254 10.9375C13.1254 11.1696 13.2176 11.3921 13.3817 11.5562C13.5458 11.7203 13.7684 11.8125 14.0004 11.8125ZM24.0323 16.9531L22.6793 23.0344C22.6319 23.2522 22.5294 23.4542 22.3816 23.621C22.2337 23.7878 22.0455 23.9138 21.835 23.987C21.6944 24.0365 21.5465 24.062 21.3975 24.0625C21.1022 24.0623 20.8158 23.9621 20.5848 23.7781L17.484 21.4375H10.5168L7.41714 23.7781C7.18619 23.9621 6.89973 24.0623 6.60449 24.0625C6.45546 24.062 6.30757 24.0365 6.16699 23.987C5.95645 23.9138 5.76824 23.7878 5.62039 23.621C5.47254 23.4542 5.37 23.2522 5.32261 23.0344L3.96855 16.9531C3.92518 16.7573 3.92727 16.5541 3.97467 16.3592C4.02207 16.1643 4.11352 15.9828 4.24199 15.8288L7.45214 11.9755C7.81308 6.14251 12.0273 2.49485 13.1965 1.59141C13.4266 1.41315 13.7094 1.31641 14.0004 1.31641C14.2915 1.31641 14.5743 1.41315 14.8043 1.59141C15.9736 2.49485 20.1878 6.14251 20.5487 11.9755L23.7589 15.8288C23.8873 15.9828 23.9788 16.1643 24.0262 16.3592C24.0736 16.5541 24.0757 16.7573 24.0323 16.9531ZM10.6218 20.5625H17.379C23.4143 10.1161 15.8598 3.50548 14.2695 2.27938C14.1926 2.21943 14.0979 2.18686 14.0004 2.18686C13.9029 2.18686 13.8082 2.21943 13.7314 2.27938C12.1411 3.50548 4.58652 10.1161 10.6218 20.5625ZM9.79933 20.883C8.21667 18.1081 7.53964 15.5881 7.43792 13.3503L4.91355 16.3844C4.87074 16.4358 4.84029 16.4964 4.82455 16.5614C4.80881 16.6264 4.8082 16.6942 4.82277 16.7595L6.17464 22.8441C6.19064 22.9168 6.22491 22.9842 6.27423 23.0399C6.32354 23.0957 6.38625 23.1379 6.45645 23.1626C6.52664 23.1874 6.60198 23.1938 6.67535 23.1813C6.74872 23.1688 6.81769 23.1378 6.87574 23.0913L6.88558 23.0836L9.79933 20.883ZM23.0873 16.3844L20.5629 13.3503C20.4656 15.5881 19.7885 18.1081 18.2059 20.883L21.1196 23.0836L21.1295 23.0913C21.1875 23.1378 21.2565 23.1688 21.3299 23.1813C21.4032 23.1938 21.4786 23.1874 21.5488 23.1626C21.619 23.1379 21.6817 23.0957 21.731 23.0399C21.7803 22.9842 21.8146 22.9168 21.8306 22.8441L23.1825 16.7595C23.1964 16.6939 23.1951 16.6259 23.1786 16.5609C23.1621 16.4958 23.1309 16.4354 23.0873 16.3844Z" fill="white"/>
</svg>
