<svg width="29" height="30" viewBox="0 0 29 30" fill="none" xmlns="http://www.w3.org/2000/svg">
<path d="M19.4119 13.7398C19.4557 13.8492 19.4544 13.9714 19.4081 14.0798C19.3619 14.1881 19.2745 14.2736 19.1652 14.3176L15.2586 15.8809L17.5775 18.972C17.6482 19.0663 17.6785 19.1849 17.6619 19.3016C17.6452 19.4183 17.5829 19.5235 17.4886 19.5943C17.3943 19.665 17.2757 19.6954 17.159 19.6787C17.0424 19.662 16.9371 19.5997 16.8663 19.5054L14.5552 16.4243L12.2441 19.5054C12.2091 19.5521 12.1652 19.5914 12.115 19.6211C12.0648 19.6509 12.0092 19.6704 11.9514 19.6787C11.8936 19.6869 11.8348 19.6837 11.7783 19.6693C11.7217 19.6548 11.6686 19.6293 11.6219 19.5943C11.5752 19.5593 11.5359 19.5154 11.5061 19.4652C11.4764 19.4149 11.4568 19.3593 11.4486 19.3016C11.4403 19.2438 11.4435 19.185 11.458 19.1284C11.4725 19.0719 11.498 19.0187 11.533 18.972L13.8519 15.8809L9.94523 14.3176C9.8359 14.2734 9.74861 14.1876 9.70256 14.079C9.65651 13.9705 9.65547 13.848 9.69968 13.7387C9.74388 13.6294 9.8297 13.5421 9.93826 13.496C10.0468 13.45 10.1692 13.449 10.2786 13.4932L14.1108 15.0265V11.2387C14.1108 11.1208 14.1576 11.0078 14.241 10.9244C14.3243 10.8411 14.4374 10.7943 14.5552 10.7943C14.6731 10.7943 14.7862 10.8411 14.8695 10.9244C14.9528 11.0078 14.9997 11.1208 14.9997 11.2387V15.0265L18.8341 13.4932C18.9435 13.4493 19.0657 13.4507 19.1741 13.4969C19.2824 13.5432 19.3679 13.6305 19.4119 13.7398ZM24.7775 6.79427V13.0165C24.7775 18.7009 22.0297 22.1409 19.7252 24.0276C17.2363 26.0632 14.7752 26.7498 14.6719 26.7787C14.5955 26.7995 14.515 26.7995 14.4386 26.7787C14.3352 26.7498 11.8741 26.0632 9.38523 24.0276C7.08079 22.1409 4.33301 18.7009 4.33301 13.0165V6.79427C4.33301 6.44065 4.47348 6.10151 4.72353 5.85146C4.97358 5.60141 5.31272 5.46094 5.66634 5.46094H23.4441C23.7977 5.46094 24.1369 5.60141 24.3869 5.85146C24.637 6.10151 24.7775 6.44065 24.7775 6.79427ZM23.8886 6.79427C23.8886 6.6764 23.8417 6.56335 23.7584 6.48C23.675 6.39665 23.562 6.34983 23.4441 6.34983H5.66634C5.54847 6.34983 5.43542 6.39665 5.35207 6.48C5.26872 6.56335 5.2219 6.6764 5.2219 6.79427V13.0165C5.2219 17.2876 6.80301 20.7532 9.92079 23.3176C11.2972 24.4473 12.8676 25.3174 14.5552 25.8854C16.2427 25.3169 17.8129 24.4469 19.1897 23.3176C22.3075 20.7532 23.8886 17.2876 23.8886 13.0165V6.79427Z" fill="white"/>
</svg>
