<svg width="28" height="28" viewBox="0 0 28 28" fill="none" xmlns="http://www.w3.org/2000/svg">
<path d="M24.8773 19.0308C24.9065 19.0805 24.9255 19.1354 24.9333 19.1924C24.9411 19.2495 24.9376 19.3075 24.923 19.3632C24.9084 19.4189 24.8829 19.4711 24.848 19.5169C24.8132 19.5627 24.7696 19.6012 24.7198 19.6302L14.2198 25.7552C14.1533 25.7936 14.0779 25.8138 14.0011 25.8138C13.9243 25.8138 13.8489 25.7936 13.7823 25.7552L3.28234 19.6302C3.18712 19.5696 3.11896 19.4746 3.09211 19.365C3.06527 19.2554 3.08181 19.1397 3.13828 19.042C3.19475 18.9443 3.28678 18.8722 3.39516 18.8408C3.50353 18.8093 3.61986 18.821 3.71984 18.8733L14.0011 24.8703L24.2823 18.8733C24.3823 18.8159 24.5008 18.8002 24.6122 18.8297C24.7236 18.8592 24.8189 18.9315 24.8773 19.0308ZM24.2812 13.6211L14 19.6181L3.71875 13.6211C3.61876 13.5688 3.50243 13.5572 3.39406 13.5886C3.28569 13.62 3.19365 13.6921 3.13718 13.7898C3.08071 13.8875 3.06417 14.0033 3.09102 14.1129C3.11787 14.2225 3.18602 14.3175 3.28125 14.378L13.7812 20.503C13.8478 20.5414 13.9232 20.5616 14 20.5616C14.0768 20.5616 14.1522 20.5414 14.2187 20.503L24.7187 14.378C24.814 14.3175 24.8821 14.2225 24.909 14.1129C24.9358 14.0033 24.9193 13.8875 24.8628 13.7898C24.8063 13.6921 24.7143 13.62 24.6059 13.5886C24.4976 13.5572 24.3812 13.5688 24.2812 13.6211ZM3.0625 8.74955C3.06258 8.67283 3.08283 8.59748 3.12123 8.53106C3.15962 8.46463 3.21481 8.40947 3.28125 8.37111L13.7812 2.24611C13.8478 2.20772 13.9232 2.1875 14 2.1875C14.0768 2.1875 14.1522 2.20772 14.2187 2.24611L24.7187 8.37111C24.785 8.40957 24.8401 8.46477 24.8783 8.53119C24.9166 8.59761 24.9367 8.67291 24.9367 8.74955C24.9367 8.8262 24.9166 8.9015 24.8783 8.96791C24.8401 9.03433 24.785 9.08953 24.7187 9.12799L14.2187 15.253C14.1522 15.2914 14.0768 15.3116 14 15.3116C13.9232 15.3116 13.8478 15.2914 13.7812 15.253L3.28125 9.12799C3.21481 9.08963 3.15962 9.03447 3.12123 8.96805C3.08283 8.90162 3.06258 8.82627 3.0625 8.74955ZM4.36844 8.74955L14 14.3681L23.6316 8.74955L14 3.13096L4.36844 8.74955Z" fill="white"/>
</svg>
