<svg width="28" height="28" viewBox="0 0 28 28" fill="none" xmlns="http://www.w3.org/2000/svg">
<path d="M23.625 6.5625H18.8125V5.25C18.8125 4.66984 18.582 4.11344 18.1718 3.7032C17.7616 3.29297 17.2052 3.0625 16.625 3.0625H11.375C10.7948 3.0625 10.2384 3.29297 9.8282 3.7032C9.41797 4.11344 9.1875 4.66984 9.1875 5.25V6.5625H4.375C4.0269 6.5625 3.69306 6.70078 3.44692 6.94692C3.20078 7.19306 3.0625 7.5269 3.0625 7.875V21.875C3.0625 22.2231 3.20078 22.5569 3.44692 22.8031C3.69306 23.0492 4.0269 23.1875 4.375 23.1875H23.625C23.9731 23.1875 24.3069 23.0492 24.5531 22.8031C24.7992 22.5569 24.9375 22.2231 24.9375 21.875V7.875C24.9375 7.5269 24.7992 7.19306 24.5531 6.94692C24.3069 6.70078 23.9731 6.5625 23.625 6.5625ZM10.0625 5.25C10.0625 4.9019 10.2008 4.56806 10.4469 4.32192C10.6931 4.07578 11.0269 3.9375 11.375 3.9375H16.625C16.9731 3.9375 17.3069 4.07578 17.5531 4.32192C17.7992 4.56806 17.9375 4.9019 17.9375 5.25V6.5625H10.0625V5.25ZM4.375 7.4375H23.625C23.741 7.4375 23.8523 7.48359 23.9344 7.56564C24.0164 7.64769 24.0625 7.75897 24.0625 7.875V16.1875H3.9375V7.875C3.9375 7.75897 3.98359 7.64769 4.06564 7.56564C4.14769 7.48359 4.25897 7.4375 4.375 7.4375ZM23.625 22.3125H4.375C4.25897 22.3125 4.14769 22.2664 4.06564 22.1844C3.98359 22.1023 3.9375 21.991 3.9375 21.875V17.0625H24.0625V21.875C24.0625 21.991 24.0164 22.1023 23.9344 22.1844C23.8523 22.2664 23.741 22.3125 23.625 22.3125Z" fill="white"/>
</svg>
