<svg width="28" height="28" viewBox="0 0 28 28" fill="none" xmlns="http://www.w3.org/2000/svg">
<path d="M17.7428 13.6358L12.4928 10.1358C12.4269 10.0918 12.3503 10.0666 12.2712 10.0628C12.192 10.0589 12.1134 10.0766 12.0435 10.114C11.9737 10.1514 11.9153 10.2071 11.8746 10.2751C11.8339 10.343 11.8124 10.4208 11.8125 10.5V17.5C11.8124 17.5792 11.8338 17.657 11.8745 17.725C11.9151 17.793 11.9735 17.8487 12.0433 17.8861C12.1132 17.9235 12.1919 17.9413 12.2711 17.9374C12.3503 17.9336 12.4269 17.9083 12.4928 17.8642L17.7428 14.3642C17.8028 14.3243 17.852 14.2702 17.8861 14.2066C17.9201 14.1431 17.9379 14.0721 17.9379 14C17.9379 13.9279 17.9201 13.857 17.8861 13.7934C17.852 13.7299 17.8028 13.6757 17.7428 13.6358ZM12.6875 16.683V11.3171L16.7114 14L12.6875 16.683ZM25.2066 7.71424C25.121 7.37813 24.9568 7.06717 24.7275 6.80702C24.4981 6.54686 24.2102 6.34497 23.8875 6.21799C20.1906 4.78955 14.2483 4.81252 14 4.81252C13.7517 4.81252 7.80937 4.78955 4.1125 6.21799C3.78989 6.34486 3.50205 6.54659 3.27272 6.80655C3.04338 7.0665 2.8791 7.37724 2.79344 7.71315C2.51563 8.77955 2.1875 10.7363 2.1875 14C2.1875 17.2638 2.51563 19.2205 2.79344 20.2869C2.8791 20.6228 3.04338 20.9335 3.27272 21.1935C3.50205 21.4535 3.78989 21.6552 4.1125 21.7821C7.80937 23.2105 13.7517 23.1875 14 23.1875H14.0777C14.8313 23.1875 20.3755 23.1405 23.8908 21.7821C24.2134 21.6552 24.5012 21.4535 24.7306 21.1935C24.9599 20.9335 25.1242 20.6228 25.2098 20.2869C25.4844 19.2194 25.8125 17.2638 25.8125 14C25.8125 10.7363 25.4844 8.77955 25.2066 7.71315V7.71424ZM24.36 20.0736C24.3092 20.2752 24.2112 20.4619 24.074 20.6182C23.9369 20.7745 23.7647 20.896 23.5714 20.9727C20.0309 22.3333 14.0623 22.3125 14 22.3125C13.9377 22.3125 7.97234 22.3333 4.43187 20.9661C4.23861 20.8894 4.06633 20.7679 3.92923 20.6116C3.79213 20.4553 3.69412 20.2687 3.64328 20.0671C3.37641 19.0499 3.0625 17.1719 3.0625 14C3.0625 10.8281 3.37641 8.95018 3.64 7.93299C3.69084 7.73138 3.78884 7.54473 3.92595 7.38842C4.06305 7.23211 4.23533 7.11061 4.42859 7.03393C7.96906 5.66674 13.9377 5.68752 14 5.68752C14.0623 5.68752 20.0277 5.66565 23.5681 7.03393C23.7614 7.11061 23.9337 7.23211 24.0708 7.38842C24.2079 7.54473 24.3059 7.73138 24.3567 7.93299C24.6236 8.95018 24.9375 10.8281 24.9375 14C24.9375 17.1719 24.6236 19.0499 24.36 20.0671V20.0736Z" fill="white"/>
</svg>
